<svg width="64" height="64" viewBox="0 0 64 64" fill="none" xmlns="http://www.w3.org/2000/svg">
<rect width="64" height="64" fill="#005AA3"/>
<path d="M47.8721 9.38672C50.8883 9.38672 53.3334 11.8318 53.3334 14.8481V22.5553C53.3334 22.8452 52.9948 23.0032 52.7727 22.8168L49.0425 19.6867C48.7333 19.4273 48.5547 19.0444 48.5547 18.6408V15.5307C48.5547 14.7767 47.9435 14.1654 47.1894 14.1654H28.4402C28.1192 14.1654 27.8084 14.2785 27.5625 14.4848L15.9332 24.2431C15.624 24.5025 15.4454 24.8854 15.4454 25.289V48.4694C15.4454 49.2234 16.0567 49.8347 16.8107 49.8347H47.8721C48.2491 49.8347 48.5547 49.5291 48.5547 49.1521V34.5971C48.5547 34.3953 48.4655 34.2038 48.3109 34.0741L38.4122 25.7682C38.1585 25.5553 37.7884 25.5553 37.5346 25.7682L27.6359 34.0741C27.4813 34.2038 27.3921 34.3953 27.3921 34.5971V46.3865C27.3921 46.7635 27.0864 47.0691 26.7094 47.0691H23.2961C22.9191 47.0691 22.6134 46.7635 22.6134 46.3865V32.6871C22.6134 32.2836 22.792 31.9006 23.1012 31.6412L37.0958 19.8983C37.6034 19.4724 38.3434 19.4724 38.851 19.8983L53.0896 31.8458C53.2442 31.9755 53.3334 32.167 53.3334 32.3688V49.1521C53.3334 52.1683 50.8883 54.6134 47.8721 54.6134H13.3897C11.8859 54.6134 10.6667 53.3942 10.6667 51.8904V14.1654C10.6667 11.5262 12.8062 9.38672 15.4454 9.38672V18.4141L25.4426 10.0256C25.9344 9.6129 26.5559 9.38672 27.1978 9.38672H47.8721Z" fill="#F2F5F8"/>
<path d="M40.7041 36.8291C41.0811 36.8291 41.3867 37.1348 41.3867 37.5118V46.3865C41.3867 46.7635 41.0811 47.0691 40.7041 47.0691H35.2427C34.8657 47.0691 34.5601 46.7635 34.5601 46.3865V37.5118C34.5601 37.1348 34.8657 36.8291 35.2427 36.8291H40.7041Z" fill="#F2F5F8"/>
</svg>
