<svg preserveAspectRatio="xMidyMid meet" class="shadow" viewBox="0 0 262 125" fill="none" xmlns="http://www.w3.org/2000/svg">
<rect x="0.5" y="0.5" width="260.75" height="124" rx="15.5" fill="white"/>
<rect x="0.5" y="0.5" width="260.75" height="124" rx="15.5" stroke="#D8D3C4"/>
<mask id="mask0_2033_2193" style="mask-type:luminance" maskUnits="userSpaceOnUse" x="10" y="10" width="105" height="105">
<path d="M59.521 15.3436L55.9075 10.4144L53.6338 16.0865L49.4316 11.6492L47.8866 17.5615L43.1608 13.6861L42.3695 19.746L37.196 16.4942L37.1701 22.6049L31.6297 20.0269L32.3701 26.0926L26.5496 24.2291L28.0445 30.1547L22.0364 29.035L24.2634 34.7263L18.161 34.3686L21.0834 39.7364L14.9852 40.1458L18.557 45.1051L12.5581 46.2765L16.7219 50.7488L10.9189 52.6623L15.6114 56.5769L10.0918 59.2025L15.2387 62.4991L10.0918 65.7951L15.6114 68.4206L10.9189 72.3393L16.7219 74.2528L12.5581 78.7252L18.557 79.8966L14.9852 84.8559L21.0834 85.2653L18.161 90.6323L24.2617 90.2754L22.0364 95.9659L28.0445 94.8453L26.5496 100.772L32.3701 98.9082L31.6297 104.975L37.1701 102.397L37.196 108.507L42.3695 105.254L43.1608 111.315L47.8866 107.439L49.4316 113.352L53.6338 108.914L55.9075 114.588L59.5202 109.657L62.4851 115L65.45 109.657L69.0618 114.588L71.3364 108.914L75.5378 113.352L77.0836 107.439L81.8077 111.315L82.5998 105.254L87.7758 108.507L87.7992 102.397L93.3404 104.975L92.6008 98.9082L98.4197 100.772L96.9256 94.8453L102.934 95.9659L100.708 90.2754L106.808 90.6323L103.887 85.2653L109.984 84.8559L106.414 79.8966L112.412 78.7252L108.247 74.2528L114.051 72.3393L109.359 68.4206L114.878 65.7951L109.731 62.4991L114.878 59.2025L109.359 56.5769L114.051 52.6623L108.247 50.7488L112.412 46.2765L106.414 45.1051L109.984 40.1458L103.887 39.7364L106.808 34.3686L100.708 34.7263L102.934 29.035L96.9256 30.1547L98.4197 24.2291L92.6008 26.0926L93.3404 20.0269L87.7992 22.6049L87.7758 16.4942L82.5998 19.746L81.8077 13.6861L77.0836 17.5615L75.5378 11.6492L71.3364 16.0865L69.0618 10.4144L65.45 15.3436L62.4851 10L59.521 15.3436Z" fill="white"/>
</mask>
<g mask="url(#mask0_2033_2193)">
<path d="M59.521 15.3436L55.9075 10.4144L53.6338 16.0865L49.4316 11.6492L47.8866 17.5615L43.1608 13.6861L42.3695 19.746L37.196 16.4942L37.1701 22.6049L31.6297 20.0269L32.3701 26.0926L26.5496 24.2291L28.0445 30.1547L22.0364 29.035L24.2634 34.7263L18.161 34.3686L21.0834 39.7364L14.9852 40.1458L18.557 45.1051L12.5581 46.2765L16.7219 50.7488L10.9189 52.6623L15.6114 56.5769L10.0918 59.2025L15.2387 62.4991L10.0918 65.7951L15.6114 68.4206L10.9189 72.3393L16.7219 74.2528L12.5581 78.7252L18.557 79.8966L14.9852 84.8559L21.0834 85.2653L18.161 90.6323L24.2617 90.2754L22.0364 95.9659L28.0445 94.8453L26.5496 100.772L32.3701 98.9082L31.6297 104.975L37.1701 102.397L37.196 108.507L42.3695 105.254L43.1608 111.315L47.8866 107.439L49.4316 113.352L53.6338 108.914L55.9075 114.588L59.5202 109.657L62.4851 115L65.45 109.657L69.0618 114.588L71.3364 108.914L75.5378 113.352L77.0836 107.439L81.8077 111.315L82.5998 105.254L87.7758 108.507L87.7992 102.397L93.3404 104.975L92.6008 98.9082L98.4197 100.772L96.9256 94.8453L102.934 95.9659L100.708 90.2754L106.808 90.6323L103.887 85.2653L109.984 84.8559L106.414 79.8966L112.412 78.7252L108.247 74.2528L114.051 72.3393L109.359 68.4206L114.878 65.7951L109.731 62.4991L114.878 59.2025L109.359 56.5769L114.051 52.6623L108.247 50.7488L112.412 46.2765L106.414 45.1051L109.984 40.1458L103.887 39.7364L106.808 34.3686L100.708 34.7263L102.934 29.035L96.9256 30.1547L98.4197 24.2291L92.6008 26.0926L93.3404 20.0269L87.7992 22.6049L87.7758 16.4942L82.5998 19.746L81.8077 13.6861L77.0836 17.5615L75.5378 11.6492L71.3364 16.0865L69.0618 10.4144L65.45 15.3436L62.4851 10" fill="url(#paint0_linear_2033_2193)"/>
</g>
<path d="M61.9816 104.588L61.9766 93.8797H61.0644L61.0703 104.568C59.9906 104.532 58.9208 104.455 57.8628 104.339L58.8983 93.7747L57.9903 93.6846L56.9581 104.231C55.8984 104.091 54.8512 103.912 53.8173 103.695L55.825 93.4729L54.9296 93.2986L52.926 103.498C52.1631 103.321 51.4086 103.12 50.6615 102.901L53.7881 92.7717L52.9168 92.5007L49.7894 102.635C48.7447 102.304 47.7175 101.932 46.7086 101.523L50.8649 91.7728L50.0245 91.4218L45.8681 101.171C44.9118 100.759 43.9747 100.312 43.0567 99.8329L48.0501 90.4896L47.2464 90.0603L42.2538 99.4026C41.3066 98.8807 40.382 98.3238 39.4806 97.7326L45.3762 88.9413L44.6183 88.4327L38.7227 97.2248C37.8398 96.6187 36.981 95.9792 36.1481 95.3097L42.8674 87.1354L42.162 86.5601L35.4435 94.7294C34.6206 94.0382 33.8235 93.3153 33.0556 92.5632L40.6262 85.0159L39.9801 84.3731L32.4111 91.9179C31.6632 91.1533 30.9437 90.3596 30.255 89.54L38.6118 82.6939L38.0324 81.9885L29.6755 88.8346C29.0035 87.9992 28.3631 87.1387 27.7553 86.2533L36.6525 80.3201L36.1472 79.5589L27.2484 85.4962C26.6622 84.599 26.1078 83.6811 25.59 82.7389L35.0291 77.7004L34.6006 76.895L25.1598 81.936C24.6662 80.9921 24.2068 80.0275 23.7841 79.0428L33.6726 74.9365L33.3249 74.0936L23.4356 78.2024C23.032 77.2018 22.6643 76.1838 22.3375 75.1474L32.592 72.0533L32.3294 71.1787L22.0732 74.2728C21.7755 73.2506 21.5146 72.2126 21.2936 71.1603L31.8008 69.0759L31.6232 68.1821L21.1169 70.2649C20.9209 69.221 20.7642 68.1638 20.6483 67.094L31.3047 66.0368L31.2155 65.1305L20.5599 66.1869C20.4665 65.1188 20.414 64.0399 20.4023 62.951L31.1079 62.9644V62.0522L20.4031 62.0372C20.4148 60.96 20.4673 59.8919 20.5582 58.8356L31.2138 59.8853L31.303 58.9781L20.6466 57.9284C20.7633 56.8562 20.9201 55.7965 21.116 54.7501L31.6215 56.8328L31.7983 55.939L21.2919 53.8555C21.5146 52.7941 21.778 51.7477 22.079 50.7171L32.3252 53.8338L32.5895 52.9616L22.3433 49.8442C22.6668 48.8228 23.0279 47.8181 23.4256 46.8318L33.3199 50.918L33.6693 50.0768L23.7741 45.9896C24.2001 44.9958 24.6629 44.0228 25.1615 43.0698L34.5964 48.1158L35.0258 47.312L25.5925 42.2661C26.112 41.3222 26.6673 40.4009 27.2551 39.5037L36.1397 45.451L36.6475 44.6948L27.7628 38.7459C28.369 37.8629 29.0077 37.0041 29.678 36.1712L37.939 42.9506L38.5176 42.246L30.2566 35.4675C30.9453 34.6479 31.6649 33.855 32.4128 33.0896L39.9742 40.6377L40.6196 39.9948L33.0573 32.4442C33.8252 31.6922 34.6214 30.9693 35.4452 30.2773L42.2254 38.5374L42.9316 37.9588L36.1497 29.6986C36.9802 29.0299 37.8364 28.3929 38.7169 27.7876L44.6734 36.6639L45.4313 36.1587L39.474 27.2798C40.3803 26.6862 41.3091 26.1259 42.2621 25.6015L47.2906 35.0423L48.0951 34.6145L43.065 25.1712C44.008 24.6793 44.971 24.2207 45.9532 23.7997L50.0562 33.6857L50.8991 33.3372L46.7953 23.4495C47.7892 23.0493 48.8005 22.685 49.8302 22.3598L52.9402 32.606L53.8123 32.3417L50.7015 22.0954C51.7321 21.7945 52.7776 21.5318 53.8382 21.3092L55.9167 31.8147L56.8105 31.6371L54.7328 21.1325C55.775 20.9374 56.8314 20.7815 57.8995 20.6647L58.9567 31.3178L59.8638 31.2311L58.8066 20.5772C59.8746 20.4838 60.9536 20.4313 62.0425 20.4196L62.03 31.1219H62.9404L62.9513 20.4204C64.021 20.4321 65.0807 20.4829 66.1296 20.5738L65.0916 31.2386L65.9987 31.3286L67.0384 20.6614C68.1015 20.7764 69.152 20.9307 70.1892 21.1233L68.1456 31.6455L69.0386 31.8231L71.083 21.2984C72.1494 21.521 73.2016 21.7845 74.2363 22.0855L71.1431 32.3492L72.0135 32.6135L75.1093 22.3498C76.144 22.6758 77.1612 23.041 78.1592 23.4437L74.0554 33.3422L74.8975 33.6907L79.0005 23.7922C79.9927 24.2174 80.964 24.6793 81.9154 25.1762L76.8577 34.6178L77.664 35.0456L82.7191 25.6073C83.658 26.1242 84.5743 26.677 85.4689 27.2615L79.5216 36.1603L80.2795 36.6681L86.2276 27.7701C87.1081 28.3729 87.9635 29.0099 88.794 29.6769L82.0246 37.9588L82.73 38.5374L89.4985 30.2548C90.3431 30.9635 91.1586 31.7046 91.9448 32.4759L84.39 40.0415L85.0345 40.686L92.5893 33.1221C93.3564 33.9083 94.0934 34.7229 94.7971 35.5658L86.5378 42.3461L87.1173 43.0515L95.3733 36.2721C96.0503 37.12 96.6973 37.9938 97.3093 38.8926L88.4538 44.8524L88.9632 45.6061L97.8129 39.6513C98.4132 40.5776 98.9793 41.5265 99.5079 42.5003L90.1163 47.5288L90.5424 48.335L99.934 43.3066C100.433 44.2771 100.895 45.2701 101.32 46.2823L91.5046 50.3586L91.8531 51.2016L101.665 47.1269C102.063 48.1383 102.421 49.1696 102.741 50.2177L92.4818 53.3368L92.746 54.2098L102.999 51.0907C103.292 52.1279 103.544 53.1809 103.758 54.2482L93.1955 56.3568L93.3697 57.2522L103.928 55.1436C104.119 56.2233 104.267 57.3172 104.374 58.4236L93.6599 59.4867L93.7507 60.3922L104.454 59.3316C104.532 60.3788 104.573 61.4377 104.573 62.505C104.573 62.545 104.571 62.585 104.571 62.625L93.8766 62.64V63.5522L104.56 63.5372C104.534 64.6194 104.466 65.6916 104.36 66.7522L93.7166 65.7175L93.629 66.6221L104.257 67.6593C104.133 68.6698 103.973 69.6696 103.778 70.6567L93.1679 68.5498L92.987 69.4436L103.591 71.5489C103.39 72.466 103.159 73.3723 102.898 74.2661L92.6385 71.1662L92.3767 72.0391L102.634 75.1407C102.309 76.1729 101.943 77.1885 101.541 78.1849L91.6471 74.0819L91.2945 74.9223L101.192 79.0278C100.769 80.0141 100.309 80.9805 99.8156 81.9268L90.3681 76.8825L89.9413 77.6879L99.3854 82.7306C98.8668 83.6719 98.3131 84.5924 97.7262 85.4887L88.8248 79.5464L88.3204 80.306L97.2201 86.2458C96.6114 87.1337 95.9694 87.9958 95.2957 88.8329L87.0281 82.046L86.4502 82.7548L94.7179 89.5375C94.0267 90.3604 93.3038 91.1567 92.5518 91.9246L84.9945 84.3614L84.3517 85.0067L91.9081 92.5691C91.1402 93.3203 90.3456 94.0415 89.5235 94.7327L82.7433 86.4625L82.0396 87.0437L88.8182 95.313C87.9844 95.9834 87.1256 96.6229 86.241 97.229L80.2995 88.3343L79.54 88.8388L85.4839 97.7368C84.591 98.3221 83.6746 98.874 82.7358 99.3918L77.6815 89.9552L76.8761 90.3862L81.932 99.8229C80.979 100.321 80.0035 100.787 79.008 101.213L74.9159 91.3117L74.0738 91.6627L78.1651 101.563C77.1754 101.961 76.169 102.324 75.1443 102.648L72.0335 92.394L71.1589 92.6574L74.2722 102.912C72.9482 103.299 71.5983 103.622 70.2251 103.878L68.089 93.1852L67.1943 93.3653L69.3263 104.035C68.2641 104.209 67.1893 104.344 66.1021 104.437L65.0482 93.6822L64.1427 93.7755L65.1908 104.505C64.2961 104.562 63.3948 104.595 62.486 104.595C62.3168 104.595 62.15 104.59 61.9816 104.588ZM62.486 19.0897C38.5477 19.0897 19.0724 38.5658 19.0724 62.505C19.0724 86.4433 38.5477 105.919 62.486 105.919C86.4227 105.919 105.898 86.4433 105.898 62.505C105.898 38.5658 86.4227 19.0897 62.486 19.0897Z" fill="black"/>
<path d="M62.4858 95.6715C44.1679 95.6715 29.3176 80.8212 29.3176 62.5033C29.3176 44.1828 44.1679 29.3334 62.4858 29.3334C80.8021 29.3334 95.6524 44.1828 95.6524 62.5033C95.6524 80.8212 80.8021 95.6715 62.4858 95.6715ZM62.4858 27.0806C42.9248 27.0806 27.0656 42.9413 27.0656 62.5033C27.0656 82.0635 42.9248 97.9235 62.4858 97.9235C82.0453 97.9235 97.9044 82.0635 97.9044 62.5033C97.9044 42.9413 82.0453 27.0806 62.4858 27.0806Z" fill="#231F20"/>
<path d="M38.8769 48.0791L39.3372 47.327L37.9473 46.9768L37.9423 46.9827L38.8769 48.0791ZM39.7666 49.133L39.368 49.7816L37.066 46.9218L37.5012 46.2114L41.0873 46.9818L40.6762 47.6513L39.9525 47.4671L39.2847 48.5551" fill="#231F20"/>
<path d="M43.7812 43.8394L43.3409 44.3496L41.1531 42.4612L41.1465 42.467L42.9132 44.8449L42.4505 45.381L39.8491 43.9702L39.8433 43.9794L42.0311 45.8663L41.5917 46.3765L38.972 44.117L39.6615 43.3183L42.1353 44.6256L42.1411 44.6189L40.4803 42.3719L41.1631 41.5798" fill="#231F20"/>
<path d="M44.7943 39.2129L43.3927 40.3976L43.8621 40.9529L45.1503 39.8649L45.5455 40.3326L44.2581 41.4207L44.8368 42.1035L46.3009 40.867L46.6953 41.3323L44.6909 43.0282L42.4572 40.3876L44.3991 38.7451" fill="#231F20"/>
<path d="M48.006 38.1864C48.3261 37.9922 48.4129 37.7845 48.2353 37.4927C48.1385 37.3368 47.9276 37.1509 47.5666 37.371L46.7987 37.8412L47.2839 38.6308L48.006 38.1864ZM45.8832 37.7045L47.3731 36.789C48.1577 36.3079 48.6563 36.8007 48.8131 37.0542C49.0123 37.3785 49.0198 37.7579 48.788 38.0347C49.0949 37.993 49.2825 38.0038 49.6201 38.555C49.8853 38.9852 49.9503 39.0902 50.1129 39.0594L50.1604 39.1369L49.4784 39.5563C49.3517 39.4404 49.2333 39.3062 49.0465 39.0002C48.7997 38.5991 48.6805 38.4574 48.2236 38.7375L47.5874 39.1294L48.2953 40.28L47.6933 40.6511" fill="#231F20"/>
<path d="M49.7245 35.5586L50.4057 35.2385L51.8315 38.363L51.1504 38.683L49.7245 35.5586Z" fill="#231F20"/>
<path d="M54.606 34.8872C54.4885 34.7079 54.2609 34.3695 53.6939 34.5562C53.3646 34.6629 52.9493 35.0406 53.2528 35.972C53.4438 36.5623 53.8515 37.0175 54.4334 36.8274C54.8128 36.7032 55.0096 36.4014 54.9604 35.972L55.6483 35.7477C55.7425 36.5089 55.4373 37.1609 54.6136 37.4277C53.7381 37.712 52.9177 37.326 52.5483 36.1896C52.1748 35.0406 52.6467 34.2369 53.4955 33.9626C54.481 33.6416 55.0988 34.1885 55.2939 34.6629" fill="#231F20"/>
<path d="M57.8279 35.2116L58.6975 35.0665L58.0505 33.7884L58.0413 33.79L57.8279 35.2116ZM57.6153 36.574L56.8649 36.6999L57.5144 33.0863L58.3365 32.9504L60.1057 36.1621L59.3303 36.2913L58.996 35.6243L57.7362 35.8328" fill="#231F20"/>
<path d="M62.9753 32.6501L63.6482 32.6401L63.7024 36.0978L62.9812 36.1086L61.5354 33.6657H61.5254L61.5646 36.1328L60.8909 36.1428L60.8342 32.6843L61.5963 32.6726L63.0029 35.0581H63.0129" fill="#231F20"/>
<path d="M67.8747 35.5751C67.8397 35.7677 67.8547 36.1454 68.4717 36.2796C68.8061 36.3521 69.1946 36.3538 69.2746 35.997C69.3313 35.7318 69.0921 35.6067 68.7535 35.4425L68.4084 35.2791C67.8914 35.0323 67.3903 34.7963 67.5538 34.0509C67.6371 33.6741 67.984 33.0562 69.0796 33.2955C70.1143 33.5223 70.2443 34.2619 70.1593 34.6746L69.4806 34.527C69.4956 34.3736 69.5189 34.0018 68.8994 33.8675C68.6318 33.8092 68.2908 33.8392 68.2233 34.1443C68.1666 34.4061 68.37 34.512 68.5051 34.5746L69.2838 34.9572C69.7199 35.1715 70.1009 35.4533 69.97 36.0603C69.7466 37.0759 68.6927 36.9374 68.395 36.8749C67.1635 36.6039 67.1069 35.8477 67.1977 35.4292" fill="#231F20"/>
<path d="M72.4537 37.4986C72.8164 37.6404 73.4159 37.6129 73.7652 36.7108C74.1154 35.8086 73.691 35.3842 73.3275 35.2425C72.9623 35.1032 72.3645 35.1291 72.0143 36.0312C71.665 36.935 72.0885 37.3569 72.4537 37.4986ZM73.5484 34.6738C73.9753 34.8389 75.0267 35.4584 74.4397 36.9725C73.8536 38.485 72.6588 38.2332 72.2311 38.0681C71.8042 37.9039 70.7536 37.2844 71.3414 35.7702C71.9276 34.2578 73.1207 34.5079 73.5484 34.6738Z" fill="#231F20"/>
<path d="M77.8891 38.2248C77.9425 38.0164 78.0442 37.6228 77.5272 37.3227C77.2279 37.1484 76.6701 37.0917 76.1757 37.9371C75.8655 38.4749 75.7955 39.0802 76.3241 39.3887C76.671 39.5888 77.027 39.5338 77.3146 39.2111L77.9383 39.5755C77.4347 40.1517 76.7468 40.3584 75.9981 39.9223C75.2019 39.4596 74.9459 38.5908 75.5454 37.5569C76.1532 36.5122 77.067 36.3313 77.8382 36.779C78.7337 37.3002 78.7362 38.1281 78.5127 38.5875" fill="#231F20"/>
<path d="M80.2613 38.5113L80.8459 38.9529L78.7762 41.7072L78.1916 41.2656L80.2613 38.5113Z" fill="#231F20"/>
<path d="M83.7497 42.3512L82.4198 41.0872L81.9179 41.6142L83.1402 42.7756L82.7208 43.2192L81.4968 42.0569L80.8815 42.7056L82.2697 44.0279L81.8478 44.4698L79.9468 42.6622L82.3273 40.1567L84.1707 41.9077" fill="#231F20"/>
<path d="M83.5412 46.5442L83.0926 45.9781L85.3238 44.208L84.6726 43.3892L85.1537 43.009L86.9013 45.2143L86.4218 45.5929L85.7723 44.7741" fill="#231F20"/>
<path d="M85.5847 49.6808L85.2228 49.0572L86.3484 48.4002L87.6099 46.2832L88.0385 47.0219L87.1005 48.396L88.7447 48.2325L89.1549 48.9413L86.7045 49.0296" fill="#231F20"/>
<path d="M37.3669 76.7232C37.5553 77.0667 38.0322 77.4303 38.8793 76.9625C39.7265 76.4923 39.6723 75.897 39.483 75.5535C39.2946 75.2124 38.8185 74.8481 37.9705 75.3175C37.1234 75.7852 37.1768 76.3814 37.3669 76.7232ZM40.0191 75.2591C40.2401 75.6593 40.6495 76.8091 39.2295 77.5945C37.808 78.3791 37.0526 77.4219 36.8308 77.0201C36.6098 76.6198 36.2005 75.4692 37.6212 74.6846C39.0428 73.8976 39.7973 74.8572 40.0191 75.2591Z" fill="#231F20"/>
<path d="M38.8179 79.9216L38.3868 79.3421L41.1616 77.2802L42.6307 79.2529L42.1396 79.6189L41.1024 78.2223L40.4763 78.6867L41.3851 79.9082L40.894 80.2759L39.986 79.0553" fill="#231F20"/>
<path d="M43.6811 83.039L42.6498 84.1963L42.1103 83.7169L44.4098 81.1331L44.9493 81.6141L44.0788 82.5938L45.0869 83.4893L45.9573 82.5104L46.4976 82.9923L44.1964 85.5746L43.6578 85.0935L44.6883 83.9353" fill="#231F20"/>
<path d="M46.7861 86.7394C47.1113 86.9545 47.7016 87.057 48.2352 86.2474C48.7697 85.4403 48.4436 84.9367 48.1185 84.7225C47.7925 84.5074 47.2022 84.4057 46.6686 85.2128C46.1349 86.0215 46.4601 86.5234 46.7861 86.7394ZM48.4545 84.2106C48.8372 84.4624 49.7327 85.2903 48.8389 86.646C47.9451 88.0017 46.8303 87.5015 46.4493 87.2505C46.0666 86.9979 45.1711 86.1683 46.0649 84.8167C46.9595 83.4602 48.0734 83.9571 48.4545 84.2106Z" fill="#231F20"/>
<path d="M51.9038 90.0043L51.2926 89.7208L52.5074 87.1003L52.4991 87.0961L50.6981 89.4474L50.0545 89.1463L50.6981 86.2607L50.6898 86.2532L49.4742 88.8779L48.8622 88.5952L50.3171 85.4578L51.2734 85.8988L50.6956 88.6369L50.704 88.6394L52.4107 86.4266L53.3587 86.8668" fill="#231F20"/>
<path d="M56.3152 88.3826L54.5584 87.8549L54.3483 88.5503L55.9642 89.0364L55.7866 89.6216L54.1741 89.1364L53.9148 89.9952L55.7524 90.5454L55.5765 91.1341L53.0618 90.3779L54.0548 87.0645L56.4911 87.7965" fill="#231F20"/>
<path d="M59.2304 88.2571L59.9657 88.3451L59.601 91.7765L58.8656 91.6886L59.2304 88.2571Z" fill="#231F20"/>
<path d="M63.2314 88.4727L63.9059 88.4778L63.8717 91.9395L63.1488 91.932L61.7664 89.4508H61.7556L61.7314 91.9171L61.0561 91.9095L61.0919 88.4519L61.854 88.4585L63.198 90.8823H63.2072" fill="#231F20"/>
<path d="M65.5275 90.7039C65.555 90.8957 65.6959 91.2475 66.3238 91.17C66.6623 91.1308 67.03 91.0032 66.9858 90.6372C66.9533 90.3704 66.6856 90.3303 66.3121 90.2895L65.9336 90.2478C65.3616 90.1869 64.813 90.1278 64.7179 89.3732C64.6712 88.9905 64.7946 88.2901 65.9085 88.155C66.9616 88.0241 67.3276 88.6803 67.3835 89.0989L66.6956 89.1847C66.6573 89.033 66.5547 88.6778 65.9294 88.752C65.6559 88.7862 65.3432 88.9263 65.3808 89.2373C65.4133 89.5049 65.6417 89.5366 65.7893 89.5499L66.6523 89.6541C67.1342 89.7125 67.5869 89.8509 67.6636 90.4687C67.7904 91.5018 66.7498 91.7202 66.4472 91.7561C65.1948 91.9095 64.8913 91.2158 64.8396 90.7914" fill="#231F20"/>
<path d="M69.814 89.098C70.3359 88.9605 70.2384 88.5894 70.1992 88.4393C70.1141 88.1133 69.8974 88.025 69.4638 88.1375L68.9093 88.2818L69.1653 89.2656L69.814 89.098ZM69.6289 91.0524L68.9294 91.2358L68.0589 87.8857L69.5897 87.4888C70.2367 87.3196 70.7361 87.6339 70.9071 88.2893C70.9863 88.5944 71.0171 89.4015 70.1183 89.6366L69.3145 89.8434" fill="#231F20"/>
<path d="M73.8944 86.5658L72.1927 87.2554L72.4645 87.9274L74.027 87.2954L74.2563 87.8641L72.6946 88.4969L73.0306 89.3265L74.8074 88.6078L75.0384 89.1747L72.6038 90.1603L71.3073 86.9519L73.6643 85.9989" fill="#231F20"/>
<path d="M76.8753 85.5062C76.7219 85.3553 76.4317 85.0726 75.9131 85.3678C75.6129 85.5387 75.2844 85.994 75.7655 86.8427C76.0748 87.3814 76.5668 87.7457 77.0962 87.4422C77.4447 87.2463 77.5756 86.9094 77.4406 86.4992L78.0684 86.1424C78.3143 86.8653 78.1493 87.5656 77.393 87.9925C76.5951 88.4502 75.7147 88.2377 75.1218 87.1996C74.524 86.1491 74.825 85.2678 75.5996 84.8267C76.4984 84.3123 77.2179 84.725 77.5031 85.1493" fill="#231F20"/>
<path d="M80.7381 85.6054L80.1636 86.044L78.4411 83.7753L77.609 84.4081L77.2388 83.9204L79.4791 82.2195L79.8501 82.7064L79.0164 83.3392" fill="#231F20"/>
<path d="M83.075 82.818C83.3527 82.542 83.572 81.9851 82.8883 81.3006C82.2046 80.6102 81.6468 80.8278 81.3675 81.1038C81.0923 81.3797 80.8747 81.9367 81.5567 82.6212C82.2396 83.3116 82.7974 83.094 83.075 82.818ZM80.9373 80.671C81.2624 80.3459 82.2571 79.6396 83.4002 80.7894C84.5441 81.9384 83.8296 82.9289 83.5061 83.2516C83.1809 83.5742 82.1879 84.2846 81.0448 83.1332C79.8992 81.9817 80.6138 80.9929 80.9373 80.671Z" fill="#231F20"/>
<path d="M84.7093 78.7144C84.936 78.415 84.9427 78.1932 84.6692 77.9873C84.5225 77.8772 84.2582 77.7789 84.0039 78.1182L83.4603 78.8378L84.2006 79.3931L84.7093 78.7144ZM82.559 79.0445L83.6095 77.648C84.1623 76.9126 84.8076 77.1852 85.0469 77.3653C85.3504 77.5946 85.4955 77.9456 85.3821 78.2867C85.6548 78.1349 85.8307 78.0757 86.3468 78.4667C86.7495 78.7694 86.8504 78.8436 86.9904 78.7561L87.0647 78.8094L86.5827 79.4514C86.4227 79.3872 86.2634 79.3063 85.9783 79.0904C85.6014 78.8061 85.4363 78.7185 85.1145 79.1488L84.6651 79.7458L85.7481 80.5587L85.3221 81.1248" fill="#231F20"/>
<path d="M86.9872 76.8351C87.1573 76.9268 87.5249 77.0193 87.8334 76.4716C88.0002 76.1714 88.1153 75.8004 87.7951 75.6228C87.5591 75.4894 87.3699 75.6812 87.1147 75.9588L86.8579 76.2381C86.4702 76.6625 86.0992 77.0735 85.4347 76.7008C85.097 76.5107 84.6076 75.9988 85.1554 75.0191C85.674 74.0962 86.4185 74.1862 86.7896 74.3913L86.4502 74.9933C86.3068 74.9374 85.96 74.8082 85.6506 75.3585C85.5172 75.5986 85.4438 75.9329 85.7173 76.0863C85.9524 76.2172 86.1109 76.0539 86.2118 75.943L86.8046 75.3101C87.1372 74.9549 87.5166 74.6706 88.0594 74.9741C88.9674 75.4827 88.5288 76.4507 88.3796 76.7159C87.7617 77.8164 87.023 77.6505 86.6495 77.4421" fill="#231F20"/>
<path d="M32.6394 64.7837L33.2856 62.7568L31.618 61.5787H33.7025L34.472 59.3384L35.2358 61.5787H37.326L35.6526 62.7568L36.2988 64.7837L34.472 63.614" fill="#231F20"/>
<path d="M88.2336 64.7837L88.8789 62.7568L87.2097 61.5787H89.2966L90.067 59.3384L90.8316 61.5787H92.9194L91.2477 62.7568L91.893 64.7837L90.067 63.614" fill="#231F20"/>
<path d="M61.9066 59.0899C61.1837 58.488 60.2599 58.0861 59.2969 58.0861C58.574 58.0861 57.611 58.5088 57.611 59.3526C57.611 60.2339 58.6749 60.5732 59.3577 60.7975L60.3608 61.0977C62.466 61.7205 64.0902 62.7827 64.0902 65.2323C64.0902 66.7381 63.7283 68.2831 62.5252 69.3061C61.3438 70.3083 59.7579 70.7327 58.233 70.7327C56.3253 70.7327 54.4593 70.089 52.9135 69.006L54.6002 65.8343C55.5832 66.6981 56.7472 67.4018 58.0921 67.4018C59.0159 67.4018 59.9989 66.9382 59.9989 65.8751C59.9989 64.7712 58.4539 64.3886 57.611 64.1493C55.1422 63.4456 53.5155 62.8036 53.5155 59.8729C53.5155 56.8012 55.7041 54.7952 58.7349 54.7952C60.2599 54.7952 62.1258 55.2763 63.4665 56.0392" fill="#231F20"/>
<path d="M75.5695 61.0375V55.1953H79.5049V70.3307H75.5695V64.1283H69.8899V70.3307H65.9561V55.1953H69.8899V61.0375" fill="#231F20"/>
<path d="M86.0066 55.1956H82.0713V70.3307H86.0066V55.1956Z" fill="#231F20"/>
<path d="M42.8631 64.6903L44.489 59.8728H44.5281L46.1348 64.6903H42.8631ZM42.3812 55.1953L36.5598 70.3307H40.7353L41.7784 67.7019H47.1987L48.1826 70.3307H52.3781L46.6768 55.1953" fill="black"/>
<path d="M103.541 103.803H103.976C104.424 103.803 104.57 103.674 104.57 103.411C104.57 103.182 104.457 103.054 104.038 103.054H103.541V103.803ZM103.541 105.145H103.172V102.752H104.089C104.658 102.752 104.937 102.964 104.937 103.434C104.937 103.864 104.67 104.048 104.312 104.093L104.994 105.145H104.591L103.955 104.104H103.541V105.145ZM103.983 102.209C103.021 102.209 102.278 102.953 102.278 103.943C102.278 104.954 103.021 105.687 103.983 105.687C104.932 105.687 105.676 104.954 105.676 103.943C105.676 102.953 104.932 102.209 103.983 102.209ZM103.983 101.874C105.111 101.874 106.079 102.752 106.079 103.943C106.079 105.145 105.111 106.021 103.983 106.021C102.842 106.021 101.876 105.145 101.876 103.943C101.876 102.752 102.842 101.874 103.983 101.874Z" fill="#231F20"/>
<path d="M138.691 47.4142C138.244 46.0535 137.282 45.0916 135.764 45.0916C133.711 45.0916 132.458 47.0121 132.458 50.7872C132.414 54.5607 133.532 56.4811 135.853 56.4811C137.24 56.4811 138.087 55.9904 139.001 54.0929L141.862 54.8496C140.9 57.6432 138.801 59.0728 135.853 59.0728C131.746 59.0728 129.377 56.0576 129.377 50.7872C129.377 45.5168 131.746 42.5 135.853 42.5C138.937 42.5 140.721 43.8869 141.483 46.7446" fill="#231F20"/>
<path d="M144.004 58.848V42.7231H154.677V45.3166H147.085V49.154H152.6V51.7458H147.085V56.2578H154.922V58.848" fill="#231F20"/>
<path d="M160.37 49.7827H162.648C165.059 49.7827 165.798 49.0228 165.798 47.5045C165.798 45.9863 164.882 45.2247 163.183 45.2247H160.37V49.7827ZM157.287 58.848V42.7249H163.72C167.383 42.7249 168.856 44.8439 168.879 47.5045C168.9 49.4889 167.895 51.0991 165.931 51.6556L169.481 58.848H166.064L163.027 52.2825H160.37V58.848" fill="#231F20"/>
<path d="M181.783 42.7019V45.292H177.563V58.848H174.481V45.292H170.259V42.7019" fill="#231F20"/>
<path d="M187.254 42.7229H184.171V58.848H187.254V42.7229Z" fill="#231F20"/>
<path d="M190.958 58.848V42.7231H201.232V45.3166H194.041V49.154H199.423V51.7458H194.041V58.848" fill="#231F20"/>
<path d="M206.657 42.7229H203.574V58.848H206.657V42.7229Z" fill="#231F20"/>
<path d="M210.495 58.848V42.7231H221.169V45.3166H213.575V49.154H219.091V51.7458H213.575V56.2578H221.415V58.848" fill="#231F20"/>
<path d="M226.862 56.2578H228.917C232.445 56.2578 233.271 53.6662 233.271 50.7856C233.271 47.905 232.445 45.3166 228.917 45.3166H226.862V56.2578ZM223.779 42.7231H229.117C233.383 42.7231 236.331 45.0917 236.354 50.7856C236.331 56.4795 233.383 58.848 229.117 58.848H223.779" fill="#231F20"/>
<path d="M133.96 66.1519H130.877V82.275H133.96V66.1519Z" fill="#231F20"/>
<path d="M137.912 82.2751V66.152H141.128L147.47 77.141H147.514V66.152H150.418V82.2751H147.447L140.86 70.7954H140.816V82.2751" fill="#231F20"/>
<path d="M161.535 70.4393C161.066 69.1885 160.107 68.3399 158.654 68.3399C157.315 68.3399 156.353 68.8766 156.353 70.1273C156.353 72.8963 164.662 72.317 164.662 77.5431C164.662 80.8471 162.584 82.5 159.012 82.5C156.376 82.5 153.898 81.0261 152.982 78.6806L155.526 77.5644C156.265 79.0826 157.226 80.0872 159.035 80.0872C160.576 80.0872 161.758 79.5061 161.758 77.9435C161.758 74.7724 153.451 75.3995 153.451 70.4393C153.451 67.5587 155.861 65.9287 158.654 65.9287C161.244 65.9287 163.39 67.2238 164.348 69.5693" fill="#231F20"/>
<path d="M170.375 73.2559H172.833C175.153 73.2559 175.803 72.3826 175.803 70.9547C175.803 69.525 175.153 68.6518 172.833 68.6518H170.375V73.2559ZM167.293 82.2751V66.152H173.19C176.673 66.152 178.884 67.6046 178.884 70.9547C178.884 74.3047 176.673 75.7573 173.19 75.7573H170.375V82.2751" fill="#231F20"/>
<path d="M181.25 82.2751V66.152H191.923V68.7437H184.332V72.5829H189.845V75.1746H184.332V79.6851H192.17V82.2751" fill="#231F20"/>
<path d="M202.953 70.8413C202.507 69.479 201.547 68.5171 200.028 68.5171C197.973 68.5171 196.723 70.4375 196.723 74.2159C196.678 77.9878 197.795 79.9099 200.117 79.9099C201.501 79.9099 202.349 79.4174 203.265 77.5184L206.125 78.2783C205.164 81.0703 203.065 82.4983 200.117 82.4983C196.009 82.4983 193.64 79.4847 193.64 74.2159C193.64 68.9422 196.009 65.9287 200.117 65.9287C203.2 65.9287 204.987 67.3124 205.745 70.1733" fill="#231F20"/>
<path d="M218.538 66.129V68.7208H214.32V82.2752H211.235V68.7208H207.016V66.129" fill="#231F20"/>
<path d="M226.376 68.5188C223.851 68.5188 222.691 70.4392 222.691 74.2143C222.646 77.9895 223.83 79.9099 226.376 79.9099C228.9 79.9099 230.062 77.9895 230.062 74.2143C230.062 70.4392 228.9 68.5188 226.376 68.5188ZM226.376 82.4983C221.977 82.4983 219.61 79.4848 219.61 74.2143C219.61 68.9439 221.977 65.9287 226.376 65.9287C230.776 65.9287 233.141 68.9439 233.141 74.2143C233.141 79.4848 230.776 82.4983 226.376 82.4983Z" fill="#231F20"/>
<path d="M238.612 73.2099H240.89C243.301 73.2099 244.038 72.4516 244.038 70.9317C244.038 69.4134 243.123 68.6518 241.424 68.6518H238.612V73.2099ZM235.528 82.2751V66.152H241.96C245.622 66.152 247.098 68.2743 247.118 70.9317C247.141 72.9194 246.139 74.5263 244.173 75.086L247.722 82.2751H244.304L241.268 75.7097H238.612V82.2751" fill="#231F20"/>
<defs>
<linearGradient id="paint0_linear_2033_2193" x1="10.0918" y1="62.5" x2="114.878" y2="62.5" gradientUnits="userSpaceOnUse">
<stop stop-color="#EABB1F"/>
<stop offset="0.5" stop-color="#EED687"/>
<stop offset="1" stop-color="#EABB1F"/>
</linearGradient>
</defs>
</svg>
