<svg width="64" height="64" viewBox="0 0 64 64" fill="none" xmlns="http://www.w3.org/2000/svg">
<path d="M23.9999 29.3333C22.4888 29.3333 21.2221 28.8222 20.1999 27.8C19.1777 26.7778 18.6666 25.5111 18.6666 24V10.6666C18.6666 9.19998 19.1777 7.94487 20.1999 6.90131C21.2221 5.85776 22.4888 5.33509 23.9999 5.33331H39.9999V29.3333H23.9999ZM45.3333 29.3333V5.33331H53.3333C54.7999 5.33331 56.0559 5.85598 57.1013 6.90131C58.1466 7.94665 58.6684 9.20176 58.6666 10.6666V24C58.6666 25.5111 58.1448 26.7778 57.1013 27.8C56.0577 28.8222 54.8017 29.3333 53.3333 29.3333H45.3333ZM21.3333 56V34.6666H39.4666C40.0888 34.6666 40.6221 34.8444 41.0666 35.2C41.511 35.5555 41.8221 35.9778 41.9999 36.4666C42.1777 36.9555 42.2115 37.4666 42.1013 38C41.991 38.5333 41.6906 39 41.1999 39.4L37.2666 42.6666H28.6666C28.0888 42.6666 27.6115 42.8666 27.2346 43.2666C26.8577 43.6666 26.6684 44.1333 26.6666 44.6666C26.6666 45.2444 26.8559 45.7226 27.2346 46.1013C27.6133 46.48 28.0684 46.6684 28.5999 46.6666H36.7333C37.3555 46.6666 37.967 46.5671 38.5679 46.368C39.1688 46.1689 39.7128 45.8684 40.1999 45.4666L49.4666 37.7333C50.4444 37.0222 51.4781 36.5778 52.5679 36.4C53.6577 36.2222 54.735 36.2666 55.7999 36.5333C56.8648 36.8 57.8764 37.256 58.8346 37.9013C59.7928 38.5466 60.6035 39.3795 61.2666 40.4L45.5999 53.5333C44.6221 54.3333 43.5555 54.9449 42.3999 55.368C41.2444 55.7911 40.0444 56.0018 38.7999 56H21.3333ZM7.99992 58.6666C7.24436 58.6666 6.61147 58.4106 6.10125 57.8986C5.59103 57.3866 5.33503 56.7538 5.33325 56V37.3333C5.33325 36.5778 5.58925 35.9449 6.10125 35.4346C6.61325 34.9244 7.24614 34.6684 7.99992 34.6666H15.9999V56C15.9999 56.7555 15.7439 57.3893 15.2319 57.9013C14.7199 58.4133 14.087 58.6684 13.3333 58.6666H7.99992Z" fill="#608900"/>
</svg>
