<svg width="36" height="36" viewBox="0 0 36 36" fill="none" xmlns="http://www.w3.org/2000/svg">
<path d="M14.5125 20.55L15.825 16.275L12.375 13.5H16.65L18 9.3L19.35 13.5H23.625L20.1375 16.275L21.45 20.55L18 17.8875L14.5125 20.55ZM9 34.5V22.9125C8.05 21.8625 7.3125 20.6625 6.7875 19.3125C6.2625 17.9625 6 16.525 6 15C6 11.65 7.1625 8.8125 9.4875 6.4875C11.8125 4.1625 14.65 3 18 3C21.35 3 24.1875 4.1625 26.5125 6.4875C28.8375 8.8125 30 11.65 30 15C30 16.525 29.7375 17.9625 29.2125 19.3125C28.6875 20.6625 27.95 21.8625 27 22.9125V34.5L18 31.5L9 34.5ZM24.375 21.375C26.125 19.625 27 17.5 27 15C27 12.5 26.125 10.375 24.375 8.625C22.625 6.875 20.5 6 18 6C15.5 6 13.375 6.875 11.625 8.625C9.875 10.375 9 12.5 9 15C9 17.5 9.875 19.625 11.625 21.375C13.375 23.125 15.5 24 18 24C20.5 24 22.625 23.125 24.375 21.375Z" fill="currentColor"/>
</svg>
