<svg width="159" height="32" viewBox="0 0 159 32" fill="none" xmlns="http://www.w3.org/2000/svg">
<rect x="0.363636" y="0.363636" width="157.876" height="31.2727" rx="5.45455" fill="white"/>
<rect x="0.363636" y="0.363636" width="157.876" height="31.2727" rx="5.45455" stroke="#FFEED6" stroke-width="0.727273"/>
<g clip-path="url(#clip0_2028_1052)">
<path d="M27.5829 4.36371H4.36365V27.583H27.5829V4.36371Z" fill="url(#paint0_linear_2028_1052)"/>
<mask id="mask0_2028_1052" style="mask-type:luminance" maskUnits="userSpaceOnUse" x="4" y="4" width="24" height="24">
<path d="M27.5829 4.36371H4.36365V27.583H27.5829V4.36371Z" fill="white"/>
</mask>
<g mask="url(#mask0_2028_1052)">
<path fill-rule="evenodd" clip-rule="evenodd" d="M-0.51499 21.2783C-1.20001 21.9661 -1.85222 22.4609 -2.53025 22.8918C-2.71038 23.0062 -2.88907 23.1131 -3.06629 23.2129C-6.0556 24.8962 -8.60882 24.5547 -10.1006 24.45C-12.5272 24.2798 -12.424 24.8718 -16.1101 27.3535C-17.8495 28.5243 -19.6302 28.68 -20.1025 28.2076C-21.2905 27.0192 -17.4234 25.6688 -15.7116 24.2574C-13.2663 22.2412 -13.571 21.5045 -11.5336 21.4532C-8.6229 21.3798 -8.27166 19.5437 -5.41794 17.2069C-4.71254 16.6627 -3.98472 16.2519 -3.31669 15.9413C-3.14413 15.861 -2.97544 15.7875 -2.81229 15.72C-2.23045 15.4724 -0.587976 15.1362 -0.238966 15.0664C-0.239063 15.0662 -0.239069 15.066 -0.239166 15.0658C-0.235577 15.0653 -0.23208 15.0647 -0.228586 15.0642C-0.192774 15.0571 -0.173258 15.0533 -0.173258 15.0533C-0.173258 15.0533 -0.173063 15.0543 -0.172773 15.0563C0.0623913 15.0228 0.297169 14.9912 0.530878 14.9609C0.874842 14.9165 1.21637 14.8748 1.55286 14.8336C1.9109 14.7899 2.26321 14.7468 2.60669 14.7019C4.78199 14.4172 6.89576 13.9894 8.96837 13.2244C8.99729 13.2138 9.0269 13.2015 9.05709 13.1877C9.58613 14.95 9.92757 15.8626 11.695 17.1022C13.0842 18.0764 14.3611 18.6899 15.3168 19.0677C15.0971 19.2826 14.8971 19.5203 14.7209 19.7012C14.5287 19.8987 14.2661 20.1883 14.037 20.3687C16.2398 20.4819 20.1015 21.2375 22.1201 22.1325C22.5024 22.3134 23.2773 22.7638 23.3579 23.2215C23.6169 24.6944 21.4126 24.4126 20.645 24.2548C19.3178 23.982 18.0652 23.7778 16.7536 23.6791C15.3506 23.5854 13.942 23.633 12.5491 23.8211C12.2503 23.8622 11.9447 23.9182 11.6365 23.9747C10.9969 24.0918 10.3463 24.2111 9.7223 24.2036C9.22159 24.1976 8.69661 23.896 8.26481 23.6478L8.25803 23.6439C7.04755 23.8424 5.87716 23.8317 4.7288 23.7184C3.6149 23.6086 2.52158 23.4022 1.43223 23.1966C0.668501 23.0523 -0.0953255 22.8913 -0.861187 22.7796C-0.977461 22.7628 -1.08937 22.7234 -1.19041 22.6635C-1.29494 22.6015 -1.3355 22.5448 -1.28649 22.4852C-0.969217 22.0988 -0.942331 22.1286 -0.676981 21.6994C-0.620689 21.6084 -0.570118 21.4675 -0.51499 21.2783Z" fill="white"/>
<path fill-rule="evenodd" clip-rule="evenodd" d="M8.6593 13.3366C9.04237 13.1629 9.52916 12.7457 9.82424 12.4789C6.93862 12.9379 3.02215 12.5109 0.252769 11.7102C-4.47751 10.3427 -2.89323 8.63675 1.14141 8.67099C4.98342 8.70348 8.00277 9.42341 11.5574 10.8256C9.92244 9.4062 5.77588 8.52244 3.56242 8.33716C3.09522 8.28332 2.62601 8.26169 2.15688 8.24006C1.94418 8.23021 1.73147 8.22036 1.51895 8.20756C1.35466 8.19762 1.14141 8.17075 1.05489 8.04061C1.01798 7.98529 1.01873 7.91295 1.05692 7.85846C1.43162 7.3955 3.12726 7.31202 3.64453 7.29674C7.28487 7.18878 10.7073 8.30614 13.8718 10.0122C14.0816 9.44522 14.5703 9.07623 15.1912 9.02386C15.3227 9.01273 15.4059 9.07615 15.446 9.14435C15.4708 9.18632 15.4591 9.28719 15.4508 9.35898C15.4467 9.4003 15.4276 9.43869 15.3969 9.46676C15.1494 9.69281 15.0114 9.82304 14.8072 10.1165C15.0548 9.94085 15.2783 9.76488 15.5164 9.57739L15.5194 9.575C15.8179 9.38696 16.4931 9.13248 16.7593 9.47716C16.8463 9.58973 16.6101 9.75686 16.5109 9.82405C16.4928 9.83629 16.474 9.849 16.4544 9.86271C16.5515 9.85793 16.6485 9.85415 16.7459 9.85139C16.9981 9.84467 17.2721 9.86235 17.467 10.0475C17.5416 10.2979 17.2549 10.3789 17.0393 10.4398C17.0077 10.4488 16.9775 10.4573 16.9504 10.4658C18.1456 10.7655 19.204 11.3035 20.0664 12.1884L20.0808 12.1881C20.5801 12.1787 22.454 12.1434 21.625 13.0303C21.5993 13.5059 21.5792 13.741 21.4267 14.2038C21.8928 14.5172 22.3827 14.9517 22.2612 15.5529C21.868 17.4932 19.3503 18.6185 17.5312 18.5655L17.4934 18.5656C16.7619 18.5673 15.9425 18.1858 15.2471 18.4507C15.0152 18.5391 14.7967 18.7158 14.5955 18.9127C13.6892 18.5544 12.4783 17.9726 11.1609 17.0487C9.4847 15.8732 9.16101 15.0077 8.6593 13.3366Z" fill="white"/>
<path fill-rule="evenodd" clip-rule="evenodd" d="M14.8541 12.1275C14.1958 12.1545 13.3914 12.1618 12.7545 12.3607C12.5959 12.4103 12.5409 12.508 12.5314 12.6678C12.7346 13.0617 13.4182 12.8062 13.6773 13.0941C13.7728 13.3833 13.8026 13.6767 13.9008 13.9751C14.3008 15.1948 15.7261 15.5385 16.8391 15.151C17.4184 14.9537 17.893 14.5305 18.1551 13.9777C18.2751 13.7279 18.3286 13.5163 18.403 13.2524C19.4278 12.5036 19.0889 14.1285 20.0713 14.3537C21.3395 14.6446 21.2596 13.6789 21.3059 12.7518C20.3178 12.2924 19.6196 12.6932 18.6411 12.5991C18.2999 12.5663 17.6209 12.3826 17.2488 12.3115C16.3848 12.1463 15.7272 12.1109 14.8541 12.1275Z" fill="#363533"/>
<path d="M14.8671 12.6428C15.2294 12.6269 15.6537 12.6224 16.0132 12.6479C15.606 12.8812 15.2816 13.181 14.9746 13.5322C14.8079 13.7117 14.684 13.8854 14.5546 14.0918C14.4341 13.9 14.353 13.6863 14.3158 13.4629C14.2375 12.989 14.384 12.7232 14.8671 12.6428Z" fill="white"/>
<path fill-rule="evenodd" clip-rule="evenodd" d="M20.4714 14.9903C20.3013 15.0785 20.338 15.0302 20.2712 15.1679C20.2788 15.5327 20.7075 15.8178 21.0491 15.8605C21.1156 15.8688 21.2925 15.7824 21.3575 15.7466C21.5225 15.6141 21.6731 15.5118 21.7209 15.2979C21.6203 14.8692 20.8145 14.9746 20.4714 14.9903Z" fill="#F97D1E"/>
<path fill-rule="evenodd" clip-rule="evenodd" d="M0.0525601 9.74007C-0.156524 9.76473 -0.579633 9.75499 -0.546365 10.0343C-0.232637 10.4452 1.63638 10.9646 2.17652 11.0891C3.96713 11.5017 5.99765 11.6491 7.82724 11.4937C8.08212 11.4598 8.36462 11.4292 8.61319 11.3728C6.65399 10.4357 2.17494 9.41768 0.0525601 9.74007Z" fill="#F97D1E"/>
<path fill-rule="evenodd" clip-rule="evenodd" d="M20.8332 16.5417C19.9807 17.3609 19.0285 17.2702 17.9839 16.923C18.0898 17.0379 18.3924 17.2613 18.6033 17.3465C19.4172 17.6065 19.886 17.6486 20.5593 17.1087C20.6738 16.9964 20.7269 16.8655 20.7269 16.8655C20.7269 16.8655 20.8462 16.6106 20.8332 16.5417Z" fill="#363533"/>
<path fill-rule="evenodd" clip-rule="evenodd" d="M7.54537 14.2177C7.6576 14.3253 7.66571 14.5246 7.71734 14.6804C8.16335 16.0225 9.49099 17.6704 10.6526 18.4488C11.4871 19.0064 12.398 19.4403 13.3566 19.7372C13.5545 19.7997 13.641 19.8078 13.7252 19.9517C13.7293 19.9586 13.7334 19.9659 13.7375 19.9736L13.3153 20.3225C13.2423 20.3146 13.0251 20.3379 12.7729 20.3795C11.9685 20.4867 11.2157 20.8362 10.6146 21.3814C9.97439 21.9627 9.27003 22.7686 9.19724 23.5485C8.19198 23.0547 7.29911 22.2921 6.50573 21.5109C6.80513 22.1251 7.31721 22.7407 7.81963 23.1995C7.07503 23.3041 6.32243 23.3389 5.57138 23.3036C4.44761 23.2573 3.18201 22.3266 2.44547 21.5126C1.38095 20.3369 0.63485 18.6443 0.457028 17.0672C0.403735 16.5946 0.447466 15.9475 0.4696 15.4617C2.6393 15.3046 5.48188 14.8494 7.5263 14.2012C7.53302 14.2064 7.53935 14.2119 7.54537 14.2177Z" fill="#F97D1E"/>
<path fill-rule="evenodd" clip-rule="evenodd" d="M7.52722 14.2012C7.79287 14.1064 8.11106 14.0227 8.36458 13.91C9.15299 16.5163 11.7726 18.7953 14.3183 19.4003C14.1126 19.6212 13.9691 19.7778 13.7382 19.9729C13.7344 19.9656 13.7301 19.9586 13.7251 19.9517C13.641 19.8079 13.5544 19.7997 13.3566 19.7372C12.398 19.4402 11.487 19.0063 10.6526 18.4488C9.49097 17.6704 8.16334 16.0225 7.71731 14.6804C7.66565 14.5246 7.63946 14.3088 7.52722 14.2012Z" fill="#FFB370"/>
</g>
</g>
<path d="M33.4545 21.376V12.2124H34.7374L37.9709 18.6138L41.2174 12.2124H42.5134V21.376H41.4138V14.176L38.3898 20.0931H37.5651L34.5542 14.2022V21.376H33.4545Z" fill="#1D1C1B"/>
<path d="M45.8885 21.5331C45.3562 21.5331 44.9111 21.4415 44.5533 21.2582C44.1954 21.0662 43.9293 20.8175 43.7547 20.512C43.5802 20.1978 43.4929 19.8575 43.4929 19.4909C43.4929 19.0458 43.6064 18.6706 43.8333 18.3651C44.0689 18.0509 44.3962 17.8153 44.8151 17.6582C45.2427 17.4924 45.7445 17.4095 46.3205 17.4095H48.0616C48.0616 16.9993 47.9962 16.6589 47.8653 16.3884C47.7431 16.1091 47.5598 15.8997 47.3154 15.76C47.0798 15.6204 46.7831 15.5506 46.4253 15.5506C46.0064 15.5506 45.6442 15.6553 45.3387 15.8647C45.0333 16.0742 44.8456 16.384 44.7758 16.7942H43.65C43.7024 16.3229 43.8594 15.9302 44.1213 15.616C44.3918 15.2931 44.7322 15.0487 45.1424 14.8829C45.5525 14.7084 45.9802 14.6211 46.4253 14.6211C47.0362 14.6211 47.5424 14.7346 47.9438 14.9615C48.354 15.1797 48.6594 15.4895 48.8602 15.8909C49.0609 16.2837 49.1613 16.7506 49.1613 17.2917V21.376H48.1794L48.114 20.2109C48.0267 20.3942 47.9133 20.5687 47.7736 20.7346C47.6427 20.8917 47.4856 21.0313 47.3024 21.1535C47.1191 21.2669 46.9096 21.3586 46.674 21.4284C46.4471 21.4982 46.1853 21.5331 45.8885 21.5331ZM46.0587 20.6037C46.3642 20.6037 46.6391 20.5426 46.8834 20.4204C47.1365 20.2895 47.3504 20.1149 47.5249 19.8967C47.6994 19.6698 47.8304 19.4211 47.9176 19.1506C48.0136 18.88 48.0616 18.5964 48.0616 18.2997V18.2604H46.4122C45.9845 18.2604 45.6398 18.3127 45.378 18.4175C45.1162 18.5135 44.9285 18.6531 44.8151 18.8364C44.7016 19.0109 44.6449 19.2117 44.6449 19.4386C44.6449 19.6742 44.6973 19.8793 44.802 20.0538C44.9154 20.2284 45.0769 20.3637 45.2864 20.4597C45.5045 20.5557 45.762 20.6037 46.0587 20.6037Z" fill="#1D1C1B"/>
<path d="M53.114 21.5331C52.4769 21.5331 51.9184 21.3847 51.4384 21.088C50.9584 20.7826 50.5875 20.368 50.3256 19.8444C50.0638 19.3207 49.9329 18.7273 49.9329 18.064C49.9329 17.4007 50.0638 16.8117 50.3256 16.2967C50.5875 15.7731 50.9584 15.3629 51.4384 15.0662C51.9271 14.7695 52.49 14.6211 53.1271 14.6211C53.6682 14.6211 54.1395 14.7302 54.5409 14.9484C54.9511 15.1666 55.2653 15.472 55.4835 15.8647V11.9506H56.5831V21.376H55.5882L55.4966 20.2895C55.3569 20.5077 55.178 20.7127 54.9598 20.9047C54.7416 21.088 54.4798 21.2407 54.1744 21.3629C53.8689 21.4764 53.5155 21.5331 53.114 21.5331ZM53.2449 20.5775C53.6813 20.5775 54.0653 20.4727 54.3969 20.2633C54.7286 20.0538 54.986 19.7658 55.1693 19.3993C55.3526 19.024 55.4442 18.5833 55.4442 18.0771C55.4442 17.5797 55.3526 17.1433 55.1693 16.768C54.986 16.3927 54.7286 16.1004 54.3969 15.8909C54.0653 15.6815 53.6813 15.5767 53.2449 15.5767C52.8173 15.5767 52.4376 15.6815 52.106 15.8909C51.7744 16.1004 51.5169 16.3927 51.3336 16.768C51.1504 17.1433 51.0587 17.5797 51.0587 18.0771C51.0587 18.5833 51.1504 19.024 51.3336 19.3993C51.5169 19.7658 51.7744 20.0538 52.106 20.2633C52.4376 20.4727 52.8173 20.5775 53.2449 20.5775Z" fill="#1D1C1B"/>
<path d="M60.6538 21.5331C60.0341 21.5331 59.4843 21.3891 59.0043 21.1011C58.533 20.8131 58.1621 20.4117 57.8916 19.8967C57.621 19.3731 57.4858 18.7666 57.4858 18.0771C57.4858 17.3789 57.6167 16.7724 57.8785 16.2575C58.149 15.7426 58.5243 15.3411 59.0043 15.0531C59.493 14.7651 60.0516 14.6211 60.6799 14.6211C61.3258 14.6211 61.8712 14.7651 62.3163 15.0531C62.7701 15.3411 63.1148 15.7207 63.3505 16.192C63.5948 16.6546 63.717 17.1651 63.717 17.7237C63.717 17.8109 63.717 17.9026 63.717 17.9986C63.717 18.0946 63.7127 18.2037 63.7039 18.3258H58.3105V17.4749H62.6436C62.6174 16.8727 62.4167 16.4015 62.0414 16.0611C61.6748 15.7207 61.2123 15.5506 60.6538 15.5506C60.2785 15.5506 59.9294 15.6378 59.6065 15.8124C59.2923 15.9782 59.0392 16.2269 58.8472 16.5586C58.6552 16.8815 58.5592 17.2873 58.5592 17.776V18.1426C58.5592 18.6837 58.6552 19.1375 58.8472 19.504C59.0479 19.8706 59.3054 20.1455 59.6196 20.3287C59.9425 20.512 60.2872 20.6037 60.6538 20.6037C61.1163 20.6037 61.4959 20.5033 61.7927 20.3026C62.0981 20.0931 62.3163 19.8138 62.4472 19.4647H63.5338C63.429 19.8575 63.2458 20.2109 62.9839 20.5251C62.7221 20.8393 62.3948 21.088 62.0021 21.2713C61.6181 21.4458 61.1687 21.5331 60.6538 21.5331Z" fill="#1D1C1B"/>
<path d="M67.4346 21.376V12.2124H70.655C71.3008 12.2124 71.8332 12.3171 72.2521 12.5266C72.6797 12.7273 72.9983 13.0066 73.2077 13.3644C73.4172 13.7135 73.5219 14.1062 73.5219 14.5426C73.5219 15.0138 73.4172 15.4066 73.2077 15.7207C73.007 16.0349 72.7408 16.2749 72.4092 16.4407C72.0863 16.6066 71.7416 16.7069 71.375 16.7418L71.5583 16.6109C71.951 16.6197 72.3132 16.7244 72.6448 16.9251C72.9765 17.1258 73.2383 17.3964 73.4303 17.7367C73.631 18.0771 73.7314 18.4567 73.7314 18.8757C73.7314 19.3382 73.6179 19.7615 73.391 20.1455C73.1641 20.5207 72.8281 20.8218 72.383 21.0487C71.9466 21.2669 71.4055 21.376 70.7597 21.376H67.4346ZM68.5343 20.4597H70.6419C71.2616 20.4597 71.7416 20.3157 72.0819 20.0277C72.431 19.7309 72.6055 19.3207 72.6055 18.7971C72.6055 18.2822 72.4266 17.872 72.0688 17.5666C71.7197 17.2524 71.2354 17.0953 70.6157 17.0953H68.5343V20.4597ZM68.5343 16.2182H70.5765C71.1699 16.2182 71.6194 16.0786 71.9248 15.7993C72.239 15.52 72.3961 15.1404 72.3961 14.6604C72.3961 14.1978 72.239 13.8269 71.9248 13.5477C71.6194 13.2684 71.1568 13.1287 70.5372 13.1287H68.5343V16.2182Z" fill="#1D1C1B"/>
<path d="M75.3224 24.256L76.9326 20.6429H76.553L73.961 14.7782H75.1522L77.2991 19.8182L79.5508 14.7782H80.6897L76.4744 24.256H75.3224Z" fill="#1D1C1B"/>
<path d="M84.0578 21.376V12.2124H89.9749V13.4822H85.6288V16.1135H89.5822V17.3571H85.6288V20.1062H89.9749V21.376H84.0578Z" fill="#1D1C1B"/>
<path d="M90.9191 21.376V14.7782H92.3198L92.4638 16.0087C92.6209 15.7207 92.8173 15.4764 93.0529 15.2757C93.2886 15.0662 93.5635 14.9047 93.8777 14.7913C94.2006 14.6778 94.554 14.6211 94.938 14.6211V16.2837H94.3882C94.1264 16.2837 93.8777 16.3186 93.642 16.3884C93.4064 16.4495 93.2013 16.5542 93.0268 16.7026C92.8609 16.8422 92.73 17.0386 92.634 17.2917C92.538 17.536 92.49 17.8458 92.49 18.2211V21.376H90.9191Z" fill="#1D1C1B"/>
<path d="M95.4677 21.376V14.7782H96.8684L97.0124 16.0087C97.1695 15.7207 97.3659 15.4764 97.6015 15.2757C97.8372 15.0662 98.1121 14.9047 98.4262 14.7913C98.7492 14.6778 99.1026 14.6211 99.4866 14.6211V16.2837H98.9368C98.675 16.2837 98.4262 16.3186 98.1906 16.3884C97.955 16.4495 97.7499 16.5542 97.5753 16.7026C97.4095 16.8422 97.2786 17.0386 97.1826 17.2917C97.0866 17.536 97.0386 17.8458 97.0386 18.2211V21.376H95.4677Z" fill="#1D1C1B"/>
<path d="M102.965 21.5331C102.311 21.5331 101.735 21.3935 101.237 21.1142C100.74 20.8262 100.351 20.4247 100.072 19.9098C99.7927 19.3949 99.6531 18.8015 99.6531 18.1295C99.6531 17.4313 99.7884 16.8204 100.059 16.2967C100.338 15.7731 100.727 15.3629 101.224 15.0662C101.73 14.7695 102.315 14.6211 102.978 14.6211C103.624 14.6211 104.187 14.7651 104.667 15.0531C105.147 15.3411 105.518 15.7295 105.78 16.2182C106.041 16.6982 106.172 17.2393 106.172 17.8415C106.172 17.9287 106.172 18.0247 106.172 18.1295C106.172 18.2342 106.164 18.3433 106.146 18.4567H100.779V17.4487H104.588C104.571 16.9687 104.409 16.5935 104.104 16.3229C103.799 16.0437 103.419 15.904 102.965 15.904C102.642 15.904 102.345 15.9782 102.075 16.1266C101.804 16.2749 101.591 16.4975 101.433 16.7942C101.276 17.0822 101.198 17.4487 101.198 17.8938V18.2735C101.198 18.6837 101.272 19.0371 101.42 19.3338C101.577 19.6306 101.787 19.8575 102.049 20.0146C102.319 20.1629 102.62 20.2371 102.952 20.2371C103.319 20.2371 103.62 20.1586 103.855 20.0015C104.1 19.8444 104.279 19.6349 104.392 19.3731H105.989C105.867 19.7833 105.666 20.1542 105.387 20.4858C105.108 20.8087 104.763 21.0662 104.353 21.2582C103.943 21.4415 103.48 21.5331 102.965 21.5331Z" fill="#1D1C1B"/>
<path d="M108.96 21.376L112.311 12.2124H114.065L117.417 21.376H115.754L113.175 14.0451L110.596 21.376H108.96ZM110.452 19.216L110.871 17.9724H115.388L115.806 19.216H110.452Z" fill="#1D1C1B"/>
<path d="M120.746 24.4131C120.126 24.4131 119.58 24.3346 119.109 24.1775C118.647 24.0291 118.284 23.7978 118.023 23.4837C117.77 23.1782 117.643 22.7942 117.643 22.3317C117.643 22.0611 117.708 21.7949 117.839 21.5331C117.979 21.28 118.184 21.0444 118.455 20.8262C118.734 20.5993 119.087 20.4029 119.515 20.2371L120.209 20.9964C119.79 21.1447 119.498 21.3237 119.332 21.5331C119.166 21.7426 119.083 21.9564 119.083 22.1746C119.083 22.4015 119.153 22.5891 119.292 22.7375C119.441 22.8946 119.637 23.0124 119.882 23.0909C120.135 23.1695 120.418 23.2087 120.732 23.2087C121.038 23.2087 121.304 23.1651 121.531 23.0778C121.758 22.9993 121.932 22.8858 122.055 22.7375C122.186 22.5891 122.251 22.4102 122.251 22.2007C122.251 21.9389 122.159 21.7251 121.976 21.5593C121.793 21.4022 121.431 21.3062 120.89 21.2713C120.427 21.2364 120.021 21.1884 119.672 21.1273C119.323 21.0575 119.022 20.9789 118.769 20.8917C118.524 20.8044 118.315 20.7084 118.14 20.6037C117.966 20.4902 117.822 20.3767 117.708 20.2633V19.9622L119.083 18.5222L120.248 18.9018L118.703 20.4073L119.109 19.648C119.196 19.7091 119.284 19.7658 119.371 19.8182C119.467 19.8706 119.585 19.9186 119.724 19.9622C119.873 19.9971 120.065 20.032 120.3 20.0669C120.536 20.1018 120.842 20.1367 121.217 20.1717C121.802 20.2153 122.277 20.32 122.644 20.4858C123.01 20.6517 123.281 20.8742 123.455 21.1535C123.63 21.4327 123.717 21.7687 123.717 22.1615C123.717 22.5455 123.608 22.9077 123.39 23.248C123.18 23.5884 122.858 23.8677 122.421 24.0858C121.985 24.304 121.426 24.4131 120.746 24.4131ZM120.746 19.3993C120.196 19.3993 119.72 19.2946 119.319 19.0851C118.926 18.8669 118.625 18.5789 118.415 18.2211C118.206 17.8546 118.101 17.4531 118.101 17.0167C118.101 16.5717 118.206 16.1702 118.415 15.8124C118.625 15.4546 118.926 15.1666 119.319 14.9484C119.72 14.7302 120.196 14.6211 120.746 14.6211C121.295 14.6211 121.767 14.7302 122.159 14.9484C122.552 15.1666 122.853 15.4546 123.063 15.8124C123.272 16.1702 123.377 16.5717 123.377 17.0167C123.377 17.4531 123.272 17.8546 123.063 18.2211C122.853 18.5789 122.552 18.8669 122.159 19.0851C121.767 19.2946 121.295 19.3993 120.746 19.3993ZM120.746 18.1818C121.121 18.1818 121.422 18.0815 121.649 17.8807C121.876 17.68 121.989 17.392 121.989 17.0167C121.989 16.6415 121.876 16.3578 121.649 16.1658C121.422 15.9651 121.121 15.8647 120.746 15.8647C120.37 15.8647 120.065 15.9651 119.829 16.1658C119.594 16.3578 119.476 16.6415 119.476 17.0167C119.476 17.392 119.594 17.68 119.829 17.8807C120.065 18.0815 120.37 18.1818 120.746 18.1818ZM121.832 15.9302L121.531 14.7782H124.241V15.76L121.832 15.9302Z" fill="#1D1C1B"/>
<path d="M127.807 21.5331C127.153 21.5331 126.577 21.3935 126.079 21.1142C125.582 20.8262 125.193 20.4247 124.914 19.9098C124.635 19.3949 124.495 18.8015 124.495 18.1295C124.495 17.4313 124.63 16.8204 124.901 16.2967C125.18 15.7731 125.569 15.3629 126.066 15.0662C126.572 14.7695 127.157 14.6211 127.82 14.6211C128.466 14.6211 129.029 14.7651 129.509 15.0531C129.989 15.3411 130.36 15.7295 130.622 16.2182C130.884 16.6982 131.014 17.2393 131.014 17.8415C131.014 17.9287 131.014 18.0247 131.014 18.1295C131.014 18.2342 131.006 18.3433 130.988 18.4567H125.621V17.4487H129.43C129.413 16.9687 129.252 16.5935 128.946 16.3229C128.641 16.0437 128.261 15.904 127.807 15.904C127.484 15.904 127.188 15.9782 126.917 16.1266C126.646 16.2749 126.433 16.4975 126.276 16.7942C126.118 17.0822 126.04 17.4487 126.04 17.8938V18.2735C126.04 18.6837 126.114 19.0371 126.262 19.3338C126.42 19.6306 126.629 19.8575 126.891 20.0146C127.161 20.1629 127.462 20.2371 127.794 20.2371C128.161 20.2371 128.462 20.1586 128.697 20.0015C128.942 19.8444 129.121 19.6349 129.234 19.3731H130.831C130.709 19.7833 130.508 20.1542 130.229 20.4858C129.95 20.8087 129.605 21.0662 129.195 21.2582C128.785 21.4415 128.322 21.5331 127.807 21.5331Z" fill="#1D1C1B"/>
<path d="M131.81 21.376V14.7782H133.198L133.316 15.8778C133.516 15.4938 133.804 15.1884 134.18 14.9615C134.555 14.7346 135 14.6211 135.515 14.6211C136.047 14.6211 136.501 14.7346 136.876 14.9615C137.252 15.1797 137.54 15.5026 137.74 15.9302C137.95 16.3578 138.055 16.8902 138.055 17.5273V21.376H136.484V17.6713C136.484 17.1215 136.362 16.6982 136.117 16.4015C135.873 16.1047 135.511 15.9564 135.031 15.9564C134.716 15.9564 134.433 16.0306 134.18 16.1789C133.935 16.3273 133.739 16.5455 133.591 16.8335C133.451 17.1127 133.381 17.4531 133.381 17.8546V21.376H131.81Z" fill="#1D1C1B"/>
<path d="M142.185 21.5331C141.539 21.5331 140.959 21.3891 140.444 21.1011C139.938 20.8044 139.541 20.3986 139.253 19.8837C138.973 19.36 138.834 18.7666 138.834 18.1033C138.834 17.4138 138.973 16.8117 139.253 16.2967C139.541 15.7731 139.938 15.3629 140.444 15.0662C140.959 14.7695 141.544 14.6211 142.198 14.6211C143.019 14.6211 143.708 14.8393 144.267 15.2757C144.825 15.7033 145.183 16.2924 145.34 17.0429H143.691C143.603 16.7113 143.42 16.4495 143.141 16.2575C142.87 16.0655 142.547 15.9695 142.172 15.9695C141.849 15.9695 141.552 16.0524 141.282 16.2182C141.02 16.384 140.811 16.624 140.653 16.9382C140.505 17.2524 140.431 17.632 140.431 18.0771C140.431 18.4175 140.475 18.7186 140.562 18.9804C140.649 19.2422 140.771 19.4647 140.928 19.648C141.094 19.8226 141.282 19.9578 141.491 20.0538C141.701 20.1498 141.928 20.1978 142.172 20.1978C142.425 20.1978 142.652 20.1586 142.853 20.08C143.062 19.9927 143.237 19.8662 143.376 19.7004C143.525 19.5346 143.629 19.3382 143.691 19.1113H145.34C145.183 19.8444 144.825 20.4335 144.267 20.8786C143.708 21.3149 143.014 21.5331 142.185 21.5331Z" fill="#1D1C1B"/>
<path d="M146.999 24.256L148.609 20.6429H148.216L145.585 14.7782H147.3L149.263 19.2553L151.122 14.7782H152.785L148.661 24.256H146.999Z" fill="#1D1C1B"/>
<defs>
<linearGradient id="paint0_linear_2028_1052" x1="27.5829" y1="4.36371" x2="4.36365" y2="27.583" gradientUnits="userSpaceOnUse">
<stop stop-color="#B03603"/>
<stop offset="0.25" stop-color="#E85102"/>
<stop offset="0.85" stop-color="#F97D1E"/>
<stop offset="1" stop-color="#FFB370"/>
</linearGradient>
<clipPath id="clip0_2028_1052">
<rect x="4.36365" y="4.36365" width="23.2727" height="23.2727" rx="4.65455" fill="white"/>
</clipPath>
</defs>
</svg>
