<svg width="20" height="20" viewBox="0 0 20 20" fill="none" xmlns="http://www.w3.org/2000/svg">
<g clip-path="url(#clip0_2027_682)">
<path d="M7.58417 19.7425V13.0925H5.5225V10.0367H7.58417V8.72C7.58417 5.31583 9.12417 3.73833 12.4658 3.73833C12.8 3.73833 13.2617 3.77333 13.6892 3.82417C14.0093 3.85787 14.3269 3.91215 14.64 3.98667V6.7575C14.459 6.74091 14.2775 6.73091 14.0958 6.7275C13.8923 6.72224 13.6886 6.71974 13.485 6.72C12.8958 6.72 12.4358 6.8 12.0892 6.9775C11.8565 7.09493 11.6607 7.27429 11.5233 7.49583C11.3083 7.84583 11.2117 8.325 11.2117 8.95583V10.0367H14.4775L14.1558 11.7892L13.9167 13.0925H11.2117V19.9633C16.1633 19.365 20 15.1492 20 10.0367C20 4.51417 15.5225 0.0366669 10 0.0366669C4.4775 0.0366669 0 4.51417 0 10.0367C0 14.7267 3.22833 18.6617 7.58417 19.7425Z" fill="currentColor"/>
</g>
<defs>
<clipPath id="clip0_2027_682">
<rect width="20" height="20" fill="white"/>
</clipPath>
</defs>
</svg>
