<svg width="36" height="36" viewBox="0 0 36 36" fill="none" xmlns="http://www.w3.org/2000/svg">
<path d="M19.2263 4.08375C18.5344 3.4425 17.4656 3.4425 16.7794 4.08375L4.17939 15.7838C3.63939 16.29 3.45939 17.0719 3.72939 17.7581C3.99939 18.4444 4.65752 18.9 5.40002 18.9H6.30002V28.8C6.30002 30.7856 7.91439 32.4 9.90002 32.4H26.1C28.0856 32.4 29.7 30.7856 29.7 28.8V18.9H30.6C31.3425 18.9 32.0063 18.4444 32.2763 17.7581C32.5463 17.0719 32.3663 16.2844 31.8263 15.7838L19.2263 4.08375ZM17.1 21.6H18.9C20.3906 21.6 21.6 22.8094 21.6 24.3V29.7H14.4V24.3C14.4 22.8094 15.6094 21.6 17.1 21.6Z" fill="currentColor"/>
</svg>
