<svg width="20" height="20" viewBox="0 0 20 20" fill="none" xmlns="http://www.w3.org/2000/svg">
<path d="M9.0389 7.69287C9.49534 7.50274 9.99825 7.45171 10.4834 7.5472C10.9684 7.64274 11.4141 7.88031 11.7643 8.22917C12.1146 8.57809 12.3537 9.02291 12.4512 9.50765C12.5486 9.99232 12.5002 10.495 12.312 10.9521C12.1237 11.4093 11.8038 11.8005 11.3932 12.076C10.9827 12.3515 10.4993 12.499 10.0049 12.5C9.67669 12.5006 9.35132 12.437 9.04785 12.312C8.74436 12.187 8.46824 12.0033 8.23568 11.7716C8.00316 11.54 7.81828 11.2649 7.69206 10.9619C7.56581 10.6589 7.50066 10.3332 7.5 10.0049C7.49909 9.51057 7.6453 9.02728 7.91911 8.61572C8.19297 8.20409 8.58252 7.88301 9.0389 7.69287Z" fill="currentColor"/>
<path fill-rule="evenodd" clip-rule="evenodd" d="M9.98861 3.85335C11.9899 3.8496 12.2277 3.85743 13.0192 3.89242C13.7492 3.92367 14.1472 4.04464 14.4116 4.14714C14.7614 4.28209 15.0114 4.44388 15.2751 4.70622C15.5388 4.96872 15.7005 5.21741 15.8374 5.56803C15.9405 5.83178 16.0643 6.22787 16.0986 6.95964C16.1361 7.75023 16.1445 7.98776 16.1483 9.98942C16.1514 11.9913 16.1444 12.2294 16.11 13.02C16.0781 13.7509 15.9572 14.1477 15.8553 14.4132C15.7203 14.7632 15.5572 15.0134 15.2954 15.2759C15.0542 15.5257 14.7593 15.7178 14.4336 15.8382C14.1699 15.9413 13.7725 16.0645 13.0428 16.0994C12.2516 16.1369 12.0145 16.1447 10.0114 16.1491C8.00845 16.1535 7.77273 16.1446 6.98161 16.1108C6.25061 16.0796 5.85357 15.958 5.58919 15.8561C5.26292 15.7369 4.96718 15.5452 4.72493 15.2962C4.4753 15.0551 4.28301 14.7608 4.1626 14.4352C4.05948 14.1708 3.93593 13.774 3.90218 13.0428C3.86468 12.2528 3.85673 12.0153 3.85173 10.013C3.84798 8.01052 3.8556 7.77305 3.88997 6.98242C3.92125 6.25202 4.04427 5.85434 4.14551 5.59001C4.28048 5.23957 4.44343 4.99022 4.70459 4.72656C4.94595 4.47673 5.24055 4.28461 5.56641 4.16423C5.83074 4.06112 6.22698 3.93883 6.95801 3.90381C7.74863 3.86631 7.98611 3.85835 9.98861 3.85335ZM9.99349 6.19792C8.98049 6.19989 8.00864 6.60047 7.28923 7.31364C6.56981 8.02683 6.16068 8.99518 6.1499 10.0081C6.15199 11.0293 6.55921 12.008 7.28271 12.7287C8.00631 13.4495 8.98681 13.8529 10.0081 13.8509C11.0294 13.8489 12.0079 13.4416 12.7287 12.7181C13.4495 11.9945 13.8537 11.014 13.8517 9.99268C13.837 8.9798 13.4232 8.01342 12.701 7.30306C11.9789 6.5929 11.0063 6.19604 9.99349 6.19792ZM13.9941 5.09033C13.7556 5.09083 13.527 5.18594 13.3586 5.35482C13.1902 5.52374 13.0955 5.75274 13.0957 5.99121C13.096 6.16924 13.1488 6.34382 13.2479 6.4917C13.3469 6.63944 13.4879 6.75422 13.6523 6.8221C13.8169 6.88997 13.9986 6.90758 14.1732 6.87256C14.3476 6.8375 14.5074 6.75119 14.633 6.62516C14.7586 6.49914 14.8443 6.33909 14.8787 6.16455C14.9131 5.98995 14.895 5.80882 14.8267 5.64453C14.7582 5.48024 14.6428 5.33949 14.4946 5.24089C14.3465 5.14231 14.1721 5.09 13.9941 5.09033Z" fill="currentColor"/>
<path fill-rule="evenodd" clip-rule="evenodd" d="M18.5181 0C19.3329 0 19.9998 0.644782 20 1.44043V18.5596C19.9998 19.3561 19.3329 20 18.5181 20H1.47624C0.660541 20 0.000222931 19.3561 0 18.5596V1.44043C0.00022311 0.644782 0.660542 0 1.47624 0H18.5181ZM9.98617 2.5C7.94929 2.50375 7.69372 2.51352 6.89372 2.5529C6.09573 2.59041 5.55045 2.7176 5.07487 2.90446C4.57479 3.09393 4.12185 3.39002 3.74756 3.77197C3.36712 4.14736 3.07269 4.60133 2.88493 5.10173C2.70061 5.57916 2.57487 6.12566 2.53988 6.92301C2.50489 7.72032 2.49706 7.97799 2.50081 10.0146C2.50456 12.0513 2.51416 12.3065 2.5529 13.1063C2.59102 13.9044 2.71759 14.4497 2.90446 14.9259C3.09692 15.419 3.35461 15.8363 3.77197 16.2524C4.14766 16.633 4.60179 16.9275 5.10254 17.1151C5.57935 17.2994 6.12507 17.4251 6.92301 17.4601C7.72176 17.4951 7.97921 17.5037 10.0155 17.5C12.0515 17.4963 12.3078 17.4869 13.1071 17.4487C13.9071 17.4112 14.4491 17.2826 14.9259 17.0964C15.4258 16.9068 15.8783 16.6107 16.2524 16.2288C16.633 15.8531 16.9275 15.3991 17.1151 14.8983C17.2994 14.4215 17.4249 13.876 17.4593 13.0786C17.4943 12.2786 17.5036 12.0222 17.4992 9.98617C17.4954 7.94991 17.4869 7.69372 17.4487 6.89372C17.4112 6.09393 17.283 5.55167 17.0955 5.07487C16.9062 4.57497 16.6106 4.12179 16.2288 3.74756C15.8533 3.36712 15.3996 3.07258 14.8991 2.88493C14.4216 2.70119 13.8765 2.57526 13.0778 2.5415C12.2797 2.50588 12.0227 2.49625 9.98617 2.5Z" fill="currentColor"/>
</svg>
