<svg width="64" height="64" viewBox="0 0 64 64" fill="none" xmlns="http://www.w3.org/2000/svg">
<path d="M32.0001 45.3333C32.0001 41.6 33.289 38.4444 35.8667 35.8667C38.4445 33.2889 41.6001 32 45.3334 32C41.6001 32 38.4445 30.7111 35.8667 28.1333C33.289 25.5556 32.0001 22.4 32.0001 18.6667C32.0001 22.4 30.7112 25.5556 28.1334 28.1333C25.5556 30.7111 22.4001 32 18.6667 32C22.4001 32 25.5556 33.2889 28.1334 35.8667C30.7112 38.4444 32.0001 41.6 32.0001 45.3333ZM32.0001 58.4C31.689 58.4 31.4001 58.3778 31.1334 58.3333C30.8667 58.2889 30.6001 58.2222 30.3334 58.1333C24.3334 56.1333 19.5556 52.4329 16.0001 47.032C12.4445 41.6311 10.6667 35.8204 10.6667 29.6V17C10.6667 15.8889 10.9894 14.8889 11.6347 14C12.2801 13.1111 13.113 12.4667 14.1334 12.0667L30.1334 6.06667C30.7556 5.84445 31.3779 5.73334 32.0001 5.73334C32.6223 5.73334 33.2445 5.84445 33.8667 6.06667L49.8667 12.0667C50.889 12.4667 51.7227 13.1111 52.3681 14C53.0134 14.8889 53.3352 15.8889 53.3334 17V29.6C53.3334 35.8222 51.5556 41.6338 48.0001 47.0347C44.4445 52.4356 39.6667 56.1351 33.6667 58.1333C33.4001 58.2222 33.1334 58.2889 32.8667 58.3333C32.6001 58.3778 32.3112 58.4 32.0001 58.4Z" fill="#608900"/>
</svg>
