<svg preserveAspectRatio="xMidYMid meet" viewBox="0 0 229 22" fill="none" xmlns="http://www.w3.org/2000/svg">
<path d="M222.796 18.3059C221.511 18.3059 220.409 18.1222 219.491 17.7549C218.589 17.371 217.888 16.8367 217.387 16.1522C216.903 15.4677 216.628 14.6831 216.561 13.7983L219.841 13.648C219.958 14.3659 220.25 14.9168 220.718 15.3008C221.202 15.6681 221.895 15.8517 222.796 15.8517C223.564 15.8517 224.157 15.7349 224.574 15.5011C224.992 15.2507 225.2 14.8667 225.2 14.3492C225.2 14.0487 225.125 13.7983 224.975 13.5979C224.825 13.3976 224.541 13.2223 224.124 13.072C223.706 12.9218 223.089 12.7715 222.271 12.6213C220.902 12.3876 219.825 12.1037 219.04 11.7698C218.272 11.4193 217.721 10.9935 217.387 10.4927C217.053 9.97515 216.886 9.32406 216.886 8.5394C216.886 7.27059 217.371 6.25221 218.339 5.48425C219.324 4.71629 220.726 4.33231 222.546 4.33231C224.282 4.33231 225.635 4.74968 226.603 5.58442C227.588 6.40246 228.181 7.48763 228.381 8.83991L225.125 8.99016C225.009 8.28898 224.725 7.7464 224.274 7.36241C223.823 6.97843 223.239 6.78644 222.521 6.78644C221.77 6.78644 221.194 6.9367 220.793 7.2372C220.409 7.53771 220.217 7.93839 220.217 8.43923C220.217 8.78982 220.301 9.08198 220.468 9.31571C220.651 9.54944 220.935 9.74143 221.319 9.89168C221.703 10.0252 222.246 10.1504 222.947 10.2673C224.349 10.4843 225.451 10.7682 226.252 11.1187C227.07 11.4526 227.655 11.8784 228.005 12.3959C228.356 12.8967 228.531 13.5312 228.531 14.2991C228.531 15.5679 228.005 16.5529 226.953 17.2541C225.918 17.9553 224.533 18.3059 222.796 18.3059Z" fill="#212C31"/>
<path d="M203.316 4.63281H206.221L206.347 8.38915L205.971 8.23889C206.171 6.90331 206.655 5.91831 207.423 5.28391C208.191 4.64951 209.151 4.33231 210.303 4.33231C211.739 4.33231 212.857 4.79141 213.659 5.70963C214.46 6.62784 214.861 7.86326 214.861 9.41588V18.0054H211.655V10.4426C211.655 9.25728 211.472 8.3808 211.105 7.81317C210.754 7.22886 210.161 6.9367 209.327 6.9367C208.458 6.9367 207.774 7.24555 207.273 7.86326C206.772 8.46427 206.522 9.32406 206.522 10.4426V18.0054H203.316V4.63281Z" fill="#212C31"/>
<path d="M194.912 18.3059C193.593 18.3059 192.441 18.0221 191.456 17.4544C190.471 16.8701 189.703 16.0521 189.152 15.0003C188.601 13.9485 188.326 12.7214 188.326 11.3191C188.326 9.91672 188.601 8.68965 189.152 7.63788C189.703 6.5861 190.471 5.77641 191.456 5.20878C192.441 4.62447 193.593 4.33231 194.912 4.33231C196.214 4.33231 197.358 4.62447 198.343 5.20878C199.345 5.77641 200.112 6.5861 200.647 7.63788C201.198 8.68965 201.473 9.91672 201.473 11.3191C201.473 12.7214 201.198 13.9485 200.647 15.0003C200.112 16.0521 199.345 16.8701 198.343 17.4544C197.358 18.0221 196.214 18.3059 194.912 18.3059ZM194.912 15.7015C195.947 15.7015 196.748 15.3175 197.316 14.5495C197.884 13.7816 198.168 12.7048 198.168 11.3191C198.168 9.95011 197.884 8.88164 197.316 8.11368C196.748 7.32903 195.947 6.9367 194.912 6.9367C193.877 6.9367 193.076 7.32068 192.508 8.08864C191.94 8.8566 191.657 9.93342 191.657 11.3191C191.657 12.7048 191.94 13.7816 192.508 14.5495C193.076 15.3175 193.877 15.7015 194.912 15.7015Z" fill="#212C31"/>
<path d="M183.152 4.63281H186.357V18.0054H183.152V4.63281ZM183.101 0H186.432V2.85481H183.101V0Z" fill="#212C31"/>
<path d="M178.502 18.0054C177.166 18.0054 176.181 17.6965 175.547 17.0788C174.929 16.4611 174.62 15.4928 174.62 14.1739V1.50256H177.825V13.8734C177.825 14.4744 177.951 14.9002 178.201 15.1506C178.468 15.401 178.894 15.5262 179.478 15.5262H181.356V18.0054H178.502ZM172.516 4.63284H181.356V7.11202H172.516V4.63284Z" fill="#212C31"/>
<path d="M165.79 18.3059C164.471 18.3059 163.319 18.0221 162.334 17.4544C161.349 16.8701 160.581 16.0521 160.03 15.0003C159.479 13.9318 159.203 12.7048 159.203 11.3191C159.203 9.93342 159.479 8.71469 160.03 7.66292C160.581 6.59445 161.349 5.77641 162.334 5.20878C163.319 4.62447 164.471 4.33231 165.79 4.33231C166.925 4.33231 167.935 4.53264 168.82 4.93332C169.721 5.33399 170.447 5.91831 170.998 6.68627C171.549 7.43754 171.892 8.33071 172.025 9.36579L168.72 9.54109C168.586 8.70635 168.26 8.0636 167.743 7.61284C167.225 7.16208 166.574 6.9367 165.79 6.9367C164.755 6.9367 163.953 7.32068 163.386 8.08864C162.818 8.8566 162.534 9.93342 162.534 11.3191C162.534 12.7048 162.818 13.7816 163.386 14.5495C163.953 15.3175 164.755 15.7015 165.79 15.7015C166.591 15.7015 167.25 15.4761 167.768 15.0253C168.285 14.5579 168.603 13.8567 168.72 12.9218L172.025 13.072C171.908 14.1405 171.574 15.0671 171.023 15.8517C170.472 16.6364 169.746 17.2457 168.845 17.6798C167.943 18.0972 166.925 18.3059 165.79 18.3059Z" fill="#212C31"/>
<path d="M151.794 18.3059C150.475 18.3059 149.323 18.0221 148.338 17.4544C147.353 16.8701 146.585 16.0521 146.034 15.0003C145.5 13.9485 145.233 12.7214 145.233 11.3191C145.233 9.93342 145.5 8.71469 146.034 7.66292C146.585 6.59445 147.345 5.77641 148.313 5.20878C149.298 4.62447 150.433 4.33231 151.719 4.33231C152.988 4.33231 154.098 4.61612 155.049 5.18374C156.018 5.75136 156.761 6.57776 157.278 7.66292C157.812 8.74808 158.079 10.0252 158.079 11.4944V12.2206H148.563C148.613 13.3725 148.922 14.249 149.49 14.85C150.074 15.4511 150.851 15.7516 151.819 15.7516C152.537 15.7516 153.129 15.593 153.597 15.2758C154.064 14.9586 154.398 14.4994 154.599 13.8984L157.879 14.0988C157.529 15.401 156.811 16.4277 155.725 17.179C154.64 17.9302 153.33 18.3059 151.794 18.3059ZM154.749 10.067C154.682 9.0152 154.382 8.2222 153.847 7.68796C153.313 7.13703 152.604 6.86157 151.719 6.86157C150.851 6.86157 150.133 7.13703 149.565 7.68796C149.014 8.23889 148.68 9.0319 148.563 10.067H154.749Z" fill="#212C31"/>
<path d="M131.279 4.63281H134.359L134.434 7.48763L134.109 7.33737C134.426 6.36907 134.968 5.62615 135.736 5.10861C136.504 4.59108 137.397 4.33231 138.416 4.33231C139.635 4.33231 140.67 4.64116 141.521 5.25887C142.389 5.85988 143.032 6.69462 143.449 7.76309C143.883 8.81486 144.1 10.0002 144.1 11.3191C144.1 12.638 143.883 13.8317 143.449 14.9001C143.032 15.9519 142.389 16.7866 141.521 17.4043C140.67 18.0054 139.626 18.3059 138.391 18.3059C137.723 18.3059 137.097 18.189 136.513 17.9553C135.945 17.7215 135.453 17.3877 135.035 16.9536C134.634 16.5028 134.351 15.9936 134.184 15.426L134.484 15.1756V21.7617H131.279V4.63281ZM137.64 15.7015C138.608 15.7015 139.367 15.3175 139.918 14.5495C140.486 13.7649 140.77 12.6881 140.77 11.3191C140.77 9.95011 140.486 8.88164 139.918 8.11368C139.367 7.32903 138.608 6.9367 137.64 6.9367C136.988 6.9367 136.421 7.10364 135.937 7.43754C135.469 7.77144 135.11 8.26394 134.86 8.91503C134.609 9.56613 134.484 10.3675 134.484 11.3191C134.484 12.2707 134.609 13.0804 134.86 13.7482C135.11 14.3993 135.469 14.8918 135.937 15.2257C136.404 15.5429 136.972 15.7015 137.64 15.7015Z" fill="#212C31"/>
<path d="M123.722 18.3059C122.437 18.3059 121.335 18.1222 120.417 17.7549C119.515 17.371 118.814 16.8367 118.313 16.1522C117.829 15.4677 117.553 14.6831 117.487 13.7983L120.767 13.648C120.884 14.3659 121.176 14.9168 121.644 15.3008C122.128 15.6681 122.821 15.8517 123.722 15.8517C124.49 15.8517 125.083 15.7349 125.5 15.5011C125.918 15.2507 126.126 14.8667 126.126 14.3492C126.126 14.0487 126.051 13.7983 125.901 13.5979C125.751 13.3976 125.467 13.2223 125.049 13.072C124.632 12.9218 124.014 12.7715 123.196 12.6213C121.827 12.3876 120.751 12.1037 119.966 11.7698C119.198 11.4193 118.647 10.9935 118.313 10.4927C117.979 9.97515 117.812 9.32406 117.812 8.5394C117.812 7.27059 118.296 6.25221 119.265 5.48425C120.25 4.71629 121.652 4.33231 123.472 4.33231C125.208 4.33231 126.56 4.74968 127.529 5.58442C128.514 6.40246 129.106 7.48763 129.307 8.83991L126.051 8.99016C125.934 8.28898 125.65 7.7464 125.2 7.36241C124.749 6.97843 124.165 6.78644 123.447 6.78644C122.695 6.78644 122.12 6.9367 121.719 7.2372C121.335 7.53771 121.143 7.93839 121.143 8.43923C121.143 8.78982 121.226 9.08198 121.393 9.31571C121.577 9.54944 121.861 9.74143 122.245 9.89168C122.629 10.0252 123.171 10.1504 123.872 10.2673C125.275 10.4843 126.377 10.7682 127.178 11.1187C127.996 11.4526 128.58 11.8784 128.931 12.3959C129.282 12.8967 129.457 13.5312 129.457 14.2991C129.457 15.5679 128.931 16.5529 127.879 17.2541C126.844 17.9553 125.458 18.3059 123.722 18.3059Z" fill="#212C31"/>
<path d="M104.242 4.63281H107.147L107.272 8.38915L106.897 8.23889C107.097 6.90331 107.581 5.91831 108.349 5.28391C109.117 4.64951 110.077 4.33231 111.229 4.33231C112.665 4.33231 113.783 4.79141 114.585 5.70963C115.386 6.62784 115.787 7.86326 115.787 9.41588V18.0054H112.581V10.4426C112.581 9.25728 112.397 8.3808 112.03 7.81317C111.68 7.22886 111.087 6.9367 110.252 6.9367C109.384 6.9367 108.7 7.24555 108.199 7.86326C107.698 8.46427 107.447 9.32406 107.447 10.4426V18.0054H104.242V4.63281Z" fill="#212C31"/>
<path d="M98.2986 0.225372H101.554V18.0054H98.2986V0.225372Z" fill="#212C31"/>
<path d="M84.574 18.3059C83.2551 18.3059 82.1032 18.0221 81.1182 17.4544C80.1332 16.8701 79.3652 16.0521 78.8143 15.0003C78.2801 13.9485 78.0129 12.7214 78.0129 11.3191C78.0129 9.93342 78.2801 8.71469 78.8143 7.66292C79.3652 6.59445 80.1248 5.77641 81.0931 5.20878C82.0781 4.62447 83.2134 4.33231 84.4989 4.33231C85.7677 4.33231 86.8779 4.61612 87.8295 5.18374C88.7978 5.75136 89.5407 6.57776 90.0582 7.66292C90.5925 8.74808 90.8596 10.0252 90.8596 11.4944V12.2206H81.3436C81.3936 13.3725 81.7025 14.249 82.2701 14.85C82.8544 15.4511 83.6307 15.7516 84.599 15.7516C85.3169 15.7516 85.9096 15.593 86.377 15.2758C86.8445 14.9586 87.1784 14.4994 87.3787 13.8984L90.6593 14.0988C90.3087 15.401 89.5908 16.4277 88.5056 17.179C87.4205 17.9302 86.1099 18.3059 84.574 18.3059ZM87.529 10.067C87.4622 9.0152 87.1617 8.2222 86.6275 7.68796C86.0932 7.13703 85.3837 6.86157 84.4989 6.86157C83.6307 6.86157 82.9129 7.13703 82.3452 7.68796C81.7943 8.23889 81.4604 9.0319 81.3436 10.067H87.529Z" fill="#212C31"/>
<path d="M75.0664 18.0054C74.048 18.0054 73.255 17.7549 72.6874 17.2541C72.1197 16.7365 71.8359 15.9352 71.8359 14.85L71.861 0.225372H75.0664V14.5245C75.0664 14.8584 75.1499 15.1088 75.3168 15.2757C75.4838 15.4427 75.7342 15.5262 76.0681 15.5262H77.0447V18.0054H75.0664Z" fill="#212C31"/>
<path d="M64.2941 18.3059C63.3758 18.3059 62.5661 18.1055 61.865 17.7048C61.1638 17.3042 60.6212 16.7449 60.2372 16.027L60.1621 18.0054H57.1069V0.225372H60.3123V6.53601C60.6796 5.88492 61.2139 5.35903 61.915 4.95835C62.6329 4.54098 63.4259 4.3323 64.2941 4.3323C65.4293 4.3323 66.4226 4.62446 67.2741 5.20878C68.1255 5.7764 68.7766 6.5861 69.2274 7.63787C69.6948 8.68964 69.9286 9.91671 69.9286 11.3191C69.9286 12.7214 69.6948 13.9485 69.2274 15.0003C68.7766 16.0521 68.1255 16.8701 67.2741 17.4544C66.4226 18.022 65.4293 18.3059 64.2941 18.3059ZM63.5678 15.7015C64.486 15.7015 65.2206 15.3175 65.7715 14.5495C66.3225 13.7649 66.5979 12.6881 66.5979 11.3191C66.5979 9.9501 66.3225 8.88164 65.7715 8.11367C65.2373 7.32902 64.5111 6.93669 63.5929 6.93669C62.9084 6.93669 62.3157 7.11198 61.8149 7.46258C61.3307 7.79647 60.9551 8.29732 60.688 8.96511C60.4376 9.61621 60.3123 10.4009 60.3123 11.3191C60.3123 12.2206 60.4376 13.0053 60.688 13.673C60.9551 14.3241 61.3307 14.825 61.8149 15.1756C62.299 15.5262 62.8833 15.7015 63.5678 15.7015Z" fill="#212C31"/>
<path d="M46.8233 18.3059C45.4042 18.3059 44.2689 17.9887 43.4175 17.3543C42.5828 16.7032 42.1654 15.8016 42.1654 14.6497C42.1654 13.5145 42.516 12.6213 43.2172 11.9702C43.9351 11.3191 45.0369 10.8433 46.5228 10.5428L50.9552 9.6663C50.9552 8.71469 50.7382 8.00517 50.3041 7.53771C49.8701 7.05356 49.2357 6.81149 48.4009 6.81149C47.633 6.81149 47.0236 6.98678 46.5728 7.33737C46.1221 7.68796 45.8216 8.2055 45.6713 8.88999L42.3908 8.73974C42.6412 7.32068 43.284 6.23551 44.319 5.48425C45.3708 4.71629 46.7314 4.33231 48.4009 4.33231C50.2874 4.33231 51.7148 4.80811 52.6831 5.75971C53.6681 6.71132 54.1606 8.08864 54.1606 9.89168V14.7499C54.1606 15.1005 54.2191 15.3425 54.3359 15.4761C54.4695 15.6097 54.6615 15.6764 54.9119 15.6764H55.3376V18.0054C55.2207 18.0387 55.0538 18.0638 54.8368 18.0805C54.6197 18.0972 54.4027 18.1055 54.1857 18.1055C53.2675 18.1055 52.5579 17.8801 52.0571 17.4294C51.5729 16.9786 51.3309 16.2023 51.3309 15.1005L51.6063 15.3008C51.406 16.1856 50.8634 16.9118 49.9786 17.4795C49.1104 18.0304 48.0587 18.3059 46.8233 18.3059ZM47.4744 15.9769C48.1922 15.9769 48.8099 15.835 49.3275 15.5512C49.845 15.2674 50.2457 14.8751 50.5295 14.3742C50.8133 13.8567 50.9552 13.264 50.9552 12.5962V11.845L47.4994 12.5462C46.7982 12.6797 46.289 12.8967 45.9718 13.1973C45.6546 13.4978 45.496 13.8817 45.496 14.3492C45.496 14.8667 45.663 15.2674 45.9969 15.5512C46.3475 15.835 46.84 15.9769 47.4744 15.9769Z" fill="#212C31"/>
<path d="M36.9176 4.63281H40.123V18.0054H36.9176V4.63281ZM36.8676 0H40.1982V2.85481H36.8676V0Z" fill="#212C31"/>
<path d="M33.0492 18.0054C32.0308 18.0054 31.2378 17.7549 30.6702 17.2541C30.1025 16.7365 29.8187 15.9352 29.8187 14.85L29.8438 0.225372H33.0492V14.5245C33.0492 14.8584 33.1326 15.1088 33.2996 15.2757C33.4665 15.4427 33.717 15.5262 34.0509 15.5262H35.0275V18.0054H33.0492Z" fill="#212C31"/>
<path d="M21.6341 18.3059C20.3152 18.3059 19.1632 18.0221 18.1782 17.4544C17.1932 16.8701 16.4253 16.0521 15.8743 15.0003C15.3401 13.9485 15.073 12.7214 15.073 11.3191C15.073 9.93342 15.3401 8.71469 15.8743 7.66292C16.4253 6.59445 17.1849 5.77641 18.1532 5.20878C19.1382 4.62447 20.2734 4.33231 21.5589 4.33231C22.8277 4.33231 23.9379 4.61612 24.8896 5.18374C25.8579 5.75136 26.6008 6.57776 27.1183 7.66292C27.6525 8.74808 27.9197 10.0252 27.9197 11.4944V12.2206H18.4036C18.4537 13.3725 18.7626 14.249 19.3302 14.85C19.9145 15.4511 20.6908 15.7516 21.6591 15.7516C22.377 15.7516 22.9696 15.593 23.4371 15.2758C23.9046 14.9586 24.2385 14.4994 24.4388 13.8984L27.7193 14.0988C27.3687 15.401 26.6509 16.4277 25.5657 17.179C24.4805 17.9302 23.17 18.3059 21.6341 18.3059ZM24.589 10.067C24.5223 9.0152 24.2218 8.2222 23.6875 7.68796C23.1533 7.13703 22.4438 6.86157 21.5589 6.86157C20.6908 6.86157 19.9729 7.13703 19.4053 7.68796C18.8544 8.23889 18.5205 9.0319 18.4036 10.067H24.589Z" fill="#212C31"/>
<path d="M0 0.225372H7.43754C8.70635 0.225372 9.8082 0.442405 10.7431 0.876471C11.6947 1.31054 12.4293 1.93659 12.9468 2.75464C13.4644 3.55599 13.7231 4.4909 13.7231 5.55937C13.7231 6.36072 13.5478 7.07859 13.1973 7.713C12.8467 8.3474 12.3709 8.86494 11.7698 9.26562C11.1855 9.6496 10.5344 9.88332 9.81655 9.9668L9.69134 9.71638C10.8433 9.71638 11.7281 9.97514 12.3458 10.4927C12.9635 11.0102 13.3225 11.8032 13.4226 12.8717L13.8734 18.0054H10.5678L10.1922 13.3475C10.1421 12.6296 9.90837 12.1121 9.491 11.7949C9.09033 11.461 8.43088 11.294 7.51267 11.294H3.25549V18.0054H0V0.225372ZM7.2372 8.43922C8.2055 8.43922 8.96512 8.20549 9.51604 7.73804C10.0837 7.27059 10.3675 6.61114 10.3675 5.7597C10.3675 4.89157 10.0837 4.22378 9.51604 3.75633C8.94842 3.28887 8.13872 3.05514 7.08695 3.05514H3.25549V8.43922H7.2372Z" fill="#212C31"/>
</svg>
