<svg preserveAspectRatio="xMidYMid meet" viewBox="0 0 120 62" fill="none" xmlns="http://www.w3.org/2000/svg">
<path d="M24.192 0C26.1532 0 27.744 1.58915 27.744 3.54926V8.55772C27.744 8.74595 27.5211 8.84881 27.3771 8.72743L24.9532 6.6936C24.7509 6.52492 24.6343 6.276 24.6343 6.01372V3.99258C24.6343 3.50264 24.2366 3.1056 23.7463 3.1056H11.5577C11.3486 3.1056 11.1463 3.17898 10.9852 3.31304L3.42514 9.65452C3.22285 9.82287 3.10631 10.0718 3.10631 10.3341V25.3978C3.10631 25.8878 3.50401 26.2852 3.99429 26.2852H24.192C24.4355 26.2852 24.6343 26.0863 24.6343 25.8415V16.3831C24.6343 16.2518 24.576 16.1273 24.4766 16.043L18.0411 10.6457C17.8766 10.5072 17.6331 10.5072 17.4686 10.6457L11.0332 16.043C10.9337 16.1273 10.8754 16.2518 10.8754 16.3831V24.0442C10.8754 24.289 10.6766 24.4879 10.4297 24.4879H8.21141C7.96798 24.4879 7.76916 24.289 7.76916 24.0442V15.1419C7.76916 14.8793 7.88227 14.6307 8.08456 14.4621L17.184 6.83109C17.5131 6.5544 17.9966 6.5544 18.3257 6.83109L27.5828 14.5951C27.6857 14.6794 27.744 14.8039 27.744 14.9349V25.8415C27.744 27.8016 26.1532 29.3904 24.192 29.3904H1.76915C0.792012 29.3904 0 28.5981 0 27.6209V3.1056C0 1.39029 1.39202 0 3.10631 0V5.86664L9.60686 0.415199C9.92572 0.147085 10.3303 0 10.7486 0H24.192Z" fill="#5E8B3C"/>
<path d="M19.5292 17.8334C19.776 17.8334 19.9749 18.0319 19.9749 18.277V24.0442C19.9749 24.289 19.776 24.4879 19.5292 24.4879H15.9806C15.7337 24.4879 15.5349 24.289 15.5349 24.0442V18.277C15.5349 18.0319 15.7337 17.8334 15.9806 17.8334H19.5292Z" fill="#5E8B3C"/>
<path d="M116.931 21.7992C116.87 20.8299 116.592 20.0993 116.102 19.607C115.608 19.0995 114.953 18.8455 114.141 18.8455C113.338 18.8455 112.677 19.0995 112.155 19.607C111.648 20.1147 111.339 20.8454 111.233 21.7992H116.931ZM114.209 29.3904C112.992 29.3904 111.933 29.1288 111.024 28.6059C110.115 28.0677 109.409 27.3137 108.902 26.3448C108.408 25.3755 108.165 24.2448 108.165 22.9529C108.165 21.6761 108.408 20.5529 108.902 19.584C109.409 18.5993 110.109 17.8457 111 17.3229C111.909 16.7842 112.954 16.5151 114.141 16.5151C115.31 16.5151 116.331 16.7767 117.209 17.2995C118.101 17.8227 118.786 18.5842 119.263 19.584C119.753 20.5838 120 21.7604 120 23.1144V23.7833H111.233C111.278 24.8448 111.562 25.6522 112.087 26.2063C112.625 26.76 113.338 27.037 114.23 27.037C114.891 27.037 115.44 26.8906 115.869 26.5985C116.301 26.3061 116.609 25.883 116.794 25.3293L119.815 25.5141C119.493 26.7141 118.831 27.66 117.83 28.3522C116.832 29.0445 115.625 29.3904 114.209 29.3904Z" fill="#1A2127"/>
<path d="M105.449 29.1134C104.51 29.1134 103.779 28.8826 103.255 28.4215C102.734 27.9446 102.473 27.2061 102.473 26.2063L102.494 12.731H105.449V25.9063C105.449 26.2138 105.525 26.4446 105.679 26.5985C105.833 26.7521 106.063 26.8293 106.371 26.8293H107.27V29.1134H105.449Z" fill="#1A2127"/>
<path d="M94.8548 26.9908C95.6983 26.9908 96.3771 26.6369 96.8845 25.9293C97.392 25.2062 97.6457 24.2143 97.6457 22.9529C97.6457 21.6912 97.392 20.7069 96.8845 19.9992C96.3908 19.2765 95.7222 18.9147 94.8754 18.9147C94.2445 18.9147 93.6994 19.0762 93.2365 19.3992C92.7908 19.7071 92.4446 20.1686 92.2011 20.7837C91.968 21.3837 91.8548 22.1067 91.8548 22.9529C91.8548 23.7833 91.968 24.5064 92.2011 25.1218C92.4446 25.7215 92.7908 26.1833 93.2365 26.5063C93.6857 26.8293 94.224 26.9908 94.8548 26.9908ZM95.5234 29.3904C94.6765 29.3904 93.9291 29.2059 93.2845 28.8367C92.6365 28.4674 92.1394 27.9521 91.7828 27.2908L91.7143 29.1134H88.8994V12.731H91.8548V18.5455C92.1908 17.9458 92.6845 17.461 93.3291 17.0921C93.9908 16.7074 94.7211 16.5151 95.5234 16.5151C96.5691 16.5151 97.4845 16.7842 98.2697 17.3229C99.0514 17.8457 99.6514 18.5918 100.07 19.5607C100.498 20.5299 100.714 21.6607 100.714 22.9529C100.714 24.2448 100.498 25.3755 100.07 26.3448C99.6514 27.3137 99.0514 28.0677 98.2697 28.606C97.4845 29.1288 96.5691 29.3904 95.5234 29.3904Z" fill="#1A2127"/>
<path d="M80.0228 27.2445C80.6845 27.2445 81.2537 27.1138 81.7302 26.8522C82.2102 26.5906 82.5771 26.2293 82.8377 25.7678C83.1017 25.2909 83.232 24.7447 83.232 24.1296V23.4374L80.0468 24.0833C79.4022 24.2064 78.9325 24.4063 78.6411 24.6833C78.3462 24.9604 78.2022 25.3142 78.2022 25.7448C78.2022 26.2217 78.3565 26.5906 78.6617 26.8522C78.9874 27.1138 79.44 27.2445 80.0228 27.2445ZM79.4228 29.3904C78.1165 29.3904 77.0708 29.0983 76.2857 28.5137C75.5177 27.9137 75.1337 27.083 75.1337 26.0215C75.1337 24.9754 75.4559 24.1526 76.1005 23.5526C76.7622 22.9529 77.7771 22.5144 79.1485 22.2374L83.232 21.4299C83.232 20.5529 83.0331 19.8994 82.632 19.4685C82.2308 19.0224 81.648 18.7995 80.8765 18.7995C80.1702 18.7995 79.6079 18.961 79.1931 19.284C78.7782 19.607 78.5005 20.0839 78.3634 20.7144L75.3394 20.5762C75.5725 19.2686 76.1622 18.2688 77.1154 17.5766C78.0857 16.8689 79.3405 16.5151 80.8765 16.5151C82.6148 16.5151 83.9314 16.9536 84.8228 17.8303C85.7314 18.707 86.1839 19.9762 86.1839 21.6374V26.1141C86.1839 26.437 86.2388 26.6599 86.3451 26.783C86.4685 26.9061 86.6468 26.9678 86.8765 26.9678H87.2708V29.1134C87.1611 29.1442 87.0068 29.1675 86.8079 29.1826C86.6091 29.1981 86.4068 29.2059 86.2079 29.2059C85.3611 29.2059 84.7097 28.9982 84.2468 28.583C83.8011 28.1674 83.5782 27.4522 83.5782 26.437L83.832 26.6215C83.6468 27.4368 83.1462 28.1061 82.3302 28.6289C81.5314 29.1367 80.5611 29.3904 79.4228 29.3904Z" fill="#1A2127"/>
<path d="M70.2515 12.5232H73.32V15.1536H70.2515V12.5232ZM70.296 16.7921H73.2515V29.1134H70.296V16.7921Z" fill="#1A2127"/>
<path d="M66.7337 29.1134C65.7943 29.1134 65.064 28.8826 64.5394 28.4215C64.0183 27.9446 63.7577 27.2061 63.7577 26.2063L63.7783 12.731H66.7337V25.9063C66.7337 26.2138 66.8092 26.4446 66.9634 26.5985C67.1177 26.7521 67.3474 26.8293 67.656 26.8293H68.5543V29.1134H66.7337Z" fill="#1A2127"/>
<path d="M58.937 21.7992C58.8753 20.8299 58.5976 20.0993 58.1073 19.607C57.6136 19.0995 56.9622 18.8455 56.1462 18.8455C55.3473 18.8455 54.6856 19.0995 54.161 19.607C53.6536 20.1147 53.345 20.8454 53.2388 21.7992H58.937ZM56.2147 29.3904C55.001 29.3904 53.9382 29.1288 53.0296 28.6059C52.1245 28.0677 51.4147 27.3137 50.9073 26.3448C50.417 25.3755 50.1702 24.2448 50.1702 22.9529C50.1702 21.6761 50.417 20.5529 50.9073 19.584C51.4147 18.5993 52.1142 17.8457 53.009 17.3229C53.9142 16.7842 54.9599 16.5151 56.1462 16.5151C57.3153 16.5151 58.337 16.7767 59.2147 17.2995C60.1062 17.8227 60.7919 18.5842 61.2685 19.584C61.7587 20.5838 62.0056 21.7604 62.0056 23.1144V23.7833H53.2388C53.2833 24.8448 53.5679 25.6522 54.0925 26.2063C54.6308 26.76 55.3473 27.037 56.2388 27.037C56.9005 27.037 57.4456 26.8906 57.8776 26.5985C58.3062 26.3061 58.6148 25.883 58.7999 25.3293L61.8205 25.5141C61.4982 26.7141 60.8365 27.66 59.8388 28.3522C58.8376 29.0445 57.6307 29.3904 56.2147 29.3904Z" fill="#1A2127"/>
<path d="M42.9496 20.2992C43.841 20.2992 44.5405 20.0839 45.0479 19.6533C45.5725 19.2226 45.833 18.6147 45.833 17.8303C45.833 17.0304 45.5725 16.415 45.0479 15.9843C44.5267 15.5537 43.7793 15.3384 42.8125 15.3384H39.281V20.2992H42.9496ZM36.281 12.731H43.1348C44.3039 12.731 45.3187 12.9309 46.1793 13.331C47.057 13.7308 47.7324 14.3078 48.209 15.0614C48.6856 15.7999 48.9256 16.6611 48.9256 17.6458C48.9256 18.384 48.7645 19.0457 48.4422 19.6303C48.1165 20.2145 47.681 20.6914 47.1256 21.0607C46.5873 21.4145 45.9873 21.6298 45.3256 21.7066L45.209 21.4759C46.2719 21.4759 47.0879 21.7145 47.657 22.1914C48.2262 22.6684 48.5553 23.399 48.6479 24.3833L49.0627 29.1134H46.0182L45.6719 24.8218C45.6273 24.1605 45.4113 23.6835 45.0273 23.3911C44.657 23.0835 44.0502 22.9296 43.2033 22.9296H39.281V29.1134H36.281V12.731Z" fill="#1A2127"/>
<path d="M114.713 50.2978C113.53 50.2978 112.515 50.1285 111.668 49.7901C110.839 49.4362 110.194 48.9439 109.731 48.3134C109.286 47.6828 109.032 46.9598 108.97 46.1445L111.994 46.0059C112.101 46.6677 112.371 47.1751 112.8 47.5289C113.246 47.8673 113.883 48.0367 114.713 48.0367C115.423 48.0367 115.968 47.9287 116.355 47.7134C116.739 47.4826 116.931 47.1288 116.931 46.6519C116.931 46.3752 116.863 46.1445 116.726 45.9597C116.585 45.7752 116.325 45.6137 115.937 45.4752C115.553 45.3367 114.984 45.1985 114.233 45.06C112.968 44.8447 111.977 44.5827 111.254 44.2752C110.547 43.9522 110.04 43.56 109.731 43.0985C109.423 42.6216 109.268 42.0216 109.268 41.2985C109.268 40.1294 109.718 39.191 110.609 38.4837C111.514 37.776 112.807 37.4222 114.487 37.4222C116.085 37.4222 117.329 37.8068 118.224 38.5759C119.129 39.3298 119.678 40.3296 119.859 41.5755L116.863 41.7141C116.753 41.0681 116.493 40.5679 116.078 40.2141C115.663 39.8606 115.125 39.6833 114.459 39.6833C113.77 39.6833 113.239 39.8218 112.868 40.0989C112.515 40.3755 112.341 40.7448 112.341 41.2063C112.341 41.5296 112.416 41.7987 112.57 42.0141C112.738 42.2294 112.999 42.4063 113.355 42.5448C113.709 42.6675 114.206 42.7831 114.854 42.8911C116.146 43.091 117.161 43.3522 117.902 43.6755C118.653 43.9831 119.191 44.3753 119.517 44.8522C119.839 45.3137 120 45.8979 120 46.6059C120 47.7751 119.517 48.6826 118.546 49.3286C117.593 49.9748 116.314 50.2978 114.713 50.2978Z" fill="#1A2127"/>
<path d="M96.7645 37.6992H99.4423L99.5588 41.1603L99.2125 41.0218C99.3977 39.791 99.8434 38.8838 100.55 38.2992C101.259 37.7143 102.144 37.4222 103.203 37.4222C104.527 37.4222 105.559 37.8452 106.296 38.6911C107.033 39.5372 107.403 40.6755 107.403 42.1063V50.0208H104.451V43.0522C104.451 41.9602 104.28 41.1524 103.944 40.6296C103.618 40.0913 103.073 39.8218 102.305 39.8218C101.503 39.8218 100.872 40.1067 100.413 40.6755C99.9497 41.2296 99.72 42.0216 99.72 43.0522V50.0208H96.7645V37.6992Z" fill="#1A2127"/>
<path d="M89.0229 47.8982C89.9761 47.8982 90.7132 47.5443 91.2378 46.8367C91.7589 46.129 92.0229 45.1368 92.0229 43.86C92.0229 42.5986 91.7589 41.6139 91.2378 40.9063C90.7132 40.1835 89.9761 39.8218 89.0229 39.8218C88.0698 39.8218 87.3292 40.1757 86.8081 40.8833C86.2835 41.591 86.0229 42.5832 86.0229 43.86C86.0229 45.1368 86.2835 46.129 86.8081 46.8367C87.3292 47.5443 88.0698 47.8982 89.0229 47.8982ZM89.0229 50.2978C87.8058 50.2978 86.7464 50.0362 85.8378 49.5134C84.9292 48.9747 84.2229 48.2211 83.7155 47.2519C83.2081 46.283 82.9543 45.1522 82.9543 43.86C82.9543 42.5678 83.2081 41.437 83.7155 40.4678C84.2229 39.4988 84.9292 38.7528 85.8378 38.2299C86.7464 37.6913 87.8058 37.4222 89.0229 37.4222C90.2229 37.4222 91.2755 37.6913 92.1841 38.2299C93.1064 38.7528 93.8127 39.4988 94.3064 40.4678C94.8138 41.437 95.0675 42.5678 95.0675 43.86C95.0675 45.1522 94.8138 46.283 94.3064 47.2519C93.8127 48.2211 93.1064 48.9747 92.1841 49.5134C91.2755 50.0362 90.2229 50.2978 89.0229 50.2978Z" fill="#1A2127"/>
<path d="M78.1405 33.4303H81.2091V36.0607H78.1405V33.4303ZM78.1851 37.6992H81.1405V50.0208H78.1851V37.6992Z" fill="#1A2127"/>
<path d="M68.3862 37.6992H76.5325V39.9833H68.3862V37.6992ZM73.8994 50.0208C72.672 50.0208 71.7634 49.7362 71.1771 49.1671C70.6079 48.5979 70.3234 47.7058 70.3234 46.4904V34.8147H73.2788V46.2137C73.2788 46.7674 73.392 47.1596 73.6251 47.3904C73.8685 47.6211 74.2628 47.7367 74.8011 47.7367H76.5325V50.0208H73.8994Z" fill="#1A2127"/>
<path d="M62.1875 50.2978C60.9737 50.2978 59.9109 50.0362 59.0023 49.5134C58.0972 48.9747 57.3875 48.2211 56.88 47.2519C56.3726 46.2675 56.1189 45.1368 56.1189 43.86C56.1189 42.5832 56.3726 41.4603 56.88 40.4911C57.3875 39.5067 58.0972 38.7528 59.0023 38.2299C59.9109 37.6913 60.9737 37.4222 62.1875 37.4222C63.2332 37.4222 64.1657 37.607 64.9817 37.9759C65.8115 38.3451 66.48 38.8838 66.9875 39.5911C67.4949 40.2833 67.8103 41.1065 67.9337 42.0603L64.8892 42.2215C64.7657 41.4524 64.464 40.8603 63.9875 40.4451C63.5109 40.0296 62.9109 39.8218 62.1875 39.8218C61.2343 39.8218 60.4972 40.1757 59.9726 40.8833C59.4515 41.591 59.1875 42.5832 59.1875 43.86C59.1875 45.1368 59.4515 46.129 59.9726 46.8367C60.4972 47.5443 61.2343 47.8982 62.1875 47.8982C62.928 47.8982 63.5349 47.6904 64.0114 47.2749C64.488 46.8442 64.7795 46.1983 64.8892 45.3367L67.9337 45.4752C67.8275 46.4599 67.5189 47.3136 67.0114 48.0367C66.504 48.7594 65.8354 49.321 65.0023 49.7208C64.1726 50.1055 63.2332 50.2978 62.1875 50.2978Z" fill="#1A2127"/>
<path d="M52.0148 42.7063C51.953 41.737 51.6754 41.0064 51.1851 40.5141C50.6914 40.0066 50.0365 39.7529 49.2239 39.7529C48.4216 39.7529 47.7599 40.0066 47.2388 40.5141C46.7314 41.0218 46.4228 41.7524 46.3165 42.7063H52.0148ZM49.2925 50.2978C48.0754 50.2978 47.0159 50.0362 46.1073 49.5134C45.1988 48.9747 44.4925 48.2211 43.9851 47.2519C43.4914 46.283 43.2479 45.1522 43.2479 43.86C43.2479 42.5832 43.4914 41.4603 43.9851 40.4911C44.4925 39.5067 45.1919 38.7528 46.0834 38.2299C46.9919 37.6913 48.0376 37.4222 49.2239 37.4222C50.393 37.4222 51.4148 37.6838 52.2925 38.2066C53.1839 38.7298 53.8696 39.491 54.3462 40.4911C54.8365 41.4908 55.0834 42.6675 55.0834 44.0215V44.6907H46.3165C46.3611 45.7519 46.6456 46.5596 47.1702 47.1134C47.7085 47.6671 48.4216 47.9441 49.3165 47.9441C49.9748 47.9441 50.5233 47.798 50.9519 47.5056C51.3839 47.2135 51.6925 46.7904 51.8777 46.2367L54.8982 46.4211C54.5759 47.6211 53.9142 48.5671 52.913 49.2597C51.9153 49.9515 50.7085 50.2978 49.2925 50.2978Z" fill="#1A2127"/>
<path d="M36.2503 47.8982C37.1417 47.8982 37.8412 47.5443 38.3486 46.8367C38.8732 46.1136 39.1337 45.1214 39.1337 43.86C39.1337 42.5986 38.8732 41.6139 38.3486 40.9063C37.8412 40.1835 37.1417 39.8218 36.2503 39.8218C35.6503 39.8218 35.1257 39.9758 34.68 40.2833C34.2515 40.5912 33.9189 41.0448 33.6892 41.6448C33.4595 42.2448 33.3429 42.9833 33.3429 43.86C33.3429 44.7367 33.4595 45.4831 33.6892 46.0982C33.9189 46.6982 34.2515 47.1521 34.68 47.4597C35.112 47.7518 35.6332 47.8982 36.2503 47.8982ZM30.3875 37.6992H33.2263L33.2949 40.3296L32.9966 40.1911C33.288 39.299 33.7886 38.6143 34.4949 38.1377C35.2046 37.6604 36.0274 37.4222 36.9669 37.4222C38.088 37.4222 39.0412 37.7067 39.8263 38.2759C40.6252 38.8299 41.2183 39.599 41.6023 40.5833C42.0034 41.5526 42.2023 42.6449 42.2023 43.86C42.2023 45.0751 42.0034 46.1753 41.6023 47.1597C41.2183 48.1289 40.6252 48.8979 39.8263 49.4671C39.0412 50.0208 38.0812 50.2978 36.9429 50.2978C36.3257 50.2978 35.7497 50.1902 35.2114 49.9749C34.6903 49.7592 34.2343 49.4516 33.8503 49.0519C33.48 48.6363 33.2194 48.1673 33.0651 47.6445L33.3429 47.4134V53.4819H30.3875V37.6992Z" fill="#1A2127"/>
<path d="M23.4274 50.2978C22.2412 50.2978 21.2263 50.1285 20.3794 49.7901C19.5497 49.4362 18.9018 48.9439 18.4423 48.3134C17.9966 47.6828 17.7429 46.9598 17.6812 46.1445L20.7017 46.0059C20.8115 46.6677 21.0789 47.1751 21.5109 47.5289C21.9566 47.8673 22.5943 48.0367 23.4274 48.0367C24.1337 48.0367 24.6789 47.9287 25.0629 47.7134C25.4503 47.4826 25.6423 47.1288 25.6423 46.6519C25.6423 46.3752 25.5703 46.1445 25.4332 45.9597C25.296 45.7752 25.032 45.6137 24.648 45.4752C24.264 45.3367 23.6949 45.1985 22.9406 45.06C21.6789 44.8447 20.688 44.5827 19.9646 44.2752C19.2583 43.9522 18.7509 43.56 18.4423 43.0985C18.1338 42.6216 17.9794 42.0216 17.9794 41.2985C17.9794 40.1294 18.4252 39.191 19.32 38.4837C20.2252 37.776 21.5178 37.4222 23.1943 37.4222C24.7955 37.4222 26.04 37.8068 26.9349 38.5759C27.84 39.3298 28.3886 40.3296 28.5703 41.5755L25.5703 41.7141C25.464 41.0681 25.2035 40.5679 24.7886 40.2141C24.3738 39.8606 23.832 39.6833 23.1737 39.6833C22.4812 39.6833 21.9497 39.8218 21.5794 40.0989C21.2263 40.3755 21.048 40.7448 21.048 41.2063C21.048 41.5296 21.1269 41.7987 21.2812 42.0141C21.4492 42.2294 21.7097 42.4063 22.0663 42.5448C22.4195 42.6675 22.9166 42.7831 23.5646 42.8911C24.8572 43.091 25.872 43.3522 26.6092 43.6755C27.3635 43.9831 27.9017 44.3753 28.224 44.8522C28.5497 45.3137 28.7109 45.8979 28.7109 46.6059C28.7109 47.7751 28.224 48.6826 27.2572 49.3286C26.304 49.9748 25.0252 50.2978 23.4274 50.2978Z" fill="#1A2127"/>
<path d="M5.47559 37.6992H8.15332L8.26988 41.1603L7.92359 41.0218C8.10873 39.791 8.55446 38.8838 9.26074 38.2992C9.96703 37.7143 10.8516 37.4222 11.9145 37.4222C13.2379 37.4222 14.2665 37.8452 15.007 38.6911C15.7442 39.5372 16.1145 40.6755 16.1145 42.1063V50.0208H13.159V43.0522C13.159 41.9602 12.991 41.1524 12.6516 40.6296C12.3293 40.0913 11.7842 39.8218 11.0162 39.8218C10.2139 39.8218 9.58302 40.1067 9.12359 40.6755C8.66073 41.2296 8.43101 42.0216 8.43101 43.0522V50.0208H5.47559V37.6992Z" fill="#1A2127"/>
<path d="M3 33.6381H0V50.0208H3V33.6381Z" fill="#1A2127"/>
<path d="M47.5612 60.2506H46.9852V58.2988L45.2949 55.4719H45.9806L47.2732 57.7063L48.5658 55.4719H49.2515L47.5612 58.2988V60.2506Z" fill="#415362"/>
<path d="M50.8046 60.3316C50.4789 60.3316 50.1909 60.2551 49.944 60.1025C49.6972 59.9499 49.5052 59.7346 49.3715 59.4566C49.2377 59.1737 49.1692 58.8439 49.1692 58.4671C49.1692 58.0899 49.2377 57.7629 49.3715 57.4845C49.5052 57.2016 49.6972 56.9842 49.944 56.8317C50.1909 56.6791 50.4789 56.6026 50.8046 56.6026C51.1269 56.6026 51.4115 56.6791 51.6583 56.8317C51.9052 56.9842 52.0972 57.2016 52.2309 57.4845C52.3646 57.7629 52.4332 58.0899 52.4332 58.4671C52.4332 58.8439 52.3646 59.1737 52.2309 59.4566C52.0972 59.7346 51.9052 59.9499 51.6583 60.1025C51.4115 60.2551 51.1269 60.3316 50.8046 60.3316ZM50.8046 57.1413C50.4789 57.1413 50.2217 57.2578 50.0366 57.4913C49.8549 57.7245 49.7623 58.0498 49.7623 58.4671C49.7623 58.8843 49.8549 59.2097 50.0366 59.4429C50.2217 59.6763 50.4789 59.7929 50.8046 59.7929C51.1338 59.7929 51.384 59.6763 51.5658 59.4429C51.7475 59.2053 51.84 58.8799 51.84 58.4671C51.84 58.0543 51.7475 57.7313 51.5658 57.4978C51.384 57.2602 51.1338 57.1413 50.8046 57.1413Z" fill="#415362"/>
<path d="M54.1921 60.3316C53.8321 60.3316 53.5475 60.2126 53.335 59.9746C53.1258 59.7322 53.0195 59.4003 53.0195 58.9786V56.6835H53.5853V58.8237C53.5853 59.1693 53.6469 59.425 53.7669 59.591C53.8938 59.7528 54.0824 59.8334 54.3395 59.8334C54.6207 59.8334 54.8435 59.7435 55.0047 59.5639C55.1658 59.3801 55.2481 59.1288 55.2481 58.8103V56.6835H55.8104V60.2506H55.2721V59.6729C55.1967 59.8443 55.0904 59.9856 54.9498 60.096C54.7475 60.253 54.4938 60.3316 54.1921 60.3316Z" fill="#415362"/>
<path d="M57.2536 60.2506H56.6879V56.6835H57.185L57.2056 57.3429C57.257 57.1526 57.3393 57.0045 57.449 56.8989C57.5965 56.7555 57.7953 56.6835 58.0524 56.6835H58.4022V57.2218H58.0593C57.881 57.2218 57.7302 57.2554 57.6102 57.323C57.4936 57.3857 57.401 57.4821 57.3393 57.6123C57.281 57.7423 57.2536 57.9041 57.2536 58.0971V60.2506Z" fill="#415362"/>
<path d="M62.4034 60.2506H61.8377C61.5154 60.2506 61.2754 60.1766 61.1177 60.0285C60.9668 59.8807 60.8914 59.6496 60.8914 59.3352V57.1817H60.3668V56.6836H60.8914V55.849H61.4537V56.6836H62.4034V57.1817H61.4537V59.3218C61.4537 59.4789 61.488 59.591 61.5566 59.6585C61.6286 59.7209 61.7383 59.7528 61.8926 59.7528H62.4034V60.2506Z" fill="#415362"/>
<path d="M63.5828 60.2506H63.0171V56.6835H63.5176L63.5348 57.3425C63.5897 57.1522 63.6685 57.0041 63.7782 56.8989C63.9257 56.7555 64.1279 56.6835 64.3851 56.6835H64.7348V57.2218H64.392C64.2102 57.2218 64.0628 57.2554 63.9394 57.323C63.8228 57.3857 63.7336 57.4821 63.6719 57.6123C63.6136 57.7423 63.5828 57.9041 63.5828 58.0971V60.2506Z" fill="#415362"/>
<path d="M66.5554 60.3316C66.1954 60.3316 65.9108 60.2126 65.7017 59.9746C65.4891 59.7322 65.3862 59.4003 65.3862 58.9786V56.6835H65.952V58.8237C65.952 59.1693 66.0102 59.425 66.1302 59.591C66.2571 59.7528 66.4491 59.8334 66.7028 59.8334C66.9874 59.8334 67.2068 59.7435 67.368 59.5639C67.5325 59.3801 67.6114 59.1288 67.6114 58.8103V56.6835H68.1771V60.2506H67.6388V59.6733C67.56 59.8443 67.4537 59.9856 67.3165 60.096C67.1142 60.253 66.8605 60.3316 66.5554 60.3316Z" fill="#415362"/>
<path d="M70.2718 60.3316C69.9633 60.3316 69.6924 60.2822 69.4661 60.1834C69.2399 60.0802 69.065 59.939 68.9416 59.7593C68.8181 59.5752 68.7496 59.3643 68.7324 59.1267L69.3221 59.0863C69.3598 59.3105 69.4524 59.4857 69.6067 59.6115C69.7576 59.7322 69.9804 59.7929 70.2718 59.7929C70.5221 59.7929 70.7176 59.7528 70.8582 59.6719C71.0022 59.591 71.0742 59.4655 71.0742 59.2951C71.0742 59.1964 71.0467 59.1178 70.9987 59.0596C70.9541 58.9965 70.865 58.9426 70.7381 58.8981C70.6113 58.8487 70.4193 58.8014 70.1656 58.7565C69.8296 58.6982 69.5622 58.6217 69.3633 58.5278C69.1679 58.4335 69.0273 58.3193 68.9416 58.1842C68.8593 58.0498 68.8181 57.8859 68.8181 57.6929C68.8181 57.3699 68.9381 57.1077 69.1747 56.9057C69.4147 56.7038 69.7439 56.6026 70.1656 56.6026C70.577 56.6026 70.9061 56.7106 71.1461 56.9256C71.3896 57.1413 71.5404 57.4149 71.5987 57.7468L71.0056 57.7872C70.9644 57.5901 70.8719 57.4327 70.7244 57.3161C70.5804 57.1995 70.3919 57.1413 70.1587 57.1413C69.9119 57.1413 69.7267 57.1906 69.5999 57.2894C69.473 57.3833 69.4113 57.5091 69.4113 57.6662C69.4113 57.7827 69.4387 57.8794 69.4936 57.9555C69.5518 58.0272 69.641 58.0879 69.761 58.1373C69.881 58.1822 70.0524 58.2223 70.2718 58.2586C70.6353 58.3214 70.9164 58.3975 71.1119 58.4873C71.3142 58.5723 71.4547 58.68 71.537 58.8103C71.6227 58.9361 71.6639 59.0973 71.6639 59.2951C71.6639 59.6181 71.5336 59.8714 71.2661 60.0555C71.009 60.2393 70.6764 60.3316 70.2718 60.3316Z" fill="#415362"/>
<path d="M73.9851 60.2506H73.4194C73.0971 60.2506 72.8571 60.1766 72.6994 60.0285C72.5485 59.8807 72.4731 59.6496 72.4731 59.3352V57.1817H71.9485V56.6836H72.4731V55.849H73.0354V56.6836H73.9851V57.1817H73.0354V59.3218C73.0354 59.4789 73.0696 59.591 73.1382 59.6585C73.2102 59.7209 73.3234 59.7528 73.4742 59.7528H73.9851V60.2506Z" fill="#415362"/>
<path d="M75.8812 60.3316C75.5487 60.3316 75.2607 60.2551 75.0138 60.1025C74.767 59.9499 74.5784 59.7346 74.4413 59.4566C74.311 59.1737 74.2458 58.8439 74.2458 58.4671C74.2458 58.0944 74.311 57.767 74.4413 57.4845C74.5784 57.2016 74.7636 56.9842 75.007 56.8317C75.2504 56.6791 75.5315 56.6026 75.8538 56.6026C76.1624 56.6026 76.4367 56.6767 76.6767 56.8248C76.9133 56.9685 77.0984 57.1817 77.2287 57.4642C77.3624 57.7467 77.4275 58.0834 77.4275 58.4739V58.6423H74.839C74.8561 59.0191 74.9556 59.3061 75.1338 59.5035C75.319 59.6966 75.5692 59.7929 75.8812 59.7929C76.111 59.7929 76.2995 59.7415 76.447 59.6383C76.5978 59.5306 76.7076 59.3825 76.7693 59.1939L77.3761 59.2409C77.2801 59.5687 77.0984 59.8334 76.831 60.0353C76.567 60.2328 76.2481 60.3316 75.8812 60.3316ZM75.8538 57.1413C75.5761 57.1413 75.3464 57.2263 75.1681 57.397C74.9933 57.5674 74.8836 57.8164 74.839 58.1441H76.8104C76.783 57.8119 76.6836 57.563 76.5156 57.397C76.3476 57.2263 76.1281 57.1413 75.8538 57.1413Z" fill="#415362"/>
<path d="M79.3372 60.3316C79.0321 60.3316 78.7646 60.2551 78.5349 60.1025C78.3052 59.95 78.1303 59.7347 78.0103 59.4566C77.8903 59.1737 77.8286 58.8439 77.8286 58.4671C77.8286 58.09 77.8903 57.7629 78.0103 57.4845C78.1303 57.2016 78.3052 56.9843 78.5349 56.8317C78.7646 56.6791 79.0321 56.6026 79.3372 56.6026C79.5772 56.6026 79.7966 56.6544 79.9886 56.7576C80.1841 56.8608 80.3349 57.0021 80.4309 57.1817V55.4719H80.9966V60.2506H80.4858L80.4652 59.7124C80.3657 59.9054 80.2183 60.0576 80.016 60.1697C79.8138 60.2774 79.5875 60.3316 79.3372 60.3316ZM79.4503 57.1413C79.1349 57.1413 78.8846 57.2603 78.6961 57.4979C78.5143 57.7313 78.4217 58.0543 78.4217 58.4671C78.4217 58.8754 78.5143 59.1988 78.6961 59.4364C78.8846 59.6743 79.1349 59.7929 79.4503 59.7929C79.656 59.7929 79.8343 59.7391 79.9818 59.6314C80.1292 59.5238 80.2423 59.3712 80.3178 59.1737C80.3932 58.9766 80.4309 58.7407 80.4309 58.4671C80.4309 58.1935 80.3932 57.958 80.3178 57.7605C80.2423 57.5585 80.1292 57.406 79.9818 57.3028C79.8378 57.1951 79.6595 57.1413 79.4503 57.1413Z" fill="#415362"/>
<path d="M84.4525 60.2506H84.0548C83.8354 60.2506 83.664 60.1968 83.5371 60.0892C83.4102 59.9767 83.3485 59.8066 83.3485 59.5776L83.3554 55.4719H83.9211V59.5307C83.9211 59.6023 83.9383 59.6585 83.976 59.6987C84.0137 59.7347 84.072 59.7528 84.144 59.7528H84.4525V60.2506Z" fill="#415362"/>
<path d="M86.4068 60.3316C86.0777 60.3316 85.7897 60.2551 85.5462 60.1025C85.2994 59.9499 85.1074 59.7346 84.9736 59.4566C84.8399 59.1737 84.7714 58.8439 84.7714 58.4671C84.7714 58.0899 84.8399 57.7629 84.9736 57.4845C85.1074 57.2016 85.2994 56.9842 85.5462 56.8317C85.7897 56.6791 86.0777 56.6026 86.4068 56.6026C86.7291 56.6026 87.0137 56.6791 87.2605 56.8317C87.5074 56.9842 87.696 57.2016 87.8331 57.4845C87.9668 57.7629 88.0319 58.0899 88.0319 58.4671C88.0319 58.8439 87.9668 59.1737 87.8331 59.4566C87.696 59.7346 87.5074 59.9499 87.2605 60.1025C87.0137 60.2551 86.7291 60.3316 86.4068 60.3316ZM86.4068 57.1413C86.0777 57.1413 85.8239 57.2578 85.6388 57.4913C85.4537 57.7245 85.3645 58.0498 85.3645 58.4671C85.3645 58.8843 85.4537 59.2097 85.6388 59.4429C85.8239 59.6763 86.0777 59.7929 86.4068 59.7929C86.7325 59.7929 86.9862 59.6763 87.1645 59.4429C87.3496 59.2053 87.4422 58.8799 87.4422 58.4671C87.4422 58.0543 87.3496 57.7313 87.1645 57.4978C86.9862 57.2602 86.7325 57.1413 86.4068 57.1413Z" fill="#415362"/>
<path d="M90.0651 60.3316C89.7394 60.3316 89.4514 60.2551 89.2045 60.1025C88.9577 59.9499 88.7691 59.7322 88.6354 59.4497C88.4982 59.1669 88.4331 58.8394 88.4331 58.4671C88.4331 58.0944 88.4982 57.767 88.6354 57.4845C88.7691 57.2016 88.9577 56.9842 89.2045 56.8317C89.4514 56.6791 89.7394 56.6026 90.0651 56.6026C90.3394 56.6026 90.5828 56.652 90.792 56.7507C91.008 56.845 91.1828 56.9863 91.3165 57.1749C91.4536 57.3586 91.5394 57.5812 91.5805 57.8414L90.9874 57.8815C90.9462 57.6483 90.8434 57.4663 90.6788 57.3364C90.5177 57.2064 90.3119 57.1413 90.0651 57.1413C89.7394 57.1413 89.4822 57.2578 89.3005 57.4913C89.1154 57.7245 89.0228 58.0498 89.0228 58.4671C89.0228 58.8843 89.1154 59.2097 89.3005 59.4429C89.4822 59.6763 89.7394 59.7929 90.0651 59.7929C90.3119 59.7929 90.5177 59.7257 90.6788 59.591C90.8434 59.4518 90.9462 59.2502 90.9874 58.9852L91.5805 59.0256C91.5394 59.2903 91.4536 59.5217 91.3165 59.7189C91.1828 59.9119 91.008 60.0624 90.792 60.1697C90.576 60.2774 90.3359 60.3316 90.0651 60.3316Z" fill="#415362"/>
<path d="M93.1441 60.3316C92.7738 60.3316 92.4789 60.2462 92.2629 60.0758C92.0504 59.9054 91.9407 59.6674 91.9407 59.3623C91.9407 59.0571 92.0298 58.8172 92.2115 58.6423C92.3898 58.4671 92.6744 58.3437 93.0652 58.272L94.3304 58.0365C94.3304 57.7358 94.2584 57.5112 94.1144 57.3634C93.9738 57.215 93.7647 57.1413 93.4835 57.1413C93.2401 57.1413 93.0446 57.1951 92.8972 57.3027C92.7532 57.4104 92.6538 57.5698 92.6024 57.7807L92.0024 57.7334C92.0709 57.3881 92.2321 57.1142 92.4927 56.9122C92.7567 56.7062 93.0858 56.6026 93.4835 56.6026C93.9361 56.6026 94.2824 56.7305 94.5258 56.9863C94.7726 57.2421 94.8961 57.599 94.8961 58.0563V59.5306C94.8961 59.6116 94.9064 59.6695 94.9338 59.7055C94.9647 59.737 95.0161 59.7528 95.0812 59.7528H95.2252V60.2506C95.1978 60.2551 95.1669 60.2575 95.1292 60.2575C95.0949 60.262 95.0538 60.264 95.0092 60.264C94.7624 60.264 94.5875 60.2061 94.4846 60.0891C94.4058 60.0021 94.3578 59.8725 94.3407 59.7C94.2687 59.8536 94.1452 59.9877 93.9669 60.1025C93.7235 60.2551 93.4492 60.3316 93.1441 60.3316ZM94.3304 58.5278L93.1715 58.7431C92.9384 58.7835 92.7738 58.8508 92.6744 58.945C92.5818 59.0345 92.5338 59.1559 92.5338 59.3081C92.5338 59.4744 92.5921 59.6047 92.7087 59.6986C92.8252 59.7888 92.9898 59.8334 93.1989 59.8334C93.4321 59.8334 93.6344 59.7888 93.8058 59.6986C93.9738 59.6047 94.1041 59.4789 94.1932 59.3218C94.2858 59.1604 94.3304 58.9807 94.3304 58.7836V58.5278Z" fill="#415362"/>
<path d="M96.8364 60.2506H96.4387C96.2193 60.2506 96.0444 60.1968 95.921 60.0892C95.7942 59.9767 95.7324 59.8066 95.7324 59.5776L95.7393 55.4719H96.305V59.5307C96.305 59.6023 96.3222 59.6585 96.3564 59.6987C96.3976 59.7347 96.4524 59.7528 96.5244 59.7528H96.8364V60.2506Z" fill="#415362"/>
<path d="M99.4869 61.2604H98.9211V56.6836H99.4457L99.456 57.2236C99.5417 57.0525 99.6617 56.915 99.816 56.8114C100.029 56.6722 100.272 56.6026 100.55 56.6026C100.889 56.6026 101.174 56.6877 101.403 56.8584C101.637 57.0244 101.808 57.2489 101.921 57.5314C102.034 57.8143 102.089 58.1259 102.089 58.4671C102.089 58.8082 102.034 59.1199 101.921 59.4027C101.808 59.6853 101.637 59.9119 101.403 60.0823C101.174 60.2482 100.889 60.3316 100.55 60.3316C100.365 60.3316 100.193 60.3 100.032 60.2373C99.8743 60.1745 99.7405 60.0871 99.6274 59.9746C99.5725 59.914 99.5246 59.8485 99.4869 59.7789V61.2604ZM100.495 57.1413C100.289 57.1413 100.111 57.1927 99.9566 57.2962C99.8057 57.3946 99.6891 57.5427 99.6069 57.7402C99.528 57.9377 99.4869 58.1801 99.4869 58.4671C99.4869 58.7544 99.528 58.9965 99.6069 59.1939C99.6891 59.3914 99.8023 59.5416 99.9497 59.6448C100.104 59.7435 100.286 59.7929 100.495 59.7929C100.807 59.7929 101.05 59.6763 101.229 59.4429C101.407 59.2097 101.499 58.8843 101.499 58.4671C101.499 58.0498 101.407 57.7245 101.229 57.4913C101.05 57.2578 100.807 57.1413 100.495 57.1413Z" fill="#415362"/>
<path d="M103.721 60.3316C103.351 60.3316 103.056 60.2462 102.84 60.0758C102.628 59.9054 102.518 59.6674 102.518 59.3623C102.518 59.0571 102.607 58.8172 102.789 58.6423C102.967 58.4671 103.252 58.3437 103.642 58.272L104.908 58.0365C104.908 57.7358 104.836 57.5112 104.692 57.3634C104.551 57.215 104.342 57.1413 104.057 57.1413C103.817 57.1413 103.622 57.1951 103.474 57.3027C103.33 57.4104 103.231 57.5698 103.176 57.7807L102.58 57.7334C102.645 57.3881 102.809 57.1142 103.07 56.9122C103.334 56.7062 103.663 56.6026 104.057 56.6026C104.513 56.6026 104.86 56.7305 105.1 56.9863C105.346 57.2421 105.47 57.599 105.47 58.0563V59.5306C105.47 59.6116 105.484 59.6695 105.511 59.7055C105.542 59.737 105.593 59.7528 105.658 59.7528H105.802V60.2506C105.775 60.2551 105.744 60.2575 105.706 60.2575C105.672 60.262 105.631 60.264 105.586 60.264C105.34 60.264 105.165 60.2061 105.062 60.0891C104.983 60.0021 104.935 59.8725 104.914 59.7C104.846 59.8536 104.719 59.9877 104.544 60.1025C104.301 60.2551 104.026 60.3316 103.721 60.3316ZM104.908 58.5278L103.749 58.7431C103.516 58.7835 103.351 58.8508 103.252 58.945C103.159 59.0345 103.111 59.1559 103.111 59.3081C103.111 59.4744 103.169 59.6047 103.286 59.6986C103.402 59.7888 103.567 59.8334 103.776 59.8334C104.009 59.8334 104.212 59.7888 104.383 59.6986C104.551 59.6047 104.681 59.4789 104.77 59.3218C104.863 59.1604 104.908 58.9807 104.908 58.7836V58.5278Z" fill="#415362"/>
<path d="M106.906 60.2506H106.341V56.6835H106.838L106.858 57.3422C106.913 57.1519 106.992 57.0041 107.102 56.8989C107.249 56.7555 107.451 56.6835 107.709 56.6835H108.058V57.2218H107.715C107.534 57.2218 107.383 57.2554 107.263 57.323C107.146 57.3857 107.057 57.4821 106.995 57.6123C106.937 57.7423 106.906 57.9041 106.906 58.0971V60.2506Z" fill="#415362"/>
<path d="M110.479 60.2506H109.916C109.591 60.2506 109.351 60.1766 109.196 60.0285C109.042 59.8807 108.967 59.6496 108.967 59.3352V57.1817H108.442V56.6836H108.967V55.849H109.532V56.6836H110.479V57.1817H109.532V59.3218C109.532 59.4789 109.563 59.591 109.632 59.6585C109.704 59.7209 109.817 59.7528 109.968 59.7528H110.479V60.2506Z" fill="#415362"/>
<path d="M113.928 60.2506H113.362V58.117C113.362 57.7807 113.301 57.527 113.181 57.3566C113.057 57.1862 112.865 57.1008 112.601 57.1008C112.32 57.1008 112.09 57.1906 111.916 57.37C111.744 57.5448 111.658 57.7941 111.658 58.117V60.2506H111.096V56.6836H111.614L111.627 57.3151C111.699 57.1145 111.816 56.9558 111.97 56.8382C112.179 56.6811 112.43 56.6026 112.721 56.6026C113.112 56.6026 113.41 56.7285 113.616 56.9798C113.822 57.2311 113.928 57.5561 113.928 57.9555V60.2506Z" fill="#415362"/>
<path d="M116.115 60.3316C115.783 60.3316 115.495 60.2551 115.248 60.1025C115.001 59.9499 114.809 59.7346 114.675 59.4566C114.545 59.1737 114.48 58.8439 114.48 58.4671C114.48 58.0944 114.545 57.767 114.675 57.4845C114.809 57.2016 114.998 56.9842 115.241 56.8317C115.485 56.6791 115.766 56.6026 116.088 56.6026C116.397 56.6026 116.671 56.6767 116.911 56.8248C117.147 56.9685 117.329 57.1817 117.459 57.4642C117.597 57.7467 117.662 58.0834 117.662 58.4739V58.6423H115.073C115.09 59.0191 115.19 59.3061 115.368 59.5035C115.553 59.6966 115.8 59.7929 116.115 59.7929C116.345 59.7929 116.534 59.7415 116.681 59.6383C116.832 59.5306 116.942 59.3825 117.003 59.1939L117.61 59.2409C117.514 59.5687 117.333 59.8334 117.065 60.0353C116.798 60.2328 116.482 60.3316 116.115 60.3316ZM116.088 57.1413C115.81 57.1413 115.581 57.2263 115.402 57.397C115.227 57.5674 115.118 57.8164 115.073 58.1441H117.045C117.017 57.8119 116.918 57.563 116.746 57.397C116.582 57.2263 116.362 57.1413 116.088 57.1413Z" fill="#415362"/>
<path d="M118.851 60.2506H118.286V56.6835H118.783L118.803 57.3425C118.855 57.1522 118.937 57.0041 119.043 56.8989C119.194 56.7555 119.393 56.6835 119.65 56.6835H120V57.2218H119.657C119.479 57.2218 119.328 57.2554 119.205 57.323C119.088 57.3857 118.999 57.4821 118.937 57.6123C118.879 57.7423 118.851 57.9041 118.851 58.0971V60.2506Z" fill="#415362"/>
</svg>
