<svg preserveAspectRatio="xMidYMid meet" viewBox="0 0 240 123" fill="none" xmlns="http://www.w3.org/2000/svg">
<g clip-path="url(#clip0_2027_363)">
<path d="M48.384 0C52.3063 0 55.488 3.1783 55.488 7.09853V17.1154C55.488 17.4919 55.0423 17.6976 54.7543 17.4549L49.9063 13.3872C49.5017 13.0498 49.2686 12.552 49.2686 12.0274V7.98516C49.2686 7.00527 48.4732 6.21121 47.4926 6.21121H23.1154C22.6971 6.21121 22.2926 6.35796 21.9703 6.62607L6.85028 19.309C6.44571 19.6457 6.21261 20.1436 6.21261 20.6681V50.7957C6.21261 51.7756 7.00802 52.5703 7.98859 52.5703H48.384C48.8709 52.5703 49.2686 52.1726 49.2686 51.683V32.7662C49.2686 32.5036 49.152 32.2546 48.9532 32.086L36.0823 21.2914C35.7531 21.0144 35.2663 21.0144 34.9371 21.2914L22.0663 32.086C21.8675 32.2546 21.7508 32.5036 21.7508 32.7662V48.0885C21.7508 48.5781 21.3532 48.9758 20.8595 48.9758H16.4228C15.936 48.9758 15.5383 48.5781 15.5383 48.0885V30.2839C15.5383 29.7586 15.7645 29.2615 16.1691 28.9241L34.368 13.6622C35.0263 13.1088 35.9931 13.1088 36.6514 13.6622L55.1657 29.1902C55.3714 29.3589 55.488 29.6078 55.488 29.8697V51.683C55.488 55.6032 52.3063 58.7808 48.384 58.7808H3.53831C1.58402 58.7808 0 57.1961 0 55.2418V6.21121C0 2.78058 2.78404 0 6.21261 0V11.7333L19.2137 0.830399C19.8514 0.29417 20.6606 0 21.4971 0H48.384Z" fill="#005AA3"/>
<path d="M39.0583 35.6667C39.552 35.6667 39.9498 36.0638 39.9498 36.5541V48.0885C39.9498 48.5781 39.552 48.9758 39.0583 48.9758H31.9612C31.4675 48.9758 31.0698 48.5781 31.0698 48.0885V36.5541C31.0698 36.0638 31.4675 35.6667 31.9612 35.6667H39.0583Z" fill="#005AA3"/>
<path d="M233.863 43.5984C233.739 41.6599 233.184 40.1986 232.203 39.214C231.216 38.1991 229.906 37.691 228.281 37.691C226.677 37.691 225.353 38.1991 224.311 39.214C223.296 40.2295 222.679 41.6907 222.466 43.5984H233.863ZM228.418 58.7808C225.984 58.7808 223.865 58.2576 222.048 57.2119C220.231 56.1353 218.818 54.6274 217.803 52.6896C216.816 50.7511 216.329 48.4896 216.329 45.9058C216.329 43.3522 216.816 41.1059 217.803 39.168C218.818 37.1987 220.217 35.6915 222 34.6457C223.817 33.5685 225.909 33.0302 228.281 33.0302C230.619 33.0302 232.663 33.5534 234.418 34.5991C236.201 35.6455 237.573 37.1685 238.526 39.168C239.506 41.1676 240 43.5209 240 46.2288V47.5667H222.466C222.555 49.6896 223.125 51.3045 224.174 52.4126C225.25 53.52 226.677 54.0741 228.459 54.0741C229.783 54.0741 230.88 53.7813 231.737 53.1971C232.601 52.6121 233.218 51.766 233.589 50.6585L239.63 51.0281C238.985 53.4281 237.662 55.32 235.659 56.7045C233.664 58.0889 231.25 58.7808 228.418 58.7808Z" fill="#26374D"/>
<path d="M210.898 58.2267C209.019 58.2267 207.559 57.7652 206.51 56.843C205.467 55.8891 204.946 54.4121 204.946 52.4126L204.987 25.4619H210.898V51.8126C210.898 52.4276 211.049 52.8892 211.358 53.197C211.666 53.5042 212.126 53.6585 212.743 53.6585H214.539V58.2267H210.898Z" fill="#26374D"/>
<path d="M189.71 53.9815C191.397 53.9815 192.754 53.2738 193.769 51.8585C194.784 50.4123 195.291 48.4285 195.291 45.9058C195.291 43.3824 194.784 41.4137 193.769 39.9984C192.782 38.5529 191.444 37.8295 189.751 37.8295C188.489 37.8295 187.399 38.1525 186.473 38.7984C185.582 39.4142 184.889 40.3371 184.402 41.5673C183.936 42.7673 183.71 44.2135 183.71 45.9058C183.71 47.5666 183.936 49.0128 184.402 50.2437C184.889 51.443 185.582 52.3666 186.473 53.0126C187.371 53.6585 188.448 53.9815 189.71 53.9815ZM191.047 58.7808C189.353 58.7808 187.858 58.4119 186.569 57.6734C185.273 56.9348 184.279 55.9042 183.566 54.5815L183.429 58.2267H177.799V25.4619H183.71V37.091C184.382 35.8916 185.369 34.9221 186.658 34.1842C187.982 33.4149 189.442 33.0302 191.047 33.0302C193.138 33.0302 194.969 33.5685 196.539 34.6457C198.103 35.6914 199.303 37.1835 200.139 39.1214C200.997 41.0599 201.429 43.3213 201.429 45.9058C201.429 48.4896 200.997 50.7511 200.139 52.6896C199.303 54.6274 198.103 56.1353 196.539 57.2119C194.969 58.2576 193.138 58.7808 191.047 58.7808Z" fill="#26374D"/>
<path d="M160.046 54.4889C161.369 54.4889 162.507 54.2277 163.46 53.7045C164.42 53.1813 165.154 52.4585 165.675 51.5356C166.203 50.5817 166.464 49.4894 166.464 48.2592V46.8748L160.094 48.1667C158.804 48.4128 157.865 48.8126 157.282 49.3667C156.692 49.9207 156.404 50.6283 156.404 51.4896C156.404 52.4434 156.713 53.1813 157.323 53.7045C157.975 54.2277 158.88 54.4889 160.046 54.4889ZM158.846 58.7808C156.233 58.7808 154.142 58.1966 152.571 57.0275C151.035 55.8275 150.267 54.1659 150.267 52.043C150.267 49.9509 150.912 48.3052 152.201 47.1052C153.524 45.9058 155.554 45.0288 158.297 44.4748L166.464 42.8599C166.464 41.1059 166.066 39.7989 165.264 38.9369C164.462 38.0448 163.296 37.5991 161.753 37.5991C160.34 37.5991 159.216 37.9221 158.386 38.568C157.556 39.214 157.001 40.1678 156.727 41.4288L150.679 41.1525C151.145 38.5372 152.324 36.5376 154.231 35.1532C156.171 33.7378 158.681 33.0302 161.753 33.0302C165.23 33.0302 167.863 33.9072 169.646 35.6606C171.463 37.414 172.368 39.9525 172.368 43.2748V52.2281C172.368 52.8741 172.478 53.3198 172.69 53.566C172.937 53.8121 173.294 53.9356 173.753 53.9356H174.542V58.2268C174.322 58.2885 174.014 58.3351 173.616 58.3653C173.218 58.3961 172.814 58.4119 172.416 58.4119C170.722 58.4119 169.419 57.9964 168.494 57.166C167.602 56.3349 167.156 54.9045 167.156 52.8741L167.664 53.243C167.294 54.8736 166.292 56.2121 164.66 57.2579C163.063 58.2734 161.122 58.7808 158.846 58.7808Z" fill="#26374D"/>
<path d="M140.503 25.0464H146.64V30.3072H140.503V25.0464ZM140.592 33.5842H146.503V58.2267H140.592V33.5842Z" fill="#26374D"/>
<path d="M133.467 58.2267C131.589 58.2267 130.128 57.7652 129.079 56.843C128.037 55.8891 127.515 54.4121 127.515 52.4126L127.557 25.4619H133.467V51.8126C133.467 52.4276 133.618 52.8892 133.927 53.197C134.235 53.5042 134.695 53.6585 135.312 53.6585H137.109V58.2267H133.467Z" fill="#26374D"/>
<path d="M117.874 43.5984C117.751 41.6599 117.195 40.1986 116.215 39.214C115.227 38.1991 113.925 37.691 112.293 37.691C110.695 37.691 109.371 38.1991 108.322 39.214C107.307 40.2295 106.69 41.6907 106.478 43.5984H117.874ZM112.43 58.7808C110.002 58.7808 107.877 58.2576 106.059 57.2119C104.249 56.1353 102.83 54.6274 101.815 52.6896C100.834 50.7511 100.341 48.4896 100.341 45.9058C100.341 43.3522 100.834 41.1059 101.815 39.168C102.83 37.1987 104.229 35.6915 106.018 34.6457C107.829 33.5685 109.92 33.0302 112.293 33.0302C114.631 33.0302 116.674 33.5534 118.43 34.5991C120.213 35.6455 121.584 37.1685 122.537 39.168C123.518 41.1676 124.011 43.5209 124.011 46.2288V47.5667H106.478C106.567 49.6896 107.136 51.3045 108.185 52.4126C109.262 53.52 110.695 54.0741 112.478 54.0741C113.801 54.0741 114.892 53.7813 115.756 53.1971C116.613 52.6121 117.23 51.766 117.6 50.6585L123.641 51.0281C122.997 53.4281 121.673 55.32 119.678 56.7045C117.675 58.0889 115.262 58.7808 112.43 58.7808Z" fill="#26374D"/>
<path d="M85.8994 40.5984C87.6823 40.5984 89.0812 40.1678 90.096 39.3065C91.1452 38.4453 91.6663 37.2295 91.6663 35.6606C91.6663 34.0608 91.1452 32.8299 90.096 31.9687C89.0537 31.1074 87.5589 30.6768 85.6251 30.6768H78.5623V40.5984H85.8994ZM72.5623 25.4619H86.2698C88.608 25.4619 90.6377 25.8617 92.3588 26.6619C94.1143 27.4615 95.4651 28.6155 96.4183 30.1227C97.3714 31.5998 97.8514 33.3223 97.8514 35.2917C97.8514 36.768 97.5292 38.0914 96.8846 39.2606C96.2332 40.429 95.3623 41.3828 94.2514 42.1214C93.1748 42.829 91.9748 43.2597 90.6514 43.4133L90.4183 42.9518C92.544 42.9518 94.176 43.429 95.3143 44.3829C96.4526 45.3367 97.1109 46.798 97.296 48.7666L98.1257 58.2267H92.0366L91.344 49.6437C91.2548 48.3209 90.8228 47.3671 90.0548 46.7822C89.3143 46.1671 88.1006 45.8592 86.4069 45.8592H78.5623V58.2267H72.5623V25.4619Z" fill="#26374D"/>
<path d="M229.426 100.596C227.06 100.596 225.031 100.257 223.337 99.5801C221.678 98.8725 220.388 97.8878 219.463 96.6268C218.571 95.3657 218.064 93.9196 217.94 92.2889L223.988 92.0119C224.201 93.3353 224.743 94.3502 225.6 95.0579C226.491 95.7347 227.767 96.0734 229.426 96.0734C230.846 96.0734 231.936 95.8574 232.711 95.4268C233.479 94.9653 233.863 94.2576 233.863 93.3038C233.863 92.7504 233.726 92.2889 233.451 91.9193C233.17 91.5504 232.649 91.2274 231.874 90.9504C231.106 90.6734 229.968 90.397 228.466 90.12C225.936 89.6894 223.954 89.1655 222.507 88.5504C221.095 87.9045 220.08 87.12 219.463 86.1971C218.846 85.2432 218.537 84.0432 218.537 82.5971C218.537 80.2588 219.435 78.382 221.218 76.9673C223.028 75.552 225.614 74.8444 228.974 74.8444C232.169 74.8444 234.658 75.6137 236.448 77.1518C238.258 78.6597 239.355 80.6592 239.719 83.1511L233.726 83.4281C233.506 82.1362 232.985 81.1358 232.155 80.4281C231.326 79.7212 230.249 79.3667 228.919 79.3667C227.54 79.3667 226.478 79.6437 225.737 80.1977C225.031 80.7511 224.681 81.4896 224.681 82.4126C224.681 83.0592 224.832 83.5975 225.14 84.0281C225.476 84.4588 225.998 84.8126 226.711 85.0896C227.417 85.3351 228.411 85.5662 229.707 85.7822C232.292 86.182 234.322 86.7045 235.803 87.3511C237.305 87.9662 238.382 88.7507 239.033 89.7045C239.678 90.6275 240 91.7959 240 93.2119C240 95.5502 239.033 97.3653 237.092 98.6572C235.186 99.9497 232.628 100.596 229.426 100.596Z" fill="#26374D"/>
<path d="M193.529 75.3984H198.885L199.118 82.3207L198.425 82.0437C198.795 79.582 199.687 77.7675 201.099 76.5984C202.519 75.4286 204.288 74.8444 206.407 74.8444C209.054 74.8444 211.118 75.6905 212.592 77.3822C214.066 79.0745 214.807 81.3511 214.807 84.2126V100.042H208.903V86.1045C208.903 83.9205 208.56 82.3049 207.888 81.2592C207.237 80.1826 206.146 79.6437 204.61 79.6437C203.006 79.6437 201.744 80.2135 200.825 81.3511C199.899 82.4592 199.44 84.0432 199.44 86.1045V100.042H193.529V75.3984Z" fill="#26374D"/>
<path d="M178.046 95.7964C179.952 95.7964 181.426 95.0887 182.475 93.6734C183.518 92.2581 184.046 90.2736 184.046 87.72C184.046 85.1973 183.518 83.2279 182.475 81.8126C181.426 80.3671 179.952 79.6437 178.046 79.6437C176.139 79.6437 174.658 80.3514 173.616 81.7667C172.567 83.182 172.046 85.1664 172.046 87.72C172.046 90.2736 172.567 92.2581 173.616 93.6734C174.658 95.0887 176.139 95.7964 178.046 95.7964ZM178.046 100.596C175.611 100.596 173.492 100.072 171.675 99.0268C169.858 97.9495 168.446 96.4423 167.431 94.5038C166.416 92.5659 165.908 90.3045 165.908 87.72C165.908 85.1355 166.416 82.8741 167.431 80.9356C168.446 78.9977 169.858 77.5056 171.675 76.4599C173.492 75.3827 175.611 74.8444 178.046 74.8444C180.446 74.8444 182.551 75.3827 184.368 76.4599C186.212 77.5056 187.625 78.9977 188.613 80.9356C189.627 82.8741 190.135 85.1355 190.135 87.72C190.135 90.3045 189.627 92.5659 188.613 94.5038C187.625 96.4423 186.212 97.9495 184.368 99.0268C182.551 100.072 180.446 100.596 178.046 100.596Z" fill="#26374D"/>
<path d="M156.281 66.8606H162.418V72.1214H156.281V66.8606ZM156.37 75.3984H162.281V100.042H156.37V75.3984Z" fill="#26374D"/>
<path d="M136.772 75.3984H153.065V79.9667H136.772V75.3984ZM147.799 100.042C145.344 100.042 143.527 99.4725 142.354 98.3342C141.216 97.1959 140.647 95.4117 140.647 92.9808V69.6295H146.558V92.4275C146.558 93.5349 146.784 94.3193 147.25 94.7808C147.737 95.2423 148.526 95.4734 149.602 95.4734H153.065V100.042H147.799Z" fill="#26374D"/>
<path d="M124.375 100.596C121.947 100.596 119.822 100.072 118.005 99.0268C116.194 97.9495 114.775 96.4423 113.76 94.5038C112.745 92.5351 112.238 90.2736 112.238 87.72C112.238 85.1664 112.745 82.9207 113.76 80.9822C114.775 79.0135 116.194 77.5056 118.005 76.4599C119.822 75.3827 121.947 74.8444 124.375 74.8444C126.466 74.8444 128.331 75.214 129.963 75.9518C131.623 76.6903 132.96 77.7676 133.975 79.1822C134.99 80.5666 135.621 82.2131 135.867 84.1207L129.778 84.443C129.531 82.9049 128.928 81.7207 127.975 80.8903C127.022 80.0592 125.822 79.6437 124.375 79.6437C122.469 79.6437 120.994 80.3514 119.945 81.7667C118.903 83.182 118.375 85.1664 118.375 87.72C118.375 90.2736 118.903 92.2581 119.945 93.6734C120.994 95.0887 122.469 95.7964 124.375 95.7964C125.856 95.7964 127.07 95.3808 128.023 94.5497C128.976 93.6885 129.559 92.3966 129.778 90.6734L135.867 90.9504C135.655 92.9198 135.038 94.6272 134.023 96.0734C133.008 97.5189 131.671 98.6421 130.005 99.4416C128.345 100.211 126.466 100.596 124.375 100.596Z" fill="#26374D"/>
<path d="M104.03 85.4126C103.906 83.4741 103.351 82.0128 102.37 81.0281C101.383 80.0133 100.073 79.5058 98.448 79.5058C96.8435 79.5058 95.5201 80.0133 94.4778 81.0281C93.463 82.0437 92.8458 83.5049 92.6332 85.4126H104.03ZM98.5852 100.596C96.151 100.596 94.0321 100.072 92.2149 99.0268C90.3978 97.9495 88.9853 96.4423 87.9704 94.5038C86.983 92.5659 86.4961 90.3045 86.4961 87.72C86.4961 85.1664 86.983 82.9207 87.9704 80.9822C88.9853 79.0135 90.3841 77.5056 92.167 76.4599C93.9841 75.3827 96.0755 74.8444 98.448 74.8444C100.786 74.8444 102.83 75.3676 104.585 76.4133C106.368 77.4597 107.74 78.982 108.693 80.9822C109.673 82.9817 110.167 85.3351 110.167 88.043V89.3815H92.6332C92.7223 91.5038 93.2915 93.1193 94.3406 94.2268C95.4172 95.3342 96.8435 95.8883 98.6332 95.8883C99.9498 95.8883 101.047 95.5961 101.904 95.0112C102.768 94.427 103.385 93.5808 103.756 92.4734L109.797 92.8423C109.152 95.2423 107.829 97.1342 105.826 98.5193C103.831 99.9031 101.417 100.596 98.5852 100.596Z" fill="#26374D"/>
<path d="M72.5006 95.7964C74.2835 95.7964 75.6823 95.0887 76.6972 93.6734C77.7463 92.2272 78.2675 90.2427 78.2675 87.72C78.2675 85.1973 77.7463 83.2279 76.6972 81.8126C75.6823 80.3671 74.2835 79.6437 72.5006 79.6437C71.3006 79.6437 70.2515 79.9516 69.3601 80.5667C68.5029 81.1824 67.8378 82.0896 67.3783 83.2896C66.9189 84.4896 66.6858 85.9666 66.6858 87.72C66.6858 89.4734 66.9189 90.9662 67.3783 92.1964C67.8378 93.3964 68.5029 94.3042 69.3601 94.9193C70.2241 95.5036 71.2663 95.7964 72.5006 95.7964ZM60.7749 75.3984H66.4526L66.5897 80.6592L65.9932 80.3822C66.576 78.598 67.5772 77.2286 68.9897 76.2754C70.4092 75.3209 72.0549 74.8444 73.9337 74.8444C76.176 74.8444 78.0824 75.4135 79.6526 76.5518C81.2504 77.6599 82.4366 79.198 83.2046 81.1667C84.0069 83.1052 84.4046 85.2898 84.4046 87.72C84.4046 90.1502 84.0069 92.3506 83.2046 94.3193C82.4366 96.2578 81.2504 97.7959 79.6526 98.9342C78.0824 100.042 76.1623 100.596 73.8858 100.596C72.6515 100.596 71.4994 100.38 70.4229 99.9497C69.3806 99.5184 68.4686 98.9033 67.7006 98.1038C66.96 97.2727 66.4389 96.3346 66.1303 95.2889L66.6858 94.8268V106.964H60.7749V75.3984Z" fill="#26374D"/>
<path d="M46.8549 100.596C44.4823 100.596 42.4526 100.257 40.7589 99.5801C39.0994 98.8725 37.8035 97.8878 36.8847 96.6268C35.9932 95.3657 35.4857 93.9196 35.3623 92.2889L41.4035 92.0119C41.6229 93.3353 42.1578 94.3502 43.0218 95.0579C43.9132 95.7347 45.1886 96.0734 46.8549 96.0734C48.2675 96.0734 49.3578 95.8574 50.1258 95.4268C50.9006 94.9653 51.2847 94.2576 51.2847 93.3038C51.2847 92.7504 51.1407 92.2889 50.8664 91.9193C50.5921 91.5504 50.0641 91.2274 49.2961 90.9504C48.5281 90.6734 47.3898 90.397 45.8812 90.12C43.3578 89.6894 41.376 89.1655 39.9292 88.5504C38.5166 87.9045 37.5018 87.12 36.8847 86.1971C36.2675 85.2432 35.9589 84.0432 35.9589 82.5971C35.9589 80.2588 36.8503 78.382 38.64 76.9673C40.4503 75.552 43.0355 74.8444 46.3886 74.8444C49.5909 74.8444 52.0801 75.6137 53.8698 77.1518C55.6801 78.6597 56.7772 80.6592 57.1406 83.1511L51.1406 83.4281C50.928 82.1362 50.4069 81.1358 49.5772 80.4281C48.7475 79.7212 47.664 79.3667 46.3475 79.3667C44.9623 79.3667 43.8994 79.6437 43.1589 80.1977C42.4526 80.7511 42.0961 81.4896 42.0961 82.4126C42.0961 83.0592 42.2537 83.5975 42.5623 84.0281C42.8983 84.4588 43.4195 84.8126 44.1326 85.0896C44.8389 85.3351 45.8332 85.5662 47.1292 85.7822C49.7143 86.182 51.744 86.7045 53.2183 87.3511C54.7269 87.9662 55.8034 88.7507 56.448 89.7045C57.0994 90.6275 57.4218 91.7959 57.4218 93.2119C57.4218 95.5502 56.4481 97.3653 54.5143 98.6572C52.6081 99.9497 50.0503 100.596 46.8549 100.596Z" fill="#26374D"/>
<path d="M10.9509 75.3984H16.3064L16.5395 82.3207L15.8469 82.0437C16.2172 79.582 17.1087 77.7675 18.5212 76.5984C19.9338 75.4286 21.7029 74.8444 23.8287 74.8444C26.4755 74.8444 28.5327 75.6905 30.0138 77.3822C31.4881 79.0745 32.2287 81.3511 32.2287 84.2126V100.042H26.3178V86.1045C26.3178 83.9205 25.9818 82.3049 25.303 81.2592C24.6584 80.1826 23.5681 79.6437 22.0321 79.6437C20.4275 79.6437 19.1658 80.2135 18.2469 81.3511C17.3212 82.4592 16.8618 84.0432 16.8618 86.1045V100.042H10.9509V75.3984Z" fill="#26374D"/>
<path d="M6 67.2761H0V100.042H6V67.2761Z" fill="#26374D"/>
<path d="M95.1222 120.501H93.9702V116.597L90.5896 110.944H91.961L94.5462 115.413L97.1313 110.944H98.5028L95.1222 116.597V120.501Z" fill="#536D82"/>
<path d="M101.609 120.663C100.958 120.663 100.382 120.51 99.8881 120.205C99.3944 119.9 99.0104 119.469 98.7429 118.913C98.4755 118.347 98.3384 117.688 98.3384 116.934C98.3384 116.18 98.4755 115.526 98.7429 114.969C99.0104 114.403 99.3944 113.968 99.8881 113.663C100.382 113.358 100.958 113.205 101.609 113.205C102.254 113.205 102.823 113.358 103.317 113.663C103.81 113.968 104.194 114.403 104.462 114.969C104.729 115.526 104.866 116.18 104.866 116.934C104.866 117.688 104.729 118.347 104.462 118.913C104.194 119.469 103.81 119.9 103.317 120.205C102.823 120.51 102.254 120.663 101.609 120.663ZM101.609 114.283C100.958 114.283 100.443 114.516 100.073 114.983C99.7097 115.449 99.5247 116.1 99.5247 116.934C99.5247 117.769 99.7097 118.419 100.073 118.886C100.443 119.353 100.958 119.586 101.609 119.586C102.268 119.586 102.768 119.353 103.132 118.886C103.495 118.411 103.68 117.76 103.68 116.934C103.68 116.109 103.495 115.463 103.132 114.996C102.768 114.52 102.268 114.283 101.609 114.283Z" fill="#536D82"/>
<path d="M108.384 120.663C107.664 120.663 107.095 120.425 106.67 119.949C106.251 119.464 106.039 118.801 106.039 117.957V113.367H107.17V117.647C107.17 118.339 107.294 118.85 107.534 119.182C107.787 119.506 108.165 119.667 108.679 119.667C109.241 119.667 109.687 119.487 110.009 119.128C110.331 118.76 110.496 118.258 110.496 117.621V113.367H111.621V120.501H110.544V119.346C110.393 119.689 110.181 119.971 109.899 120.192C109.495 120.506 108.987 120.663 108.384 120.663Z" fill="#536D82"/>
<path d="M114.507 120.501H113.376V113.367H114.37L114.411 114.686C114.514 114.305 114.679 114.009 114.898 113.798C115.193 113.511 115.591 113.367 116.105 113.367H116.805V114.444H116.119C115.762 114.444 115.461 114.511 115.221 114.646C114.987 114.771 114.802 114.964 114.679 115.225C114.562 115.485 114.507 115.808 114.507 116.194V120.501Z" fill="#536D82"/>
<path d="M124.807 120.501H123.675C123.031 120.501 122.551 120.353 122.235 120.057C121.934 119.761 121.783 119.299 121.783 118.67V114.363H120.734V113.367H121.783V111.698H122.907V113.367H124.807V114.363H122.907V118.644C122.907 118.958 122.976 119.182 123.113 119.317C123.257 119.442 123.477 119.506 123.785 119.506H124.807V120.501Z" fill="#536D82"/>
<path d="M127.166 120.501H126.034V113.367H127.036L127.07 114.685C127.18 114.304 127.337 114.008 127.557 113.798C127.852 113.511 128.256 113.367 128.77 113.367H129.47V114.444H128.784C128.421 114.444 128.126 114.511 127.879 114.646C127.646 114.771 127.468 114.964 127.344 115.225C127.228 115.485 127.166 115.808 127.166 116.194V120.501Z" fill="#536D82"/>
<path d="M133.111 120.663C132.391 120.663 131.822 120.425 131.403 119.949C130.978 119.464 130.772 118.801 130.772 117.957V113.367H131.904V117.647C131.904 118.339 132.02 118.85 132.26 119.182C132.514 119.506 132.898 119.667 133.406 119.667C133.975 119.667 134.414 119.487 134.736 119.128C135.065 118.76 135.223 118.258 135.223 117.621V113.367H136.354V120.501H135.278V119.347C135.12 119.689 134.907 119.971 134.633 120.192C134.228 120.506 133.721 120.663 133.111 120.663Z" fill="#536D82"/>
<path d="M140.544 120.663C139.927 120.663 139.385 120.564 138.933 120.367C138.48 120.16 138.13 119.878 137.883 119.519C137.637 119.15 137.499 118.729 137.465 118.253L138.644 118.173C138.72 118.621 138.905 118.971 139.214 119.223C139.515 119.464 139.961 119.586 140.544 119.586C141.045 119.586 141.435 119.506 141.717 119.344C142.005 119.182 142.149 118.931 142.149 118.59C142.149 118.393 142.094 118.236 141.998 118.119C141.909 117.993 141.73 117.885 141.476 117.796C141.223 117.697 140.839 117.603 140.331 117.513C139.659 117.396 139.125 117.243 138.727 117.056C138.336 116.867 138.055 116.639 137.883 116.368C137.719 116.1 137.637 115.772 137.637 115.386C137.637 114.74 137.877 114.215 138.35 113.811C138.83 113.408 139.488 113.205 140.331 113.205C141.154 113.205 141.813 113.421 142.293 113.851C142.779 114.283 143.081 114.83 143.198 115.494L142.011 115.574C141.929 115.18 141.744 114.865 141.449 114.632C141.161 114.399 140.784 114.283 140.318 114.283C139.824 114.283 139.454 114.381 139.2 114.579C138.946 114.767 138.823 115.018 138.823 115.332C138.823 115.565 138.878 115.759 138.987 115.911C139.104 116.054 139.282 116.176 139.522 116.275C139.762 116.364 140.105 116.445 140.544 116.517C141.271 116.643 141.833 116.795 142.224 116.975C142.629 117.145 142.91 117.36 143.074 117.621C143.246 117.872 143.328 118.195 143.328 118.59C143.328 119.236 143.067 119.743 142.533 120.111C142.018 120.479 141.353 120.663 140.544 120.663Z" fill="#536D82"/>
<path d="M147.97 120.501H146.839C146.194 120.501 145.714 120.353 145.399 120.057C145.097 119.761 144.946 119.299 144.946 118.67V114.363H143.897V113.367H144.946V111.698H146.071V113.367H147.97V114.363H146.071V118.644C146.071 118.958 146.139 119.182 146.277 119.317C146.421 119.442 146.647 119.506 146.949 119.506H147.97V120.501Z" fill="#536D82"/>
<path d="M151.762 120.663C151.097 120.663 150.521 120.51 150.027 120.205C149.534 119.9 149.157 119.469 148.882 118.913C148.622 118.347 148.491 117.688 148.491 116.934C148.491 116.189 148.622 115.534 148.882 114.969C149.157 114.403 149.527 113.968 150.014 113.663C150.501 113.358 151.063 113.205 151.707 113.205C152.325 113.205 152.873 113.353 153.353 113.65C153.826 113.937 154.197 114.363 154.457 114.928C154.725 115.493 154.855 116.167 154.855 116.948V117.285H149.678C149.712 118.038 149.911 118.612 150.267 119.007C150.638 119.393 151.138 119.586 151.762 119.586C152.222 119.586 152.599 119.483 152.894 119.277C153.195 119.061 153.415 118.765 153.538 118.388L154.752 118.482C154.56 119.137 154.197 119.667 153.662 120.071C153.134 120.466 152.496 120.663 151.762 120.663ZM151.707 114.283C151.152 114.283 150.693 114.453 150.336 114.794C149.986 115.135 149.767 115.633 149.678 116.288H153.621C153.566 115.624 153.367 115.126 153.031 114.794C152.695 114.453 152.256 114.283 151.707 114.283Z" fill="#536D82"/>
<path d="M158.674 120.663C158.064 120.663 157.529 120.51 157.07 120.205C156.61 119.9 156.261 119.469 156.021 118.913C155.781 118.347 155.657 117.688 155.657 116.934C155.657 116.18 155.781 115.526 156.021 114.969C156.261 114.403 156.61 113.968 157.07 113.663C157.529 113.358 158.064 113.205 158.674 113.205C159.154 113.205 159.593 113.309 159.977 113.515C160.368 113.722 160.67 114.004 160.862 114.363V110.944H161.993V120.501H160.972L160.93 119.425C160.731 119.811 160.437 120.115 160.032 120.339C159.628 120.555 159.175 120.663 158.674 120.663ZM158.901 114.283C158.27 114.283 157.769 114.52 157.392 114.996C157.029 115.463 156.843 116.109 156.843 116.934C156.843 117.751 157.029 118.397 157.392 118.873C157.769 119.349 158.27 119.586 158.901 119.586C159.312 119.586 159.669 119.478 159.964 119.263C160.258 119.048 160.485 118.742 160.636 118.347C160.786 117.953 160.862 117.481 160.862 116.934C160.862 116.387 160.786 115.916 160.636 115.521C160.485 115.117 160.258 114.812 159.964 114.605C159.676 114.39 159.319 114.283 158.901 114.283Z" fill="#536D82"/>
<path d="M168.905 120.501H168.11C167.671 120.501 167.328 120.394 167.074 120.178C166.82 119.953 166.697 119.613 166.697 119.155L166.711 110.944H167.842V119.061C167.842 119.205 167.877 119.317 167.952 119.397C168.027 119.469 168.144 119.506 168.288 119.506H168.905V120.501Z" fill="#536D82"/>
<path d="M172.814 120.663C172.156 120.663 171.58 120.51 171.093 120.205C170.599 119.9 170.215 119.469 169.948 118.913C169.68 118.347 169.543 117.688 169.543 116.934C169.543 116.18 169.68 115.526 169.948 114.969C170.215 114.403 170.599 113.968 171.093 113.663C171.58 113.358 172.156 113.205 172.814 113.205C173.458 113.205 174.028 113.358 174.521 113.663C175.015 113.968 175.392 114.403 175.666 114.969C175.934 115.526 176.064 116.18 176.064 116.934C176.064 117.688 175.934 118.347 175.666 118.913C175.392 119.469 175.015 119.9 174.521 120.205C174.028 120.51 173.458 120.663 172.814 120.663ZM172.814 114.283C172.156 114.283 171.648 114.516 171.278 114.983C170.908 115.449 170.729 116.1 170.729 116.934C170.729 117.769 170.908 118.419 171.278 118.886C171.648 119.353 172.156 119.586 172.814 119.586C173.465 119.586 173.973 119.353 174.329 118.886C174.7 118.411 174.885 117.76 174.885 116.934C174.885 116.109 174.7 115.463 174.329 114.996C173.973 114.52 173.465 114.283 172.814 114.283Z" fill="#536D82"/>
<path d="M180.13 120.663C179.479 120.663 178.903 120.51 178.409 120.205C177.915 119.9 177.538 119.464 177.271 118.899C176.996 118.334 176.866 117.679 176.866 116.934C176.866 116.189 176.996 115.534 177.271 114.969C177.538 114.403 177.915 113.968 178.409 113.663C178.903 113.358 179.479 113.205 180.13 113.205C180.679 113.205 181.166 113.304 181.584 113.501C182.016 113.69 182.366 113.973 182.633 114.35C182.907 114.717 183.079 115.162 183.161 115.683L181.975 115.763C181.892 115.297 181.687 114.933 181.358 114.673C181.035 114.413 180.624 114.283 180.13 114.283C179.479 114.283 178.964 114.516 178.601 114.983C178.231 115.449 178.046 116.1 178.046 116.934C178.046 117.769 178.231 118.419 178.601 118.886C178.964 119.353 179.479 119.586 180.13 119.586C180.624 119.586 181.035 119.451 181.358 119.182C181.687 118.904 181.892 118.5 181.975 117.97L183.161 118.051C183.079 118.581 182.907 119.043 182.633 119.438C182.366 119.824 182.016 120.125 181.584 120.339C181.152 120.555 180.672 120.663 180.13 120.663Z" fill="#536D82"/>
<path d="M186.288 120.663C185.547 120.663 184.958 120.492 184.526 120.152C184.1 119.811 183.881 119.335 183.881 118.725C183.881 118.114 184.059 117.634 184.423 117.285C184.779 116.934 185.348 116.687 186.13 116.544L188.661 116.073C188.661 115.472 188.517 115.022 188.229 114.727C187.947 114.43 187.529 114.283 186.967 114.283C186.48 114.283 186.089 114.39 185.794 114.605C185.506 114.821 185.307 115.14 185.204 115.561L184.004 115.467C184.142 114.776 184.464 114.228 184.985 113.824C185.513 113.412 186.171 113.205 186.967 113.205C187.872 113.205 188.564 113.461 189.051 113.973C189.545 114.484 189.792 115.198 189.792 116.113V119.061C189.792 119.223 189.813 119.339 189.867 119.411C189.929 119.474 190.032 119.506 190.162 119.506H190.45V120.501C190.395 120.51 190.334 120.515 190.258 120.515C190.19 120.524 190.107 120.528 190.018 120.528C189.524 120.528 189.175 120.412 188.969 120.178C188.811 120.004 188.715 119.745 188.681 119.4C188.537 119.707 188.29 119.975 187.934 120.205C187.447 120.51 186.898 120.663 186.288 120.663ZM188.661 117.056L186.343 117.486C185.877 117.567 185.547 117.702 185.349 117.89C185.163 118.069 185.067 118.312 185.067 118.616C185.067 118.949 185.184 119.209 185.417 119.397C185.65 119.578 185.979 119.667 186.398 119.667C186.864 119.667 187.268 119.578 187.611 119.397C187.947 119.209 188.208 118.958 188.386 118.644C188.571 118.321 188.661 117.961 188.661 117.567V117.056Z" fill="#536D82"/>
<path d="M193.673 120.501H192.878C192.439 120.501 192.089 120.394 191.842 120.178C191.589 119.953 191.465 119.613 191.465 119.155L191.479 110.944H192.61V119.061C192.61 119.205 192.645 119.317 192.713 119.397C192.795 119.469 192.905 119.506 193.049 119.506H193.673V120.501Z" fill="#536D82"/>
<path d="M198.974 122.521H197.842V113.367H198.891L198.912 114.447C199.083 114.105 199.323 113.83 199.632 113.623C200.057 113.344 200.544 113.205 201.099 113.205C201.778 113.205 202.347 113.375 202.807 113.717C203.273 114.049 203.616 114.498 203.842 115.063C204.069 115.629 204.178 116.252 204.178 116.934C204.178 117.616 204.069 118.24 203.842 118.805C203.616 119.371 203.273 119.824 202.807 120.165C202.347 120.496 201.778 120.663 201.099 120.663C200.729 120.663 200.386 120.6 200.064 120.475C199.749 120.349 199.481 120.174 199.255 119.949C199.145 119.828 199.049 119.697 198.974 119.558V122.521ZM200.99 114.283C200.578 114.283 200.222 114.385 199.913 114.592C199.611 114.789 199.378 115.085 199.214 115.48C199.056 115.875 198.974 116.36 198.974 116.934C198.974 117.509 199.056 117.993 199.214 118.388C199.378 118.783 199.605 119.083 199.899 119.29C200.208 119.487 200.571 119.586 200.99 119.586C201.614 119.586 202.101 119.353 202.457 118.886C202.814 118.419 202.999 117.769 202.999 116.934C202.999 116.1 202.814 115.449 202.457 114.983C202.101 114.516 201.614 114.283 200.99 114.283Z" fill="#536D82"/>
<path d="M207.442 120.663C206.702 120.663 206.112 120.492 205.68 120.152C205.255 119.811 205.035 119.335 205.035 118.725C205.035 118.114 205.214 117.634 205.577 117.285C205.934 116.934 206.503 116.687 207.285 116.544L209.815 116.073C209.815 115.472 209.671 115.022 209.383 114.727C209.102 114.43 208.683 114.283 208.114 114.283C207.634 114.283 207.243 114.39 206.949 114.605C206.661 114.821 206.462 115.14 206.352 115.561L205.159 115.467C205.289 114.776 205.618 114.228 206.139 113.824C206.667 113.412 207.326 113.205 208.114 113.205C209.026 113.205 209.719 113.461 210.199 113.973C210.693 114.484 210.939 115.198 210.939 116.113V119.061C210.939 119.223 210.967 119.339 211.022 119.411C211.083 119.474 211.186 119.506 211.317 119.506H211.605V120.501C211.55 120.51 211.488 120.515 211.413 120.515C211.344 120.524 211.262 120.528 211.173 120.528C210.679 120.528 210.329 120.412 210.123 120.178C209.966 120.004 209.87 119.745 209.829 119.4C209.691 119.707 209.438 119.975 209.088 120.205C208.601 120.51 208.053 120.663 207.442 120.663ZM209.815 117.056L207.497 117.486C207.031 117.567 206.702 117.702 206.503 117.89C206.318 118.069 206.222 118.312 206.222 118.616C206.222 118.949 206.338 119.209 206.571 119.397C206.805 119.578 207.134 119.667 207.552 119.667C208.018 119.667 208.423 119.578 208.766 119.397C209.102 119.209 209.362 118.958 209.541 118.644C209.726 118.321 209.815 117.961 209.815 117.567V117.056Z" fill="#536D82"/>
<path d="M213.813 120.501H212.681V113.367H213.675L213.717 114.684C213.826 114.304 213.984 114.008 214.203 113.798C214.498 113.511 214.903 113.367 215.417 113.367H216.117V114.444H215.431C215.067 114.444 214.766 114.511 214.526 114.646C214.293 114.771 214.114 114.964 213.991 115.225C213.874 115.485 213.813 115.808 213.813 116.194V120.501Z" fill="#536D82"/>
<path d="M220.958 120.501H219.833C219.182 120.501 218.702 120.353 218.393 120.057C218.084 119.761 217.934 119.299 217.934 118.67V114.363H216.885V113.367H217.934V111.698H219.065V113.367H220.958V114.363H219.065V118.644C219.065 118.958 219.127 119.182 219.264 119.317C219.408 119.442 219.634 119.506 219.936 119.506H220.958V120.501Z" fill="#536D82"/>
<path d="M227.856 120.501H226.724V116.234C226.724 115.561 226.601 115.054 226.361 114.713C226.114 114.372 225.73 114.202 225.202 114.202C224.64 114.202 224.18 114.381 223.831 114.74C223.488 115.09 223.316 115.588 223.316 116.234V120.501H222.192V113.367H223.227L223.255 114.63C223.399 114.229 223.632 113.912 223.94 113.676C224.359 113.362 224.859 113.205 225.442 113.205C226.224 113.205 226.82 113.457 227.232 113.96C227.643 114.462 227.856 115.112 227.856 115.911V120.501Z" fill="#536D82"/>
<path d="M232.231 120.663C231.566 120.663 230.99 120.51 230.496 120.205C230.002 119.9 229.618 119.469 229.351 118.913C229.09 118.347 228.96 117.688 228.96 116.934C228.96 116.189 229.09 115.534 229.351 114.969C229.618 114.403 229.995 113.968 230.482 113.663C230.969 113.358 231.531 113.205 232.176 113.205C232.793 113.205 233.342 113.353 233.822 113.65C234.295 113.937 234.658 114.363 234.919 114.928C235.193 115.493 235.323 116.167 235.323 116.948V117.285H230.146C230.181 118.038 230.379 118.612 230.736 119.007C231.106 119.393 231.6 119.586 232.231 119.586C232.69 119.586 233.067 119.483 233.362 119.277C233.664 119.061 233.883 118.765 234.007 118.388L235.221 118.482C235.029 119.137 234.665 119.667 234.13 120.071C233.595 120.466 232.965 120.663 232.231 120.663ZM232.176 114.283C231.62 114.283 231.161 114.453 230.804 114.794C230.455 115.135 230.235 115.633 230.146 116.288H234.089C234.034 115.624 233.835 115.126 233.493 114.794C233.163 114.453 232.724 114.283 232.176 114.283Z" fill="#536D82"/>
<path d="M237.703 120.501H236.572V113.367H237.566L237.607 114.685C237.71 114.304 237.874 114.008 238.087 113.798C238.389 113.511 238.786 113.367 239.301 113.367H240V114.444H239.314C238.958 114.444 238.656 114.511 238.409 114.646C238.176 114.771 237.998 114.964 237.874 115.225C237.758 115.485 237.703 115.808 237.703 116.194V120.501Z" fill="#536D82"/>
</g>
<defs>
<clipPath id="clip0_2027_363">
<rect width="240" height="122.743" fill="white"/>
</clipPath>
</defs>
</svg>
