<svg width="31" height="32" viewBox="0 0 31 32" fill="none" xmlns="http://www.w3.org/2000/svg">
<path d="M26.3245 0C28.4586 0 30.1887 1.73004 30.1887 3.86415V9.31739C30.1887 9.52254 29.9491 9.63428 29.7919 9.50242L27.1527 7.28774C26.9339 7.10419 26.8075 6.83325 26.8075 6.5477V4.34717C26.8075 3.81364 26.375 3.38113 25.8415 3.38113H12.5755C12.3484 3.38113 12.1285 3.46115 11.9545 3.60713L3.72624 10.5116C3.50749 10.6951 3.38113 10.966 3.38113 11.2516V27.6528C3.38113 28.1864 3.81364 28.6189 4.34717 28.6189H26.3245C26.5913 28.6189 26.8075 28.4026 26.8075 28.1358V17.8376C26.8075 17.6948 26.7444 17.5593 26.635 17.4675L19.6313 11.5907C19.4517 11.44 19.1898 11.44 19.0103 11.5907L12.0065 17.4675C11.8971 17.5593 11.834 17.6948 11.834 17.8376V26.1791C11.834 26.4458 11.6177 26.6621 11.3509 26.6621H8.93585C8.66909 26.6621 8.45284 26.4458 8.45283 26.1791V16.4861C8.45283 16.2006 8.57919 15.9297 8.79794 15.7461L18.6998 7.43744C19.059 7.13611 19.5826 7.13611 19.9417 7.43744L30.0162 15.8909C30.1255 15.9826 30.1887 16.1181 30.1887 16.2609V28.1358C30.1887 30.27 28.4586 32 26.3245 32H1.92665C0.862607 32 0 31.1374 0 30.0733V3.38113C2.72327e-08 1.51378 1.51378 0 3.38113 0V6.38732L10.4546 0.452005C10.8026 0.160037 11.2423 0 11.6965 0H26.3245Z" fill="#608900"/>
<path d="M21.2528 19.4168C21.5196 19.4168 21.7359 19.6331 21.7359 19.8998V26.1791C21.7358 26.4458 21.5196 26.6621 21.2528 26.6621H17.3887C17.1219 26.6621 16.9057 26.4458 16.9057 26.1791V19.8998C16.9057 19.6331 17.1219 19.4168 17.3887 19.4168H21.2528Z" fill="#608900"/>
</svg>
