<svg width="46" height="48" viewBox="0 0 46 48" fill="none" xmlns="http://www.w3.org/2000/svg">
<path d="M39.4868 0C42.688 0 45.283 2.59506 45.283 5.79623V13.9761C45.283 14.2838 44.9236 14.4514 44.6879 14.2536L40.729 10.9316C40.4009 10.6563 40.2113 10.2499 40.2113 9.82155V6.52075C40.2113 5.72046 39.5626 5.0717 38.7623 5.0717H18.8633C18.5226 5.0717 18.1928 5.19172 17.9318 5.4107L5.58936 15.7673C5.26124 16.0427 5.0717 16.4491 5.0717 16.8774V41.4792C5.0717 42.2795 5.72046 42.9283 6.52075 42.9283H39.4868C39.8869 42.9283 40.2113 42.6039 40.2113 42.2038V26.7563C40.2113 26.5422 40.1166 26.3389 39.9525 26.2013L29.4469 17.386C29.1775 17.16 28.7847 17.16 28.5154 17.386L18.0097 26.2013C17.8457 26.3389 17.7509 26.5422 17.7509 26.7563V39.2686C17.7509 39.6687 17.4266 39.9931 17.0264 39.9931H13.4038C13.0036 39.9931 12.6793 39.6687 12.6792 39.2686V24.7292C12.6792 24.3009 12.8688 23.8945 13.1969 23.6192L28.0497 11.1562C28.5884 10.7042 29.3738 10.7042 29.9125 11.1562L45.0242 23.8363C45.1883 23.974 45.283 24.1772 45.283 24.3914V42.2038C45.283 45.4049 42.688 48 39.4868 48H2.88998C1.29391 48 0 46.7061 0 45.11V5.0717C4.0849e-08 2.27068 2.27068 0 5.0717 0V9.58099L15.6819 0.678007C16.2038 0.240056 16.8634 0 17.5448 0H39.4868Z" fill="#005AA3"/>
<path d="M31.8792 29.1252C32.2794 29.1252 32.6038 29.4496 32.6038 29.8497V39.2686C32.6038 39.6687 32.2794 39.9931 31.8792 39.9931H26.083C25.6829 39.9931 25.3585 39.6687 25.3585 39.2686V29.8497C25.3585 29.4496 25.6829 29.1252 26.083 29.1252H31.8792Z" fill="#005AA3"/>
</svg>
