<svg width="36" height="36" viewBox="0 0 36 36" fill="none" xmlns="http://www.w3.org/2000/svg">
<path d="M19.275 19.275C19.925 18.625 20.25 17.825 20.25 16.875C20.25 15.925 19.925 15.125 19.275 14.475C18.625 13.825 17.825 13.5 16.875 13.5C15.925 13.5 15.125 13.825 14.475 14.475C13.825 15.125 13.5 15.925 13.5 16.875C13.5 17.825 13.825 18.625 14.475 19.275C15.125 19.925 15.925 20.25 16.875 20.25C17.825 20.25 18.625 19.925 19.275 19.275ZM24.1125 26.25L20.175 22.3125C19.675 22.6375 19.144 22.875 18.582 23.025C18.02 23.175 17.451 23.25 16.875 23.25C15.1 23.25 13.594 22.6315 12.357 21.3945C11.12 20.1575 10.501 18.651 10.5 16.875C10.499 15.099 11.118 13.593 12.357 12.357C13.596 11.121 15.102 10.502 16.875 10.5C18.648 10.498 20.1545 11.117 21.3945 12.357C22.6345 13.597 23.253 15.103 23.25 16.875C23.25 17.45 23.169 18.019 23.007 18.582C22.845 19.145 22.601 19.676 22.275 20.175L26.25 24.15L24.1125 26.25ZM7.5 31.5C6.675 31.5 5.969 31.2065 5.382 30.6195C4.795 30.0325 4.501 29.326 4.5 28.5V22.5H7.5V28.5H13.5V31.5H7.5ZM22.5 31.5V28.5H28.5V22.5H31.5V28.5C31.5 29.325 31.2065 30.0315 30.6195 30.6195C30.0325 31.2075 29.326 31.501 28.5 31.5H22.5ZM4.5 13.5V7.5C4.5 6.675 4.794 5.969 5.382 5.382C5.97 4.795 6.676 4.501 7.5 4.5H13.5V7.5H7.5V13.5H4.5ZM28.5 13.5V7.5H22.5V4.5H28.5C29.325 4.5 30.0315 4.794 30.6195 5.382C31.2075 5.97 31.501 6.676 31.5 7.5V13.5H28.5Z" fill="#4B5B2F"/>
</svg>
