<svg width="36" height="36" viewBox="0 0 36 36" fill="none" xmlns="http://www.w3.org/2000/svg">
<path d="M6.29998 7.20001C4.80935 7.20001 3.59998 8.40939 3.59998 9.90001C3.59998 10.7494 3.99935 11.5481 4.67998 12.06L16.38 20.835C16.8473 21.1855 17.4158 21.375 18 21.375C18.5842 21.375 19.1526 21.1855 19.62 20.835L31.32 12.06C32.0006 11.5481 32.4 10.7494 32.4 9.90001C32.4 8.40939 31.1906 7.20001 29.7 7.20001H6.29998ZM3.59998 14.625V25.2C3.59998 27.1856 5.21435 28.8 7.19998 28.8H28.8C30.7856 28.8 32.4 27.1856 32.4 25.2V14.625L21.24 22.995C19.3219 24.435 16.6781 24.435 14.76 22.995L3.59998 14.625Z" fill="currentColor"/>
</svg>
