<?xml version="1.0" encoding="UTF-8" standalone="no"?>
<!DOCTYPE svg PUBLIC "-//W3C//DTD SVG 1.1//EN" "http://www.w3.org/Graphics/SVG/1.1/DTD/svg11.dtd">
<svg width="100%" height="100%" viewBox="0 0 46 46" version="1.1" xmlns="http://www.w3.org/2000/svg" xmlns:xlink="http://www.w3.org/1999/xlink" xml:space="preserve" xmlns:serif="http://www.serif.com/" style="fill-rule:evenodd;clip-rule:evenodd;stroke-linejoin:round;stroke-miterlimit:2;">
    <g transform="matrix(1,0,0,1,-618.656,-1496.0592)">
        <g>
            <g transform="matrix(-2,0,0,2,641.276,1541.3012)">
                <path d="M0,-22.621C6.247,-22.621 11.31,-17.557 11.31,-11.311C11.31,-5.062 6.247,0 0,0C-6.247,0 -11.31,-5.062 -11.31,-11.311C-11.31,-17.557 -6.247,-22.621 0,-22.621" style="fill:white;fill-rule:nonzero;"/>
            </g>
            <g transform="matrix(2,0,0,2,653.8934,1518.3308)">
                <path d="M0,0.35C-0.866,0.656 -1.817,0.202 -2.124,-0.665C-2.43,-1.529 -1.976,-2.484 -1.112,-2.79C-0.245,-3.095 0.706,-2.642 1.014,-1.774C1.321,-0.91 0.866,0.041 0,0.35M-6.309,7.71C-8.701,7.71 -10.641,5.77 -10.641,3.376C-10.641,3.222 -10.633,3.071 -10.618,2.921C-11.676,3.064 -12.768,2.588 -13.358,1.617C-14.153,0.307 -13.738,-1.4 -12.43,-2.197C-11.942,-2.491 -11.4,-2.617 -10.873,-2.596C-11.096,-3.253 -10.991,-4.006 -10.519,-4.584C-9.795,-5.473 -8.484,-5.605 -7.595,-4.879C-6.703,-4.152 -6.57,-2.842 -7.296,-1.952C-7.634,-1.536 -8.103,-1.293 -8.596,-1.217C-8.456,-0.977 -8.364,-0.724 -8.303,-0.467C-7.705,-0.779 -7.028,-0.956 -6.309,-0.956C-3.915,-0.956 -1.973,0.984 -1.973,3.376C-1.973,5.77 -3.915,7.71 -6.309,7.71M-4.112,-7.045C-3.176,-7.374 -2.149,-6.886 -1.819,-5.95C-1.487,-5.014 -1.976,-3.987 -2.913,-3.657C-3.849,-3.324 -4.874,-3.815 -5.208,-4.749C-5.538,-5.686 -5.049,-6.711 -4.112,-7.045M-6.309,-9.999C-11.929,-9.999 -16.483,-5.445 -16.483,0.174C-16.483,5.793 -11.929,10.349 -6.309,10.349C-0.69,10.349 3.866,5.793 3.866,0.174C3.866,-5.445 -0.69,-9.999 -6.309,-9.999" style="fill:rgb(241,91,43);fill-rule:nonzero;"/>
            </g>
        </g>
    </g>
</svg>
