<svg width="36" height="36" viewBox="0 0 36 36" fill="none" xmlns="http://www.w3.org/2000/svg">
<path d="M23.3887 5.00623C23.8275 3.94873 24.9862 3.38061 26.0944 3.68436L26.4037 3.76873C30.0375 4.75873 33.1425 8.27998 32.2369 12.5662C30.15 22.41 22.4044 30.1556 12.5606 32.2425C8.26874 33.1537 4.75312 30.0431 3.76312 26.4094L3.67874 26.1C3.37499 24.9919 3.94312 23.8331 5.00062 23.3944L10.4737 21.1162C11.4019 20.7281 12.4762 20.9981 13.1175 21.78L15.2887 24.435C19.2431 22.4719 22.4212 19.1869 24.2494 15.1594L21.7687 13.1287C20.9869 12.4931 20.7225 11.4187 21.105 10.485L23.3887 5.00623Z" fill="currentColor"/>
</svg>
