<svg width="64" height="64" viewBox="0 0 64 64" fill="none" xmlns="http://www.w3.org/2000/svg">
<path d="M10.6 56V48H18.8667L12.0667 25.7334C10.8667 25.0667 9.87824 24.0889 9.10135 22.8C8.32446 21.5111 7.93513 20.1334 7.93335 18.6667C7.93335 16.4445 8.71113 14.5556 10.2667 13C11.8222 11.4445 13.7111 10.6667 15.9333 10.6667C17.6667 10.6667 19.2116 11.1671 20.568 12.168C21.9245 13.1689 22.8685 14.4462 23.4 16H31.9333V13.3334C31.9333 12.5778 32.1893 11.9449 32.7013 11.4347C33.2133 10.9245 33.8462 10.6685 34.6 10.6667C35 10.6667 35.3893 10.7556 35.768 10.9334C36.1467 11.1111 36.4685 11.3778 36.7333 11.7334L41.2667 7.46669C41.6667 7.06669 42.1449 6.81069 42.7013 6.69869C43.2578 6.58669 43.8018 6.66491 44.3333 6.93336L54.7333 11.7334C55.2667 12 55.6338 12.3894 55.8347 12.9014C56.0356 13.4134 56.024 13.9129 55.8 14.4C55.5333 14.9334 55.1449 15.2782 54.6347 15.4347C54.1245 15.5911 53.624 15.5574 53.1333 15.3334L43.5333 10.9334L37.2667 16.8V20.5334L43.5333 26.2667L53.1333 21.8667C53.6222 21.6445 54.1333 21.6222 54.6667 21.8C55.2 21.9778 55.5778 22.3111 55.8 22.8C56.0667 23.3334 56.0889 23.8445 55.8667 24.3334C55.6445 24.8222 55.2667 25.2 54.7333 25.4667L44.3333 30.4C43.8 30.6667 43.256 30.744 42.7013 30.632C42.1467 30.52 41.6685 30.2649 41.2667 29.8667L36.7333 25.6C36.4667 25.8667 36.1449 26.1111 35.768 26.3334C35.3911 26.5556 35.0018 26.6667 34.6 26.6667C33.8445 26.6667 33.2116 26.4116 32.7013 25.9014C32.1911 25.3911 31.9351 24.7574 31.9333 24V21.3334H23.4C23.2667 21.6889 23.1227 22.0222 22.968 22.3334C22.8133 22.6445 22.6018 22.9778 22.3333 23.3334L35.6667 48H45.2667V56H10.6ZM17.8347 20.5654C18.3449 20.0551 18.6 19.4222 18.6 18.6667C18.6 17.9111 18.3449 17.2782 17.8347 16.768C17.3245 16.2578 16.6907 16.0018 15.9333 16C15.176 15.9982 14.5431 16.2542 14.0347 16.768C13.5262 17.2818 13.2702 17.9147 13.2667 18.6667C13.2631 19.4187 13.5191 20.0525 14.0347 20.568C14.5502 21.0836 15.1831 21.3387 15.9333 21.3334C16.6836 21.328 17.3173 21.072 17.8347 20.5654Z" fill="#608900"/>
</svg>
