<svg width="36" height="36" viewBox="0 0 36 36" fill="none" xmlns="http://www.w3.org/2000/svg">
<path d="M7.5 28.5V7.5V24.525V21.3375V28.5ZM7.5 31.5C6.675 31.5 5.969 31.2065 5.382 30.6195C4.795 30.0325 4.501 29.326 4.5 28.5V7.5C4.5 6.675 4.794 5.969 5.382 5.382C5.97 4.795 6.676 4.501 7.5 4.5H28.5C29.325 4.5 30.0315 4.794 30.6195 5.382C31.2075 5.97 31.501 6.676 31.5 7.5V19.5H28.5V7.5H7.5V28.5H18V31.5H7.5ZM26.025 33L20.7 27.675L22.8375 25.575L26.025 28.7625L32.4 22.3875L34.5 24.525L26.025 33ZM13.068 19.0695C13.356 18.7815 13.5 18.425 13.5 18C13.5 17.575 13.356 17.219 13.068 16.932C12.78 16.645 12.424 16.501 12 16.5C11.576 16.499 11.22 16.643 10.932 16.932C10.644 17.221 10.5 17.577 10.5 18C10.5 18.423 10.644 18.7795 10.932 19.0695C11.22 19.3595 11.576 19.503 12 19.5C12.424 19.497 12.7805 19.353 13.0695 19.068M13.0695 13.068C13.3565 12.782 13.5 12.426 13.5 12C13.5 11.574 13.356 11.218 13.068 10.932C12.78 10.646 12.424 10.502 12 10.5C11.576 10.498 11.22 10.642 10.932 10.932C10.644 11.222 10.5 11.578 10.5 12C10.5 12.422 10.644 12.7785 10.932 13.0695C11.22 13.3605 11.576 13.504 12 13.5C12.424 13.496 12.7805 13.352 13.0695 13.068ZM16.5 19.5H25.5V16.5H16.5V19.5ZM16.5 13.5H25.5V10.5H16.5V13.5Z" fill="#4B5B2F"/>
</svg>
