<svg width="96" height="96" viewBox="0 0 96 96" fill="none" xmlns="http://www.w3.org/2000/svg">
<path d="M48 57.9L55.7 62.5C56.4333 62.9667 57.1507 62.9507 57.852 62.452C58.5533 61.9533 58.8027 61.2693 58.6 60.4L56.6 51.7L63.4 45.8C64.0667 45.2 64.2667 44.484 64 43.652C63.7333 42.82 63.1333 42.3693 62.2 42.3L53.3 41.6L49.8 33.3C49.4667 32.5 48.8667 32.1 48 32.1C47.1333 32.1 46.5333 32.5 46.2 33.3L42.7 41.6L33.8 42.3C32.8667 42.3667 32.2667 42.8173 32 43.652C31.7333 44.4867 31.9333 45.2027 32.6 45.8L39.4 51.7L37.4 60.4C37.2 61.2667 37.4507 61.9507 38.152 62.452C38.8533 62.9533 39.5693 62.9693 40.3 62.5L48 57.9ZM34.6 80H24C21.8 80 19.9173 79.2173 18.352 77.652C16.7867 76.0867 16.0027 74.2027 16 72V61.4L8.3 53.6C7.56667 52.8 7 51.9173 6.6 50.952C6.2 49.9867 6 49.0027 6 48C6 46.9973 6.2 46.0147 6.6 45.052C7 44.0893 7.56667 43.2053 8.3 42.4L16 34.6V24C16 21.8 16.784 19.9173 18.352 18.352C19.92 16.7867 21.8027 16.0027 24 16H34.6L42.4 8.3C43.2 7.56667 44.084 7 45.052 6.6C46.02 6.2 47.0027 6 48 6C48.9973 6 49.9813 6.2 50.952 6.6C51.9227 7 52.8053 7.56667 53.6 8.3L61.4 16H72C74.2 16 76.084 16.784 77.652 18.352C79.22 19.92 80.0027 21.8027 80 24V34.6L87.7 42.4C88.4333 43.2 89 44.084 89.4 45.052C89.8 46.02 90 47.0027 90 48C90 48.9973 89.8 49.9813 89.4 50.952C89 51.9227 88.4333 52.8053 87.7 53.6L80 61.4V72C80 74.2 79.2173 76.084 77.652 77.652C76.0867 79.22 74.2027 80.0027 72 80H61.4L53.6 87.7C52.8 88.4333 51.9173 89 50.952 89.4C49.9867 89.8 49.0027 90 48 90C46.9973 90 46.0147 89.8 45.052 89.4C44.0893 89 43.2053 88.4333 42.4 87.7L34.6 80Z" fill="#608900"/>
</svg>
